<svg width="24" height="24" viewBox="0 0 24 24" fill="none" xmlns="http://www.w3.org/2000/svg">
<path d="M11.3438 5.67188H12.75V12.7031H11.3438V5.67188Z" fill="#86CB3C"/>
<path d="M8.53125 8.48438H9.9375V12.7031H8.53125V8.48438Z" fill="#86CB3C"/>
<path d="M23.2969 1.45312H5.01562C4.6275 1.45312 4.3125 1.76812 4.3125 2.15625V16.2188C4.3125 16.6069 4.6275 16.9219 5.01562 16.9219H23.2969C23.685 16.9219 24 16.6069 24 16.2188V2.15625C24 1.76812 23.685 1.45312 23.2969 1.45312ZM16.9688 13.4062C16.9688 13.7944 16.6538 14.1094 16.2656 14.1094H7.82812C7.44 14.1094 7.125 13.7944 7.125 13.4062V7.78125C7.125 7.39313 7.44 7.07812 7.82812 7.07812H9.9375V4.96875C9.9375 4.58063 10.2525 4.26562 10.6406 4.26562H13.4531C13.8413 4.26562 14.1562 4.58063 14.1562 4.96875V9.89062H16.2656C16.6538 9.89062 16.9688 10.2056 16.9688 10.5938V13.4062ZM20.4844 8.48438H17.6719C17.2837 8.48438 16.9688 8.16937 16.9688 7.78125C16.9688 7.39313 17.2837 7.07812 17.6719 7.07812H20.4844C20.8725 7.07812 21.1875 7.39313 21.1875 7.78125C21.1875 8.16937 20.8725 8.48438 20.4844 8.48438ZM20.4844 5.67188H17.6719C17.2837 5.67188 16.9688 5.35687 16.9688 4.96875C16.9688 4.58063 17.2837 4.26562 17.6719 4.26562H20.4844C20.8725 4.26562 21.1875 4.58063 21.1875 4.96875C21.1875 5.35687 20.8725 5.67188 20.4844 5.67188Z" fill="#86CB3C"/>
<path d="M14.1562 11.2969H15.5625V12.7031H14.1562V11.2969Z" fill="#86CB3C"/>
<path d="M2.90625 16.2188V5.67188H0.703125C0.315 5.67188 0 5.98687 0 6.375V19.0312C0 19.4194 0.315 19.7344 0.703125 19.7344H9.9375V21.1406H6.42188C6.03356 21.1406 5.71875 21.4554 5.71875 21.8438C5.71875 22.2321 6.03356 22.5469 6.42188 22.5469H14.8594C15.2477 22.5469 15.5625 22.2321 15.5625 21.8438C15.5625 21.4554 15.2477 21.1406 14.8594 21.1406H11.3438V19.7344H20.4844C20.8725 19.7344 21.1875 19.4194 21.1875 19.0312V18.3281H5.01562C3.85266 18.3281 2.90625 17.3817 2.90625 16.2188Z" fill="#86CB3C"/>
</svg>
