<svg width="49" height="48" viewBox="0 0 49 48" fill="none" xmlns="http://www.w3.org/2000/svg">
<rect x="0.414062" width="48" height="48" rx="12" fill="#F3FEE7"/>
<path d="M31.754 26.49L30.754 24.83C30.544 24.46 30.354 23.76 30.354 23.35V20.82C30.354 18.47 28.974 16.44 26.984 15.49C26.464 14.57 25.504 14 24.404 14C23.314 14 22.334 14.59 21.814 15.52C19.864 16.49 18.514 18.5 18.514 20.82V23.35C18.514 23.76 18.324 24.46 18.114 24.82L17.104 26.49C16.704 27.16 16.614 27.9 16.864 28.58C17.104 29.25 17.674 29.77 18.414 30.02C20.354 30.68 22.394 31 24.434 31C26.474 31 28.514 30.68 30.454 30.03C31.154 29.8 31.694 29.27 31.954 28.58C32.214 27.89 32.144 27.13 31.754 26.49Z" fill="#66C61C"/>
<path d="M27.2437 32.01C26.8237 33.17 25.7137 34 24.4137 34C23.6237 34 22.8437 33.68 22.2937 33.11C21.9737 32.81 21.7338 32.41 21.5938 32C21.7237 32.02 21.8537 32.03 21.9937 32.05C22.2237 32.08 22.4637 32.11 22.7037 32.13C23.2737 32.18 23.8538 32.21 24.4338 32.21C25.0038 32.21 25.5738 32.18 26.1337 32.13C26.3438 32.11 26.5538 32.1 26.7537 32.07C26.9137 32.05 27.0737 32.03 27.2437 32.01Z" fill="#66C61C"/>
<circle cx="29.9141" cy="17.5" r="4.5" fill="#F04F24"/>
</svg>
