<svg width="24" height="24" viewBox="0 0 24 24" fill="none" xmlns="http://www.w3.org/2000/svg">
<g clip-path="url(#clip0_325_3534)">
<path d="M5.86468 5.70643H6.20804C6.72985 5.70643 7.15284 5.2833 7.15284 4.76163V2.15437V1.17913C7.15284 0.657461 6.72985 0.234375 6.20804 0.234375H5.86468C5.34291 0.234375 4.91992 0.657461 4.91992 1.17913V2.15442V4.76163C4.91992 5.2833 5.34291 5.70643 5.86468 5.70643Z" fill="#86CB3C"/>
<path d="M17.9829 5.683H18.3263C18.8481 5.683 19.2711 5.25991 19.2711 4.73819V1.90689V1.15564C19.2711 0.634024 18.8481 0.210938 18.3263 0.210938H17.9829C17.4611 0.210938 17.0381 0.634024 17.0381 1.15564V1.90689V4.73814C17.0382 5.25991 17.4612 5.683 17.9829 5.683Z" fill="#86CB3C"/>
<path d="M22.4641 2.15625H20.0393V4.9875C20.0393 5.93196 19.271 6.45288 18.3266 6.45288H17.9833C17.0388 6.45288 16.2705 5.68451 16.2705 4.74005V2.15625H7.92095V4.76346C7.92095 5.70792 7.15262 6.47629 6.20817 6.47629H5.86481C4.9204 6.47629 4.15207 5.70792 4.15207 4.76346V2.15625H1.53596C0.689043 2.15625 0 2.84529 0 3.69226V22.2523C0 23.0993 0.689043 23.7883 1.53596 23.7883H22.4641C23.311 23.7883 24 23.0993 24 22.2523V3.69226C24.0001 2.84534 23.311 2.15625 22.4641 2.15625ZM22.4641 22.2523H1.53601L1.53596 8.23624H22.4644L22.4652 22.2523C22.4651 22.2523 22.4648 22.2523 22.4641 22.2523Z" fill="#86CB3C"/>
<path d="M12.7927 12.9364H15.5506C15.6599 12.9364 15.7485 12.8477 15.7485 12.7384V10.3503C15.7485 10.241 15.6599 10.1523 15.5506 10.1523H12.7927C12.6834 10.1523 12.5947 10.241 12.5947 10.3503V12.7384C12.5947 12.8477 12.6834 12.9364 12.7927 12.9364Z" fill="#86CB3C"/>
<path d="M17.2937 12.9364H20.0516C20.1609 12.9364 20.2495 12.8477 20.2495 12.7384V10.3503C20.2495 10.241 20.1609 10.1523 20.0516 10.1523H17.2937C17.1843 10.1523 17.0957 10.241 17.0957 10.3503V12.7384C17.0957 12.8477 17.1843 12.9364 17.2937 12.9364Z" fill="#86CB3C"/>
<path d="M3.79171 16.8466H6.54956C6.65888 16.8466 6.74752 16.7579 6.74752 16.6486V14.2605C6.74752 14.1511 6.65888 14.0625 6.54956 14.0625H3.79171C3.68239 14.0625 3.59375 14.1511 3.59375 14.2605V16.6486C3.59375 16.7579 3.68239 16.8466 3.79171 16.8466Z" fill="#86CB3C"/>
<path d="M8.29268 16.8466H11.0505C11.1599 16.8466 11.2485 16.7579 11.2485 16.6486V14.2605C11.2485 14.1511 11.1599 14.0625 11.0505 14.0625H8.29268C8.18336 14.0625 8.09473 14.1511 8.09473 14.2605V16.6486C8.09473 16.7579 8.18336 16.8466 8.29268 16.8466Z" fill="#86CB3C"/>
<path d="M12.7927 16.8466H15.5505C15.6599 16.8466 15.7485 16.7579 15.7485 16.6486V14.2605C15.7485 14.1511 15.6599 14.0625 15.5505 14.0625H12.7927C12.6834 14.0625 12.5947 14.1511 12.5947 14.2605V16.6486C12.5947 16.7579 12.6834 16.8466 12.7927 16.8466Z" fill="#86CB3C"/>
<path d="M17.2937 16.8466H20.0516C20.1609 16.8466 20.2495 16.7579 20.2495 16.6486V14.2605C20.2495 14.1511 20.1609 14.0625 20.0516 14.0625H17.2937C17.1843 14.0625 17.0957 14.1511 17.0957 14.2605V16.6486C17.0957 16.7579 17.1843 16.8466 17.2937 16.8466Z" fill="#86CB3C"/>
<path d="M6.54951 17.9727H3.79171C3.68239 17.9727 3.59375 18.0613 3.59375 18.1706V20.5588C3.59375 20.6681 3.68239 20.7567 3.79171 20.7567H6.54956C6.65888 20.7567 6.74752 20.6681 6.74752 20.5588V18.1706C6.74747 18.0613 6.65884 17.9727 6.54951 17.9727Z" fill="#86CB3C"/>
<path d="M11.0505 17.9727H8.29268C8.18336 17.9727 8.09473 18.0613 8.09473 18.1706V20.5588C8.09473 20.6681 8.18336 20.7567 8.29268 20.7567H11.0505C11.1599 20.7567 11.2485 20.6681 11.2485 20.5588V18.1706C11.2485 18.0613 11.1599 17.9727 11.0505 17.9727Z" fill="#86CB3C"/>
<path d="M15.5506 17.9727H12.7927C12.6834 17.9727 12.5947 18.0613 12.5947 18.1706V20.5588C12.5947 20.6681 12.6834 20.7567 12.7927 20.7567H15.5506C15.6599 20.7567 15.7485 20.6681 15.7485 20.5588V18.1706C15.7485 18.0613 15.6599 17.9727 15.5506 17.9727Z" fill="#86CB3C"/>
<path d="M20.0516 17.9727H17.2937C17.1843 17.9727 17.0957 18.0613 17.0957 18.1706V20.5588C17.0957 20.6681 17.1843 20.7567 17.2937 20.7567H20.0516C20.1609 20.7567 20.2495 20.6681 20.2495 20.5588V18.1706C20.2495 18.0613 20.1609 17.9727 20.0516 17.9727Z" fill="#86CB3C"/>
</g>
<defs>
<clipPath id="clip0_325_3534">
<rect width="24" height="24" fill="white"/>
</clipPath>
</defs>
</svg>
