<svg width="24" height="24" viewBox="0 0 24 24" fill="none" xmlns="http://www.w3.org/2000/svg">
<g clip-path="url(#clip0_325_3491)">
<path d="M14.0445 21.1797H5.5957V24.0008H5.62777H14.0445V21.1797Z" fill="#86CB3C"/>
<path d="M14.0444 19.7715V15.405H4.21641V13.4062C4.21641 13.0185 4.53183 12.7031 4.91953 12.7031H5.59561V13.9873H14.0444V10.0312H5.59561V11.2969H4.91953C3.75642 11.2969 2.81016 12.2431 2.81016 13.4062V15.405H2.13408C0.970969 15.405 0 16.3627 0 17.5259V23.9989H1.43095V17.5259C1.43095 17.1382 1.74638 16.8227 2.13408 16.8227H2.81016V23.9989H4.21641V16.8227H5.59561V19.7715H14.0444Z" fill="#86CB3C"/>
<path d="M5.99219 8.62613H13.6472L10.5497 5.34909V1.40625H19.0871V5.30484L15.9478 8.62613H23.6028L20.4934 5.33648V0H9.14341V5.29228L5.99219 8.62613Z" fill="#86CB3C"/>
<path d="M15.5508 21.1797H23.9996V24.0008H15.5508V21.1797Z" fill="#86CB3C"/>
<path d="M15.5508 15.4062H23.9996V19.7727H15.5508V15.4062Z" fill="#86CB3C"/>
<path d="M15.5508 10.0312H23.9996V13.9873H15.5508V10.0312Z" fill="#86CB3C"/>
</g>
<defs>
<clipPath id="clip0_325_3491">
<rect width="24" height="24" fill="white"/>
</clipPath>
</defs>
</svg>
