<svg width="44" height="44" viewBox="0 0 44 44" fill="none" xmlns="http://www.w3.org/2000/svg">
<rect width="44" height="44" rx="22" fill="#3B7C0F"/>
<g clip-path="url(#clip0_187_12695)">
<path d="M33.3529 20.4388C33.3524 20.4383 33.3518 20.4377 33.3513 20.4372L23.5612 10.6475C23.1439 10.23 22.5891 10 21.9989 10C21.4088 10 20.854 10.2298 20.4365 10.6473L10.6515 20.4321C10.6482 20.4354 10.6449 20.4388 10.6416 20.4421C9.78469 21.304 9.78616 22.7024 10.6458 23.5621C11.0386 23.955 11.5573 24.1826 12.112 24.2064C12.1345 24.2086 12.1572 24.2097 12.1801 24.2097H12.5703V31.4144C12.5703 32.84 13.7302 34 15.1563 34H18.9865C19.3747 34 19.6896 33.6852 19.6896 33.2969V27.6484C19.6896 26.9979 20.2188 26.4687 20.8693 26.4687H23.1285C23.7791 26.4687 24.3083 26.9979 24.3083 27.6484V33.2969C24.3083 33.6852 24.623 34 25.0114 34H28.8416C30.2676 34 31.4276 32.84 31.4276 31.4144V24.2097H31.7894C32.3794 24.2097 32.9342 23.9799 33.3518 23.5624C34.2124 22.7013 34.2128 21.3005 33.3529 20.4388Z" fill="white"/>
</g>
<defs>
<clipPath id="clip0_187_12695">
<rect width="24" height="24" fill="white" transform="translate(10 10)"/>
</clipPath>
</defs>
</svg>
