<svg width="49" height="48" viewBox="0 0 49 48" fill="none" xmlns="http://www.w3.org/2000/svg">
<path d="M0.333496 24C0.333496 10.7452 11.0787 0 24.3335 0C37.5883 0 48.3335 10.7452 48.3335 24C48.3335 37.2548 37.5883 48 24.3335 48C11.0787 48 0.333496 37.2548 0.333496 24Z" fill="#FEE4E2"/>
<path d="M28.3335 30.5V33M20.3335 30.5V33M24.3335 31.5V34M19.3335 27C16.5721 27 14.3335 24.7614 14.3335 22C14.3335 19.2386 16.5721 17 19.3335 17C19.3666 17 19.3997 17.0003 19.4327 17.001C20.3429 15.2196 22.1958 14 24.3335 14C26.8527 14 28.9764 15.6938 29.6278 18.0046C29.696 18.0016 29.7645 18 29.8335 18C32.3188 18 34.3335 20.0147 34.3335 22.5C34.3335 24.9853 32.3188 27 29.8335 27C26.0769 27 23.5687 27 19.3335 27Z" stroke="#D92D20" stroke-width="2" stroke-linecap="round" stroke-linejoin="round"/>
</svg>
