<svg width="20" height="20" viewBox="0 0 20 20" fill="none" xmlns="http://www.w3.org/2000/svg">
<rect width="19" height="19" transform="translate(0.333374 0.5)" fill="white" fill-opacity="0.01"/>
<g clip-path="url(#clip0_317_74785)">
<path d="M12.869 11.802C15.0865 11.802 16.8842 10.0043 16.8842 7.78672C16.8842 5.56917 15.0865 3.77148 12.869 3.77148C10.6514 3.77148 8.85376 5.56917 8.85376 7.78672C8.85376 10.0043 10.6514 11.802 12.869 11.802Z" fill="url(#paint0_linear_317_74785)"/>
<path d="M12.869 11.802C15.0865 11.802 16.8842 10.0043 16.8842 7.78672C16.8842 5.56917 15.0865 3.77148 12.869 3.77148C10.6514 3.77148 8.85376 5.56917 8.85376 7.78672C8.85376 10.0043 10.6514 11.802 12.869 11.802Z" fill="url(#paint1_linear_317_74785)"/>
<path d="M8.85376 7.7877C8.85376 10.0031 10.6499 11.8029 12.869 11.8029C15.0844 11.8029 16.8842 10.0068 16.8842 7.7877C16.8842 7.49824 16.8545 7.21621 16.7952 6.94531H8.94282C8.88345 7.21621 8.85376 7.49824 8.85376 7.7877Z" fill="url(#paint2_linear_317_74785)"/>
<path d="M12.869 11.8C15.0844 11.8 16.8842 10.0039 16.8842 7.78477C16.8842 5.56934 15.0881 3.76953 12.869 3.76953C12.5795 3.76953 12.2975 3.79922 12.0266 3.85859V11.7109C12.2975 11.7703 12.5795 11.8 12.869 11.8Z" fill="url(#paint3_linear_317_74785)"/>
<path d="M10.0302 10.6264C11.5962 12.1924 14.1382 12.1924 15.7079 10.6264C17.2739 9.06035 17.2739 6.51836 15.7079 4.94863C15.5038 4.74453 15.2812 4.56641 15.0511 4.41797L9.49951 9.96582C9.64795 10.1996 9.82607 10.4223 10.0302 10.6264Z" fill="url(#paint4_linear_317_74785)"/>
<path d="M12.8689 1.32031C13.1101 1.32031 13.3068 1.51699 13.3068 1.7582V2.69336C13.3068 2.93457 13.1101 3.13125 12.8689 3.13125C12.6277 3.13125 12.431 2.93457 12.431 2.69336V1.7582C12.431 1.51699 12.6277 1.32031 12.8689 1.32031Z" fill="url(#paint5_linear_317_74785)"/>
<path d="M19.3334 7.7875C19.3334 8.02871 19.1367 8.22539 18.8955 8.22539H17.9604C17.7191 8.22539 17.5225 8.02871 17.5225 7.7875C17.5225 7.54629 17.7191 7.34961 17.9604 7.34961H18.8955C19.1367 7.34961 19.3334 7.54629 19.3334 7.7875Z" fill="url(#paint6_linear_317_74785)"/>
<path d="M9.57737 4.49619C9.40667 4.66689 9.12834 4.66689 8.95764 4.49619L8.29709 3.83564C8.12639 3.66494 8.12639 3.38662 8.29709 3.21592C8.4678 3.04521 8.74612 3.04521 8.91682 3.21592L9.57737 3.87646C9.74807 4.04717 9.74807 4.32549 9.57737 4.49619Z" fill="url(#paint7_linear_317_74785)"/>
<path d="M17.4409 12.3556C17.2702 12.5263 16.9919 12.5263 16.8212 12.3556L16.1606 11.695C15.9899 11.5243 15.9899 11.246 16.1606 11.0753C16.3313 10.9046 16.6096 10.9046 16.7803 11.0753L17.4409 11.7358C17.6116 11.9103 17.6116 12.1849 17.4409 12.3556Z" fill="url(#paint8_linear_317_74785)"/>
<path d="M17.4409 3.21592C17.6116 3.38662 17.6116 3.66494 17.4409 3.83564L16.7803 4.49619C16.6096 4.66689 16.3313 4.66689 16.1606 4.49619C15.9899 4.32549 15.9899 4.04717 16.1606 3.87646L16.8212 3.21592C16.9919 3.04521 17.2702 3.04521 17.4409 3.21592Z" fill="url(#paint9_linear_317_74785)"/>
<path d="M12.4459 10.9273C12.2195 10.9273 12.0006 10.957 11.7927 11.009C11.8595 10.727 11.8967 10.4301 11.8967 10.1258C11.8967 8.04395 10.2082 6.35547 8.12634 6.35547C6.13357 6.35547 4.50076 7.90293 4.36716 9.86602C4.09998 9.79551 3.82165 9.75469 3.5322 9.75469C1.7658 9.75469 0.333374 11.1908 0.333374 12.9572C0.333374 14.7236 1.7658 16.1561 3.5322 16.1561H12.4459C13.8894 16.1561 15.0584 14.9871 15.0584 13.5436C15.0584 12.1 13.8894 10.9273 12.4459 10.9273Z" fill="url(#paint10_linear_317_74785)"/>
<path d="M12.4459 16.1566C13.8887 16.1566 15.0584 14.987 15.0584 13.5441C15.0584 12.1013 13.8887 10.9316 12.4459 10.9316C11.003 10.9316 9.83337 12.1013 9.83337 13.5441C9.83337 14.987 11.003 16.1566 12.4459 16.1566Z" fill="url(#paint11_linear_317_74785)"/>
<path d="M3.5322 16.1574C5.29886 16.1574 6.73103 14.7253 6.73103 12.9586C6.73103 11.1919 5.29886 9.75977 3.5322 9.75977C1.76554 9.75977 0.333374 11.1919 0.333374 12.9586C0.333374 14.7253 1.76554 16.1574 3.5322 16.1574Z" fill="url(#paint12_linear_317_74785)"/>
<path d="M11.8967 10.1258C11.8967 10.4301 11.8596 10.727 11.7928 11.009C10.6795 11.2947 9.85569 12.293 9.83342 13.4879C9.32131 13.7477 8.74241 13.8961 8.12639 13.8961C6.04456 13.8961 4.35608 12.2076 4.35608 10.1258C4.35608 8.04395 6.04456 6.35547 8.12639 6.35547C10.2082 6.35547 11.8967 8.04395 11.8967 10.1258Z" fill="url(#paint13_linear_317_74785)"/>
<path d="M17.6857 15.3875C17.5447 15.3875 17.4036 15.4061 17.2738 15.4395C17.3183 15.2613 17.3406 15.0758 17.3406 14.8828C17.3406 13.5729 16.2792 12.5078 14.9656 12.5078C13.7075 12.5078 12.6833 13.4838 12.598 14.7195C12.431 14.675 12.2529 14.649 12.0747 14.649C10.9614 14.649 10.0597 15.5508 10.0597 16.6641C10.0597 17.7773 10.9614 18.6791 12.0747 18.6791H17.6894C18.5986 18.6791 19.337 17.9406 19.337 17.0314C19.3333 16.126 18.5948 15.3875 17.6857 15.3875Z" fill="url(#paint14_linear_317_74785)"/>
<path d="M17.6856 18.682C18.5956 18.682 19.3333 17.9444 19.3333 17.0344C19.3333 16.1244 18.5956 15.3867 17.6856 15.3867C16.7756 15.3867 16.038 16.1244 16.038 17.0344C16.038 17.9444 16.7756 18.682 17.6856 18.682Z" fill="url(#paint15_linear_317_74785)"/>
<path d="M12.0747 18.6785C13.1876 18.6785 14.0898 17.7764 14.0898 16.6635C14.0898 15.5506 13.1876 14.6484 12.0747 14.6484C10.9619 14.6484 10.0597 15.5506 10.0597 16.6635C10.0597 17.7764 10.9619 18.6785 12.0747 18.6785Z" fill="url(#paint16_linear_317_74785)"/>
<path d="M17.3406 14.8828C17.3406 15.0758 17.3183 15.2613 17.2738 15.4395C16.5724 15.6213 16.0529 16.2484 16.038 17.0018C15.7152 17.165 15.3515 17.2578 14.9656 17.2578C13.6556 17.2578 12.5906 16.1965 12.5906 14.8828C12.5906 13.5729 13.6519 12.5078 14.9656 12.5078C16.2792 12.5078 17.3406 13.5729 17.3406 14.8828Z" fill="url(#paint17_linear_317_74785)"/>
<path d="M2.58225 16.6866C2.75295 16.8573 2.75295 17.1356 2.58225 17.3063L1.9217 17.9669C1.751 18.1376 1.47268 18.1376 1.30198 17.9669C1.13127 17.7962 1.13127 17.5179 1.30198 17.3472L1.96252 16.6866C2.13323 16.5159 2.41155 16.5159 2.58225 16.6866Z" fill="url(#paint18_linear_317_74785)"/>
<path d="M5.76621 16.6866C5.93691 16.8573 5.93691 17.1356 5.76621 17.3063L5.10566 17.9669C4.93496 18.1376 4.65664 18.1376 4.48594 17.9669C4.31523 17.7962 4.31523 17.5179 4.48594 17.3472L5.14648 16.6866C5.31719 16.5159 5.59551 16.5159 5.76621 16.6866Z" fill="url(#paint19_linear_317_74785)"/>
<path d="M8.95017 16.6866C9.12087 16.8573 9.12087 17.1356 8.95017 17.3063L8.28962 17.9669C8.11892 18.1376 7.8406 18.1376 7.6699 17.9669C7.49919 17.7962 7.49919 17.5179 7.6699 17.3472L8.33044 16.6866C8.50115 16.5159 8.77947 16.5159 8.95017 16.6866Z" fill="url(#paint20_linear_317_74785)"/>
</g>
<defs>
<linearGradient id="paint0_linear_317_74785" x1="10.2933" y1="5.20999" x2="15.2629" y2="10.1796" gradientUnits="userSpaceOnUse">
<stop stop-color="#FEF0AE"/>
<stop offset="0.1466" stop-color="#FDEEA9"/>
<stop offset="0.2986" stop-color="#FDEB9D"/>
<stop offset="0.4531" stop-color="#FDE688"/>
<stop offset="0.6093" stop-color="#FCDF6B"/>
<stop offset="0.7669" stop-color="#FBD646"/>
<stop offset="0.9233" stop-color="#FACC18"/>
<stop offset="1" stop-color="#FAC600"/>
</linearGradient>
<linearGradient id="paint1_linear_317_74785" x1="13.2025" y1="7.53155" x2="10.3681" y2="9.6836" gradientUnits="userSpaceOnUse">
<stop stop-color="#FE9738" stop-opacity="0"/>
<stop offset="0.1207" stop-color="#FE9738" stop-opacity="0.016"/>
<stop offset="0.2459" stop-color="#FE9738" stop-opacity="0.065"/>
<stop offset="0.3731" stop-color="#FE9738" stop-opacity="0.147"/>
<stop offset="0.5018" stop-color="#FE9738" stop-opacity="0.262"/>
<stop offset="0.6317" stop-color="#FE9738" stop-opacity="0.41"/>
<stop offset="0.7625" stop-color="#FE9738" stop-opacity="0.59"/>
<stop offset="0.8916" stop-color="#FE9738" stop-opacity="0.8"/>
<stop offset="1" stop-color="#FE9738"/>
</linearGradient>
<linearGradient id="paint2_linear_317_74785" x1="12.8685" y1="8.41054" x2="12.8685" y2="12.0734" gradientUnits="userSpaceOnUse">
<stop stop-color="#FE9738" stop-opacity="0"/>
<stop offset="0.1207" stop-color="#FE9738" stop-opacity="0.016"/>
<stop offset="0.2459" stop-color="#FE9738" stop-opacity="0.065"/>
<stop offset="0.3731" stop-color="#FE9738" stop-opacity="0.147"/>
<stop offset="0.5018" stop-color="#FE9738" stop-opacity="0.262"/>
<stop offset="0.6317" stop-color="#FE9738" stop-opacity="0.41"/>
<stop offset="0.7625" stop-color="#FE9738" stop-opacity="0.59"/>
<stop offset="0.8916" stop-color="#FE9738" stop-opacity="0.8"/>
<stop offset="1" stop-color="#FE9738"/>
</linearGradient>
<linearGradient id="paint3_linear_317_74785" x1="13.4928" y1="7.78695" x2="17.1558" y2="7.78695" gradientUnits="userSpaceOnUse">
<stop stop-color="#FE9738" stop-opacity="0"/>
<stop offset="0.1207" stop-color="#FE9738" stop-opacity="0.016"/>
<stop offset="0.2459" stop-color="#FE9738" stop-opacity="0.065"/>
<stop offset="0.3731" stop-color="#FE9738" stop-opacity="0.147"/>
<stop offset="0.5018" stop-color="#FE9738" stop-opacity="0.262"/>
<stop offset="0.6317" stop-color="#FE9738" stop-opacity="0.41"/>
<stop offset="0.7625" stop-color="#FE9738" stop-opacity="0.59"/>
<stop offset="0.8916" stop-color="#FE9738" stop-opacity="0.8"/>
<stop offset="1" stop-color="#FE9738"/>
</linearGradient>
<linearGradient id="paint4_linear_317_74785" x1="14.6012" y1="9.51865" x2="15.9715" y2="10.8889" gradientUnits="userSpaceOnUse">
<stop stop-color="#F5FBFF" stop-opacity="0"/>
<stop offset="0.1205" stop-color="#F5FBFF" stop-opacity="0.016"/>
<stop offset="0.2454" stop-color="#F5FBFF" stop-opacity="0.065"/>
<stop offset="0.3724" stop-color="#F5FBFF" stop-opacity="0.147"/>
<stop offset="0.5008" stop-color="#F5FBFF" stop-opacity="0.261"/>
<stop offset="0.6304" stop-color="#F5FBFF" stop-opacity="0.408"/>
<stop offset="0.761" stop-color="#F5FBFF" stop-opacity="0.588"/>
<stop offset="0.8898" stop-color="#F5FBFF" stop-opacity="0.797"/>
<stop offset="1" stop-color="#F5FBFF"/>
</linearGradient>
<linearGradient id="paint5_linear_317_74785" x1="12.5267" y1="2.22741" x2="13.1915" y2="2.22741" gradientUnits="userSpaceOnUse">
<stop stop-color="#FEF0AE"/>
<stop offset="0.1466" stop-color="#FDEEA9"/>
<stop offset="0.2986" stop-color="#FDEB9D"/>
<stop offset="0.4531" stop-color="#FDE688"/>
<stop offset="0.6093" stop-color="#FCDF6B"/>
<stop offset="0.7669" stop-color="#FBD646"/>
<stop offset="0.9233" stop-color="#FACC18"/>
<stop offset="1" stop-color="#FAC600"/>
</linearGradient>
<linearGradient id="paint6_linear_317_74785" x1="18.428" y1="7.44424" x2="18.428" y2="8.10909" gradientUnits="userSpaceOnUse">
<stop stop-color="#FEF0AE"/>
<stop offset="0.1466" stop-color="#FDEEA9"/>
<stop offset="0.2986" stop-color="#FDEB9D"/>
<stop offset="0.4531" stop-color="#FDE688"/>
<stop offset="0.6093" stop-color="#FCDF6B"/>
<stop offset="0.7669" stop-color="#FBD646"/>
<stop offset="0.9233" stop-color="#FACC18"/>
<stop offset="1" stop-color="#FAC600"/>
</linearGradient>
<linearGradient id="paint7_linear_317_74785" x1="9.18289" y1="3.61484" x2="8.71284" y2="4.08489" gradientUnits="userSpaceOnUse">
<stop stop-color="#FEF0AE"/>
<stop offset="0.1466" stop-color="#FDEEA9"/>
<stop offset="0.2986" stop-color="#FDEB9D"/>
<stop offset="0.4531" stop-color="#FDE688"/>
<stop offset="0.6093" stop-color="#FCDF6B"/>
<stop offset="0.7669" stop-color="#FBD646"/>
<stop offset="0.9233" stop-color="#FACC18"/>
<stop offset="1" stop-color="#FAC600"/>
</linearGradient>
<linearGradient id="paint8_linear_317_74785" x1="17.0441" y1="11.4756" x2="16.5741" y2="11.9457" gradientUnits="userSpaceOnUse">
<stop stop-color="#FEF0AE"/>
<stop offset="0.1466" stop-color="#FDEEA9"/>
<stop offset="0.2986" stop-color="#FDEB9D"/>
<stop offset="0.4531" stop-color="#FDE688"/>
<stop offset="0.6093" stop-color="#FCDF6B"/>
<stop offset="0.7669" stop-color="#FBD646"/>
<stop offset="0.9233" stop-color="#FACC18"/>
<stop offset="1" stop-color="#FAC600"/>
</linearGradient>
<linearGradient id="paint9_linear_317_74785" x1="16.5542" y1="3.61486" x2="17.0242" y2="4.08491" gradientUnits="userSpaceOnUse">
<stop stop-color="#FEF0AE"/>
<stop offset="0.1466" stop-color="#FDEEA9"/>
<stop offset="0.2986" stop-color="#FDEB9D"/>
<stop offset="0.4531" stop-color="#FDE688"/>
<stop offset="0.6093" stop-color="#FCDF6B"/>
<stop offset="0.7669" stop-color="#FBD646"/>
<stop offset="0.9233" stop-color="#FACC18"/>
<stop offset="1" stop-color="#FAC600"/>
</linearGradient>
<linearGradient id="paint10_linear_317_74785" x1="5.18498" y1="9.03135" x2="9.64052" y2="16.6553" gradientUnits="userSpaceOnUse">
<stop stop-color="#EAF6FF"/>
<stop offset="0.2651" stop-color="#E5F3FE"/>
<stop offset="0.5398" stop-color="#D9EDFE"/>
<stop offset="0.8179" stop-color="#C4E3FE"/>
<stop offset="1" stop-color="#B3DAFE"/>
</linearGradient>
<linearGradient id="paint11_linear_317_74785" x1="12.4759" y1="13.5428" x2="15.2149" y2="13.5428" gradientUnits="userSpaceOnUse">
<stop stop-color="#8AC9FE" stop-opacity="0"/>
<stop offset="0.1291" stop-color="#89C8FD" stop-opacity="0.019"/>
<stop offset="0.2629" stop-color="#88C6FB" stop-opacity="0.075"/>
<stop offset="0.3989" stop-color="#87C4F8" stop-opacity="0.168"/>
<stop offset="0.5365" stop-color="#85C0F4" stop-opacity="0.298"/>
<stop offset="0.6753" stop-color="#83BBEF" stop-opacity="0.466"/>
<stop offset="0.8151" stop-color="#7FB5E9" stop-opacity="0.672"/>
<stop offset="0.9532" stop-color="#7CAEE1" stop-opacity="0.911"/>
<stop offset="1" stop-color="#7BACDF"/>
</linearGradient>
<linearGradient id="paint12_linear_317_74785" x1="4.14272" y1="11.928" x2="5.57841" y2="9.50215" gradientUnits="userSpaceOnUse">
<stop stop-color="#8AC9FE" stop-opacity="0"/>
<stop offset="0.1291" stop-color="#89C8FD" stop-opacity="0.019"/>
<stop offset="0.2629" stop-color="#88C6FB" stop-opacity="0.075"/>
<stop offset="0.3989" stop-color="#87C4F8" stop-opacity="0.168"/>
<stop offset="0.5365" stop-color="#85C0F4" stop-opacity="0.298"/>
<stop offset="0.6753" stop-color="#83BBEF" stop-opacity="0.466"/>
<stop offset="0.8151" stop-color="#7FB5E9" stop-opacity="0.672"/>
<stop offset="0.9532" stop-color="#7CAEE1" stop-opacity="0.911"/>
<stop offset="1" stop-color="#7BACDF"/>
</linearGradient>
<linearGradient id="paint13_linear_317_74785" x1="9.45635" y1="9.56079" x2="12.1297" y2="8.42216" gradientUnits="userSpaceOnUse">
<stop stop-color="#8AC9FE" stop-opacity="0"/>
<stop offset="0.1291" stop-color="#89C8FD" stop-opacity="0.019"/>
<stop offset="0.2629" stop-color="#88C6FB" stop-opacity="0.075"/>
<stop offset="0.3989" stop-color="#87C4F8" stop-opacity="0.168"/>
<stop offset="0.5365" stop-color="#85C0F4" stop-opacity="0.298"/>
<stop offset="0.6753" stop-color="#83BBEF" stop-opacity="0.466"/>
<stop offset="0.8151" stop-color="#7FB5E9" stop-opacity="0.672"/>
<stop offset="0.9532" stop-color="#7CAEE1" stop-opacity="0.911"/>
<stop offset="1" stop-color="#7BACDF"/>
</linearGradient>
<linearGradient id="paint14_linear_317_74785" x1="13.1138" y1="14.1934" x2="15.9202" y2="18.9955" gradientUnits="userSpaceOnUse">
<stop stop-color="#EAF6FF"/>
<stop offset="0.2651" stop-color="#E5F3FE"/>
<stop offset="0.5398" stop-color="#D9EDFE"/>
<stop offset="0.8179" stop-color="#C4E3FE"/>
<stop offset="1" stop-color="#B3DAFE"/>
</linearGradient>
<linearGradient id="paint15_linear_317_74785" x1="17.7061" y1="17.0339" x2="19.4312" y2="17.0339" gradientUnits="userSpaceOnUse">
<stop stop-color="#8AC9FE" stop-opacity="0"/>
<stop offset="0.1291" stop-color="#89C8FD" stop-opacity="0.019"/>
<stop offset="0.2629" stop-color="#88C6FB" stop-opacity="0.075"/>
<stop offset="0.3989" stop-color="#87C4F8" stop-opacity="0.168"/>
<stop offset="0.5365" stop-color="#85C0F4" stop-opacity="0.298"/>
<stop offset="0.6753" stop-color="#83BBEF" stop-opacity="0.466"/>
<stop offset="0.8151" stop-color="#7FB5E9" stop-opacity="0.672"/>
<stop offset="0.9532" stop-color="#7CAEE1" stop-opacity="0.911"/>
<stop offset="1" stop-color="#7BACDF"/>
</linearGradient>
<linearGradient id="paint16_linear_317_74785" x1="12.4573" y1="16.0165" x2="13.3616" y2="14.4885" gradientUnits="userSpaceOnUse">
<stop stop-color="#8AC9FE" stop-opacity="0"/>
<stop offset="0.1291" stop-color="#89C8FD" stop-opacity="0.019"/>
<stop offset="0.2629" stop-color="#88C6FB" stop-opacity="0.075"/>
<stop offset="0.3989" stop-color="#87C4F8" stop-opacity="0.168"/>
<stop offset="0.5365" stop-color="#85C0F4" stop-opacity="0.298"/>
<stop offset="0.6753" stop-color="#83BBEF" stop-opacity="0.466"/>
<stop offset="0.8151" stop-color="#7FB5E9" stop-opacity="0.672"/>
<stop offset="0.9532" stop-color="#7CAEE1" stop-opacity="0.911"/>
<stop offset="1" stop-color="#7BACDF"/>
</linearGradient>
<linearGradient id="paint17_linear_317_74785" x1="15.5672" y1="14.6279" x2="17.251" y2="13.9107" gradientUnits="userSpaceOnUse">
<stop stop-color="#8AC9FE" stop-opacity="0"/>
<stop offset="0.1291" stop-color="#89C8FD" stop-opacity="0.019"/>
<stop offset="0.2629" stop-color="#88C6FB" stop-opacity="0.075"/>
<stop offset="0.3989" stop-color="#87C4F8" stop-opacity="0.168"/>
<stop offset="0.5365" stop-color="#85C0F4" stop-opacity="0.298"/>
<stop offset="0.6753" stop-color="#83BBEF" stop-opacity="0.466"/>
<stop offset="0.8151" stop-color="#7FB5E9" stop-opacity="0.672"/>
<stop offset="0.9532" stop-color="#7CAEE1" stop-opacity="0.911"/>
<stop offset="1" stop-color="#7BACDF"/>
</linearGradient>
<linearGradient id="paint18_linear_317_74785" x1="1.69892" y1="17.0837" x2="2.16897" y2="17.5538" gradientUnits="userSpaceOnUse">
<stop stop-color="#26A6FE"/>
<stop offset="0.2729" stop-color="#23A1FD"/>
<stop offset="0.5557" stop-color="#1A95FD"/>
<stop offset="0.8419" stop-color="#0B80FB"/>
<stop offset="1" stop-color="#0172FB"/>
</linearGradient>
<linearGradient id="paint19_linear_317_74785" x1="4.88236" y1="17.0837" x2="5.35241" y2="17.5538" gradientUnits="userSpaceOnUse">
<stop stop-color="#26A6FE"/>
<stop offset="0.2729" stop-color="#23A1FD"/>
<stop offset="0.5557" stop-color="#1A95FD"/>
<stop offset="0.8419" stop-color="#0B80FB"/>
<stop offset="1" stop-color="#0172FB"/>
</linearGradient>
<linearGradient id="paint20_linear_317_74785" x1="8.0658" y1="17.0837" x2="8.53585" y2="17.5538" gradientUnits="userSpaceOnUse">
<stop stop-color="#26A6FE"/>
<stop offset="0.2729" stop-color="#23A1FD"/>
<stop offset="0.5557" stop-color="#1A95FD"/>
<stop offset="0.8419" stop-color="#0B80FB"/>
<stop offset="1" stop-color="#0172FB"/>
</linearGradient>
<clipPath id="clip0_317_74785">
<rect width="19" height="19" fill="white" transform="translate(0.333374 0.5)"/>
</clipPath>
</defs>
</svg>
