<svg width="16" height="16" viewBox="0 0 16 16" fill="none" xmlns="http://www.w3.org/2000/svg">
<path d="M5.76671 5.9987C5.92344 5.55314 6.23281 5.17744 6.64001 4.93812C7.04721 4.6988 7.52597 4.61132 7.99149 4.69117C8.45701 4.77102 8.87925 5.01305 9.18342 5.37438C9.4876 5.73572 9.65408 6.19305 9.65337 6.66536C9.65337 7.9987 7.65337 8.66536 7.65337 8.66536M7.70671 11.332H7.71337M14.3734 7.9987C14.3734 11.6806 11.3886 14.6654 7.70671 14.6654C4.02481 14.6654 1.04004 11.6806 1.04004 7.9987C1.04004 4.3168 4.02481 1.33203 7.70671 1.33203C11.3886 1.33203 14.3734 4.3168 14.3734 7.9987Z" stroke="#A4A7AE" stroke-width="1.33333" stroke-linecap="round" stroke-linejoin="round"/>
</svg>
