<svg width="24" height="24" viewBox="0 0 24 24" fill="none" xmlns="http://www.w3.org/2000/svg">
<g clip-path="url(#clip0_325_3553)">
<path d="M21.8906 0H2.10938C0.946266 0 0 0.946266 0 2.10938V5.625H11.8052L13.982 4.31897C14.0913 4.25339 14.2163 4.21875 14.3438 4.21875H24V2.10938C24 0.946266 23.0537 0 21.8906 0ZM3.5625 3.51562C3.17419 3.51562 2.85938 3.20081 2.85938 2.8125C2.85938 2.42419 3.17419 2.10938 3.5625 2.10938C3.95081 2.10938 4.26562 2.42419 4.26562 2.8125C4.26562 3.20081 3.95081 3.51562 3.5625 3.51562ZM6.375 3.51562C5.98669 3.51562 5.67188 3.20081 5.67188 2.8125C5.67188 2.42419 5.98669 2.10938 6.375 2.10938C6.76331 2.10938 7.07812 2.42419 7.07812 2.8125C7.07812 3.20081 6.76331 3.51562 6.375 3.51562ZM9.1875 3.51562C8.79919 3.51562 8.48438 3.20081 8.48438 2.8125C8.48438 2.42419 8.79919 2.10938 9.1875 2.10938C9.57581 2.10938 9.89062 2.42419 9.89062 2.8125C9.89062 3.20081 9.57581 3.51562 9.1875 3.51562Z" fill="#86CB3C"/>
<path d="M12 16.6406C12.7767 16.6406 13.4062 16.011 13.4062 15.2344C13.4062 14.4577 12.7767 13.8281 12 13.8281C11.2233 13.8281 10.5938 14.4577 10.5938 15.2344C10.5938 16.011 11.2233 16.6406 12 16.6406Z" fill="#86CB3C"/>
<path d="M4.48047 15.2344C5.49513 16.3846 8.52798 19.4531 11.9999 19.4531C15.4718 19.4531 18.5044 16.3849 19.5193 15.2344C18.5044 14.0839 15.4718 11.0156 11.9999 11.0156C8.52798 11.0156 5.49531 14.0839 4.48047 15.2344ZM14.8124 15.2344C14.8124 16.7852 13.5507 18.0469 11.9999 18.0469C10.4491 18.0469 9.18738 16.7852 9.18738 15.2344C9.18738 13.6836 10.4491 12.4219 11.9999 12.4219C13.5507 12.4219 14.8124 13.6836 14.8124 15.2344Z" fill="#86CB3C"/>
<path d="M12.3617 6.93103C12.2525 6.99661 12.1275 7.03125 12 7.03125H0V21.8906C0 23.0537 0.946266 24 2.10938 24H21.8906C23.0537 24 24 23.0537 24 21.8906V5.625H14.5385L12.3617 6.93103ZM20.9953 14.8063C21.189 15.0588 21.189 15.41 20.9953 15.6625C20.9546 15.7155 19.9816 16.9742 18.4074 18.2428C16.2833 19.9546 14.0676 20.8594 12 20.8594C9.93239 20.8594 7.71675 19.9546 5.59261 18.2428C4.01841 16.9742 3.04537 15.7155 3.00473 15.6625C2.81095 15.41 2.81095 15.0588 3.00473 14.8063C3.04537 14.7533 4.01841 13.4946 5.59261 12.2259C7.71675 10.5142 9.93239 9.60938 12 9.60938C14.0676 9.60938 16.2833 10.5142 18.4074 12.2259C19.9816 13.4946 20.9546 14.7533 20.9953 14.8063Z" fill="#86CB3C"/>
</g>
<defs>
<clipPath id="clip0_325_3553">
<rect width="24" height="24" fill="white"/>
</clipPath>
</defs>
</svg>
