<svg width="32" height="32" viewBox="0 0 32 32" fill="none" xmlns="http://www.w3.org/2000/svg">
<path d="M12 0.5H20C26.3513 0.5 31.5 5.64873 31.5 12V20C31.5 26.3513 26.3513 31.5 20 31.5H12C5.64873 31.5 0.5 26.3513 0.5 20V12C0.5 5.64873 5.64873 0.5 12 0.5Z" fill="white" fill-opacity="0.8"/>
<path d="M12 0.5H20C26.3513 0.5 31.5 5.64873 31.5 12V20C31.5 26.3513 26.3513 31.5 20 31.5H12C5.64873 31.5 0.5 26.3513 0.5 20V12C0.5 5.64873 5.64873 0.5 12 0.5Z" stroke="white"/>
<g clip-path="url(#clip0_373_3060)">
<path d="M25.707 18.5045V24.9505C25.707 25.3694 25.3675 25.7089 24.9487 25.7089H7.05133C6.6325 25.7089 6.29297 25.3694 6.29297 24.9505V18.5045C6.29297 18.0856 6.6325 17.7461 7.05133 17.7461H10.0848H21.8394H24.9486C25.3675 17.7461 25.707 18.0856 25.707 18.5045Z" fill="#9AC864"/>
<path d="M11.6018 16.7617V19.9447H8.56836V16.7617C8.56836 16.0066 9.18047 15.3945 9.93555 15.3945H10.2346C10.9897 15.3945 11.6018 16.0066 11.6018 16.7617Z" fill="#6C8937"/>
<path d="M11.601 16.7217V19.9447H10.8426V16.7217C10.8426 16.0531 10.3482 15.5003 9.70508 15.4082C9.76703 15.3994 9.83027 15.3945 9.89469 15.3945H10.2739C11.0068 15.3946 11.601 15.9887 11.601 16.7217Z" fill="#5E752D"/>
<path d="M20.2977 8.37848V18.2372C20.2977 18.5513 20.043 18.806 19.7289 18.806C19.4148 18.806 19.1601 18.5513 19.1601 18.2372V8.37848C19.1601 7.85578 18.7349 7.43051 18.2121 7.43051H14.8248C14.3021 7.43051 13.8768 7.85574 13.8768 8.37848V18.2372C13.8768 18.5513 13.6222 18.806 13.308 18.806C12.9939 18.806 12.7393 18.5513 12.7393 18.2372V8.37848C12.7393 7.22852 13.6748 6.29297 14.8248 6.29297H18.2121C19.3621 6.29297 20.2977 7.22852 20.2977 8.37848Z" fill="#D6C499"/>
<path d="M14.2429 7.43051H14.8243C14.3016 7.43051 13.8763 7.85574 13.8763 8.37848V18.2372C13.8763 18.5513 13.6217 18.806 13.3075 18.806C13.2011 18.806 13.1017 18.7765 13.0166 18.7256C13.183 18.6264 13.2949 18.4451 13.2949 18.2372V8.37848C13.295 7.85574 13.7202 7.43051 14.2429 7.43051ZM18.2117 6.29297H17.6302C18.7802 6.29297 19.7157 7.22852 19.7157 8.37848V18.2372C19.7157 18.445 19.6039 18.6263 19.4374 18.7255C19.5225 18.7765 19.622 18.8059 19.7284 18.8059C20.0425 18.8059 20.2971 18.5513 20.2971 18.2371V8.37848C20.2971 7.22852 19.3616 6.29297 18.2117 6.29297Z" fill="#BCA77C"/>
<path d="M23.8798 11.4276C24.022 11.4861 24.1148 11.6245 24.1148 11.7782V12.8893H19.6897H15.2646V11.7782C15.2646 11.6245 15.3574 11.486 15.4996 11.4276L19.6897 9.68359L23.8798 11.4276Z" fill="#7FA740"/>
<path d="M15.2646 11.9805H24.1147V20.6637H15.2646V11.9805Z" fill="#6C8937"/>
<path d="M23.3555 11.9805H24.1138V21.0808H23.3555V11.9805Z" fill="#5E752D"/>
<path d="M16.5303 11.9805H18.047V21.0808H16.5303V11.9805Z" fill="#9AC864"/>
<path d="M16.9095 19.9414H24.1518C24.3612 19.9414 24.531 20.1112 24.531 20.3206V20.6998C24.531 20.9092 24.3612 21.0789 24.1518 21.0789H16.9095C16.7 21.0789 16.5303 20.9092 16.5303 20.6998V20.3206C16.5303 20.1112 16.7 19.9414 16.9095 19.9414Z" fill="#7FA740"/>
<path d="M20.8268 9.03516V10.1613H18.5518V9.03516C18.5518 8.81941 18.7266 8.64453 18.9424 8.64453H20.4362C20.652 8.64453 20.8268 8.81941 20.8268 9.03516Z" fill="#6C8937"/>
<path d="M18.8058 24.4919H7.80957V19.5625H18.8058V24.4919Z" fill="#EADDB0"/>
<path d="M18.8062 24.4919H18.0479V19.5625H18.8062V24.4919Z" fill="#D6C499"/>
<path d="M11.0326 21.46H15.5828V24.4935H11.0326V21.46ZM18.5275 18.729L13.3077 17.2891L8.08793 18.729C7.92348 18.7743 7.80957 18.9239 7.80957 19.0945V19.9433H13.3077H18.8058V19.0945C18.8058 18.9239 18.6919 18.7744 18.5275 18.729Z" fill="#7FA740"/>
<path d="M15.583 21.4609V24.4944H13.2891V21.4609H15.583Z" fill="#6C8937"/>
<path d="M23.8817 22.3048L23.4997 22.8046L23.1177 22.3048C23.0195 22.1763 22.8355 22.1516 22.7071 22.25C22.5785 22.3482 22.5539 22.5321 22.6522 22.6606L23.2669 23.465C23.3223 23.5375 23.4084 23.5801 23.4997 23.5801C23.591 23.5801 23.677 23.5375 23.7325 23.465L24.3472 22.6606C24.4455 22.5321 24.4209 22.3482 24.2924 22.25C24.1638 22.1517 23.98 22.1763 23.8817 22.3048ZM9.34535 25.4141H7.05133C6.79473 25.4141 6.58594 25.2053 6.58594 24.9487V18.5026C6.58594 18.246 6.79473 18.0372 7.05133 18.0372H7.63906C7.80086 18.0372 7.93203 17.906 7.93203 17.7442C7.93203 17.5824 7.80086 17.4513 7.63906 17.4513H7.05133C6.47164 17.4513 6 17.9229 6 18.5026V24.9487C6 25.5284 6.47164 26 7.05133 26H9.34535C9.50715 26 9.63832 25.8688 9.63832 25.707C9.63832 25.5452 9.50715 25.4141 9.34535 25.4141ZM24.9487 17.4513C24.7868 17.4513 24.6557 17.5824 24.6557 17.7442C24.6557 17.906 24.7868 18.0372 24.9487 18.0372C25.2053 18.0372 25.4141 18.246 25.4141 18.5026V24.9487C25.4141 25.2053 25.2053 25.4141 24.9487 25.4141H10.5208C10.359 25.4141 10.2279 25.5452 10.2279 25.707C10.2279 25.8688 10.359 26 10.5208 26H24.9487C25.5284 26 26 25.5284 26 24.9487V18.5026C26 17.9229 25.5284 17.4513 24.9487 17.4513ZM21.463 23.5114L21.081 24.0112L20.699 23.5114C20.6007 23.3829 20.4169 23.3582 20.2883 23.4565C20.1598 23.5548 20.1352 23.7386 20.2335 23.8672L20.8482 24.6716C20.9037 24.7441 20.9897 24.7866 21.081 24.7866C21.1723 24.7866 21.2584 24.7441 21.3138 24.6716L21.9286 23.8672C22.0268 23.7386 22.0023 23.5548 21.8737 23.4565C21.7452 23.3582 21.5613 23.3829 21.463 23.5114ZM8.01012 18.4467L8.27512 18.3736V16.7204C8.27512 15.8618 8.94652 15.1571 9.79184 15.1036V14.2557C9.79184 14.0939 9.92301 13.9628 10.0848 13.9628C10.2466 13.9628 10.3778 14.0939 10.3778 14.2557V15.1036C11.2231 15.1571 11.8945 15.8618 11.8945 16.7204V17.3752L12.4461 17.223V10.742C12.4461 10.5802 12.5773 10.4491 12.7391 10.4491C12.9009 10.4491 13.032 10.5802 13.032 10.742V17.0614L13.2299 17.0068C13.2809 16.9928 13.3348 16.9928 13.3857 17.0068L13.5836 17.0614V8.37848C13.5836 7.69422 14.1403 7.13754 14.8246 7.13754H17.2829C17.4447 7.13754 17.5759 7.26871 17.5759 7.43051C17.5759 7.5923 17.4447 7.72348 17.2829 7.72348H14.8246C14.4634 7.72348 14.1696 8.0173 14.1696 8.37848V17.223L14.9714 17.4443V11.7797C14.9714 11.5061 15.1349 11.2621 15.3879 11.1581L18.2589 9.96512V9.03457C18.2589 8.68332 18.5252 8.39313 18.8665 8.35516C18.8542 8.00477 18.5653 7.72348 18.2119 7.72348C18.0501 7.72348 17.9189 7.5923 17.9189 7.43051C17.9189 7.26871 18.0501 7.13754 18.2119 7.13754C18.887 7.13754 19.4379 7.67938 19.4525 8.35098H20.0043C19.9895 7.3752 19.1911 6.58594 18.2119 6.58594H14.8246C13.8362 6.58594 13.032 7.39004 13.032 8.37848V9.65504C13.032 9.81684 12.9009 9.94801 12.7391 9.94801C12.5773 9.94801 12.4461 9.81684 12.4461 9.65504V8.37848C12.4461 7.06695 13.513 6 14.8245 6H18.2119C19.52 6 20.5849 7.0616 20.5903 8.36848C20.8934 8.43848 21.12 8.71059 21.12 9.03457V9.96488L23.9919 11.1585C24.2439 11.2621 24.4074 11.5061 24.4074 11.7797V19.7008C24.652 19.8014 24.8245 20.0423 24.8245 20.3227V20.7018C24.8245 21.0725 24.523 21.374 24.1524 21.374H19.0989V24.2007H19.1851C19.347 24.2007 19.4781 24.3318 19.4781 24.4936C19.4781 24.6554 19.347 24.7866 19.1851 24.7866H7.43051C7.26871 24.7866 7.13754 24.6554 7.13754 24.4936C7.13754 24.3318 7.26871 24.2007 7.43051 24.2007H7.51672V19.0947C7.51672 18.7933 7.71961 18.5269 8.01012 18.4467ZM13.0148 21.7532H11.3257V24.2007H13.0148V21.7532ZM15.29 21.7532H13.6008V24.2007H15.2899L15.29 21.7532ZM18.8449 9.8677H20.534V9.03457C20.534 8.98074 20.4902 8.93691 20.4364 8.93691H18.9425C18.8887 8.93691 18.8449 8.98074 18.8449 9.03457V9.8677ZM15.5574 17.6059L18.6055 18.4467C18.8961 18.5269 19.0989 18.7934 19.0989 19.0946V20.788H24.1524C24.1999 20.788 24.2386 20.7494 24.2386 20.7018V20.3227C24.2386 20.2751 24.1999 20.2364 24.1524 20.2364H19.8107C19.6489 20.2364 19.5178 20.1053 19.5178 19.9435C19.5178 19.7817 19.6489 19.6505 19.8107 19.6505H23.8215V12.2736H18.3008C18.1389 12.2736 18.0078 12.1425 18.0078 11.9807C18.0078 11.8189 18.1389 11.6877 18.3008 11.6877H23.7386L20.7692 10.4536H18.6103L15.6403 11.6877H17.1759C17.3377 11.6877 17.4688 11.8189 17.4688 11.9807C17.4688 12.1425 17.3377 12.2736 17.1759 12.2736H15.5573L15.5574 17.6059ZM8.10266 24.2007H10.7398V21.4602C10.7398 21.2984 10.8709 21.1673 11.0327 21.1673H15.5829C15.7447 21.1673 15.8759 21.2984 15.8759 21.4602V24.2007H18.5129V20.2364H17.2133C17.0515 20.2364 16.9204 20.1053 16.9204 19.9435C16.9204 19.7817 17.0515 19.6505 17.2133 19.6505H18.5129V19.0947C18.5129 19.0561 18.4869 19.0219 18.4496 19.0116L13.3078 17.5931L10.4282 18.3875C10.2723 18.4305 10.1109 18.3389 10.0679 18.183C10.0248 18.027 10.1164 17.8657 10.2724 17.8226L11.3085 17.5368V16.7204C11.3085 16.1502 10.8446 15.6862 10.2743 15.6862H9.89512C9.32488 15.6862 8.86094 16.1502 8.86094 16.7204V18.212L9.21676 18.1138C9.37285 18.0709 9.53406 18.1624 9.57711 18.3183C9.62016 18.4743 9.52855 18.6356 9.37262 18.6787L8.16586 19.0116C8.12859 19.0218 8.10258 19.056 8.10258 19.0946V19.6505H16.18C16.3419 19.6505 16.473 19.7816 16.473 19.9434C16.473 20.1052 16.3419 20.2364 16.18 20.2364H8.10266V24.2007Z" fill="black"/>
</g>
<defs>
<clipPath id="clip0_373_3060">
<rect width="20" height="20" fill="white" transform="translate(6 6)"/>
</clipPath>
</defs>
</svg>
