<svg width="29" height="24" viewBox="0 0 29 24" fill="none" xmlns="http://www.w3.org/2000/svg">
<path d="M13.2 0.75H21.1892L27.6501 7.20996V20C27.6501 21.7949 26.195 23.2499 24.4001 23.25H13.2C11.405 23.25 9.94995 21.7949 9.94995 20V4C9.94995 2.20508 11.405 0.75 13.2 0.75Z" stroke="#D5D7DA" stroke-width="1.5"/>
<path d="M21.2 0.300781V3.20078C21.2 5.40992 22.9908 7.20078 25.2 7.20078H28.1" stroke="#D5D7DA" stroke-width="1.5"/>
<rect x="0.400024" y="7.59961" width="26" height="16" rx="2" fill="#4F7A21"/>
<path d="M5.7895 12.3269V19.5996H4.25185V12.3269H5.7895ZM7.05459 12.3269H8.95089L10.9537 17.2132H11.039L13.0418 12.3269H14.9381V19.5996H13.4466V14.8659H13.3863L11.5042 19.5641H10.4885L8.60643 14.8482H8.54607V19.5996H7.05459V12.3269ZM21.0274 14.6777C20.9777 14.5049 20.9079 14.3522 20.8179 14.2196C20.7279 14.0847 20.6179 13.9711 20.4876 13.8787C20.3598 13.784 20.213 13.7118 20.0473 13.6621C19.884 13.6124 19.7028 13.5875 19.504 13.5875C19.1323 13.5875 18.8056 13.6799 18.5239 13.8645C18.2445 14.0492 18.0267 14.3179 17.8705 14.6706C17.7142 15.021 17.6361 15.4495 17.6361 15.9561C17.6361 16.4628 17.713 16.8936 17.8669 17.2488C18.0208 17.6039 18.2386 17.8749 18.5203 18.062C18.802 18.2466 19.1347 18.339 19.5182 18.339C19.8662 18.339 20.1633 18.2774 20.4095 18.1543C20.6581 18.0288 20.8475 17.8525 20.9777 17.6252C21.1103 17.3979 21.1766 17.1292 21.1766 16.8191L21.4891 16.8652H19.6141V15.7076H22.6574V16.6238C22.6574 17.263 22.5225 17.8122 22.2526 18.2715C21.9827 18.7284 21.611 19.0811 21.1375 19.3297C20.664 19.5759 20.1219 19.699 19.5111 19.699C18.8293 19.699 18.2303 19.5487 17.7142 19.248C17.1981 18.945 16.7957 18.5153 16.5068 17.959C16.2204 17.4003 16.0771 16.7374 16.0771 15.9703C16.0771 15.3809 16.1624 14.8553 16.3328 14.3936C16.5056 13.9296 16.7471 13.5366 17.0573 13.2147C17.3674 12.8927 17.7284 12.6477 18.1403 12.4796C18.5523 12.3115 18.9985 12.2275 19.4791 12.2275C19.8911 12.2275 20.2746 12.2878 20.6297 12.4086C20.9848 12.5269 21.2997 12.695 21.5743 12.9128C21.8513 13.1306 22.0774 13.3899 22.2526 13.6905C22.4278 13.9888 22.5402 14.3179 22.5899 14.6777H21.0274Z" fill="white"/>
</svg>
