<svg width="20" height="20" viewBox="0 0 20 20" fill="none" xmlns="http://www.w3.org/2000/svg">
<rect width="19" height="19" transform="translate(0.166687 0.5)" fill="white" fill-opacity="0.01"/>
<g clip-path="url(#clip0_317_74779)">
<path d="M9.66669 0.5L9.89556 19.3869L15.3888 12.241C16.3387 11.0116 16.9431 9.45031 16.9431 7.77645C16.9431 3.75777 13.6854 0.5 9.66669 0.5Z" fill="#16DB34"/>
<path d="M15.7851 7.77645C15.7851 3.75777 13.0458 0.5 9.66671 0.5C5.64803 0.5 2.39026 3.75777 2.39026 7.77645C2.39026 9.45031 2.97095 11.0116 3.9209 12.241L9.43726 19.3874C9.5533 19.5378 9.77986 19.5375 9.89558 19.3869L14.4781 12.241C15.2769 11.0116 15.7851 9.45031 15.7851 7.77645Z" fill="#37FC58"/>
<path d="M9.66669 2.81641V12.7371C12.4062 12.7371 14.627 10.5163 14.627 7.77675C14.627 5.03721 12.4062 2.81641 9.66669 2.81641Z" fill="#E0F8FF"/>
<path d="M13.469 7.77675C13.469 5.03721 11.7666 2.81641 9.6667 2.81641C6.92716 2.81641 4.70636 5.03721 4.70636 7.77675C4.70636 10.5163 6.92716 12.7371 9.6667 12.7371C11.7666 12.7371 13.469 10.5163 13.469 7.77675Z" fill="white"/>
</g>
<defs>
<clipPath id="clip0_317_74779">
<rect width="19" height="19" fill="white" transform="translate(0.166687 0.5)"/>
</clipPath>
</defs>
</svg>
