<svg width="20" height="20" viewBox="0 0 20 20" fill="none" xmlns="http://www.w3.org/2000/svg">
<rect width="19" height="19" transform="translate(0.583313 0.5)" fill="white" fill-opacity="0.01"/>
<g clip-path="url(#clip0_317_74776)">
<path d="M10.0833 0.5L10.3122 19.3869L15.8054 12.241C16.7553 11.0116 17.3598 9.45031 17.3598 7.77645C17.3598 3.75777 14.102 0.5 10.0833 0.5Z" fill="#D1D1D1"/>
<path d="M16.2017 7.77645C16.2017 3.75777 13.4624 0.5 10.0833 0.5C6.06465 0.5 2.80688 3.75777 2.80688 7.77645C2.80688 9.45031 3.38757 11.0116 4.33753 12.241L9.85389 19.3874C9.96993 19.5378 10.1965 19.5375 10.3122 19.3869L14.8948 12.241C15.6935 11.0116 16.2017 9.45031 16.2017 7.77645Z" fill="#DFDFDF"/>
<path d="M10.0833 2.81641V12.7371C12.8228 12.7371 15.0437 10.5163 15.0437 7.77675C15.0437 5.03721 12.8228 2.81641 10.0833 2.81641Z" fill="#FEFEFE"/>
<path d="M13.8856 7.77675C13.8856 5.03721 12.1833 2.81641 10.0833 2.81641C7.34379 2.81641 5.12299 5.03721 5.12299 7.77675C5.12299 10.5163 7.34379 12.7371 10.0833 12.7371C12.1833 12.7371 13.8856 10.5163 13.8856 7.77675Z" fill="white"/>
</g>
<defs>
<clipPath id="clip0_317_74776">
<rect width="19" height="19" fill="white" transform="translate(0.583313 0.5)"/>
</clipPath>
</defs>
</svg>
