<svg width="24" height="24" viewBox="0 0 24 24" fill="none" xmlns="http://www.w3.org/2000/svg">
<g clip-path="url(#clip0_325_3586)">
<path d="M11.2969 7.01555V8.28436H12.7031V7.01555C15.8757 6.66455 18.3516 3.96773 18.3516 0.703125C18.3516 0.314812 18.0367 0 17.6484 0C15.1914 0 13.0559 1.40245 12 3.44878C10.9441 1.40245 8.80856 0 6.35156 0C5.96325 0 5.64844 0.314812 5.64844 0.703125C5.64844 3.96773 8.12428 6.66455 11.2969 7.01555Z" fill="#86CB3C"/>
<path d="M11.1973 18.7797C11.1973 19.2225 11.5575 19.5828 12.0004 19.5828C13.0658 19.5387 13.0655 18.0205 12.0004 17.9766C11.5575 17.9766 11.1973 18.3369 11.1973 18.7797Z" fill="#86CB3C"/>
<path d="M23.2969 9.69145H15.7156V12.4628L17.7944 14.5421C19.232 13.805 21.0032 14.8968 20.9875 16.5196C20.9875 17.7378 19.9964 18.729 18.7782 18.729C17.1559 18.7445 16.0639 16.9743 16.8003 15.5367L14.5153 13.2511C14.3835 13.1192 14.3094 12.9405 14.3094 12.754V9.6915H12.7031V16.685C15.0414 17.5102 14.5098 20.9391 12 20.9884C9.4897 20.9389 8.95894 17.5098 11.2969 16.685V9.69145H9.69061V12.7539C9.69061 12.9404 9.61655 13.1192 9.48473 13.251L7.19977 15.5367C7.93603 16.9743 6.84422 18.7446 5.22183 18.7289C4.00359 18.7289 3.01247 17.7378 3.01247 16.5195C2.99691 14.8968 4.76794 13.8049 6.20559 14.5421L8.28436 12.4628V9.69141H0.703125C0.314812 9.69141 0 10.0062 0 10.3945V23.2977C0 23.686 0.314812 24.0008 0.703125 24.0008H23.2969C23.6852 24.0008 24 23.686 24 23.2977V10.3946C24 10.0063 23.6852 9.69145 23.2969 9.69145Z" fill="#86CB3C"/>
<path d="M19.5816 16.518C19.5816 16.0751 19.2213 15.7148 18.7785 15.7148C17.713 15.759 17.7133 17.2771 18.7785 17.3211C19.2213 17.3211 19.5816 16.9608 19.5816 16.518Z" fill="#86CB3C"/>
<path d="M4.41895 16.518C4.41895 16.9608 4.77923 17.3211 5.22205 17.3211C6.28752 17.277 6.2872 15.7588 5.22205 15.7148C4.77923 15.7149 4.41895 16.0752 4.41895 16.518Z" fill="#86CB3C"/>
</g>
<defs>
<clipPath id="clip0_325_3586">
<rect width="24" height="24" fill="white"/>
</clipPath>
</defs>
</svg>
