<svg width="16" height="16" viewBox="0 0 16 16" fill="none" xmlns="http://www.w3.org/2000/svg">
<g clip-path="url(#clip0_317_74933)">
<path d="M6.05998 6.00065C6.21672 5.5551 6.52608 5.17939 6.93328 4.94007C7.34048 4.70076 7.81924 4.61328 8.28476 4.69313C8.75028 4.77297 9.17252 5.015 9.4767 5.37634C9.78087 5.73767 9.94735 6.195 9.94665 6.66732C9.94665 8.00065 7.94665 8.66732 7.94665 8.66732M7.99998 11.334H8.00665M14.6666 8.00065C14.6666 11.6826 11.6819 14.6673 7.99998 14.6673C4.31808 14.6673 1.33331 11.6826 1.33331 8.00065C1.33331 4.31875 4.31808 1.33398 7.99998 1.33398C11.6819 1.33398 14.6666 4.31875 14.6666 8.00065Z" stroke="#A4A7AE" stroke-width="1.33333" stroke-linecap="round" stroke-linejoin="round"/>
</g>
<defs>
<clipPath id="clip0_317_74933">
<rect width="16" height="16" fill="white"/>
</clipPath>
</defs>
</svg>
