<svg width="24" height="24" viewBox="0 0 24 24" fill="none" xmlns="http://www.w3.org/2000/svg">
<g clip-path="url(#clip0_325_3482)">
<path d="M11.9976 7.83984C11.1401 8.30847 10.6285 9.23508 10.7108 10.235C11.2198 10.4822 11.6608 10.848 11.9976 11.2965C12.3345 10.848 12.7755 10.4822 13.2845 10.235C13.3682 9.22248 12.8437 8.30221 11.9976 7.83984Z" fill="#86CB3C"/>
<path d="M12.7031 13.4098V14.1154H13.4087C14.576 14.1154 15.5256 13.1659 15.5256 11.9986V11.293H14.82C13.6527 11.293 12.7031 12.2426 12.7031 13.4098Z" fill="#86CB3C"/>
<path d="M9.17534 11.293H8.46973V11.9986C8.46973 13.1658 9.41935 14.1154 10.5866 14.1154H11.2922V13.4098C11.2922 12.2426 10.3426 11.293 9.17534 11.293Z" fill="#86CB3C"/>
<path d="M20.9639 19.9687L18.9602 17.965C21.907 14.5302 21.9083 9.47141 18.9602 6.03506L20.9639 4.03134C21.7509 4.40626 22.7219 4.26918 23.3728 3.61827C24.1982 2.79289 24.1982 1.44991 23.3728 0.62453C21.6528 -1.03103 18.9819 0.893699 19.966 3.03346L17.9623 5.03722C14.5275 2.09043 9.46878 2.08906 6.03238 5.03722L4.02866 3.03346C4.40339 2.24674 4.26598 1.27501 3.61555 0.62453C2.79021 -0.200806 1.44728 -0.200759 0.621897 0.624577C-0.203393 1.44991 -0.203393 2.79289 0.621897 3.61827C1.27327 4.2696 2.2443 4.40602 3.03083 4.03134L5.03454 6.03506C2.08779 9.46986 2.08652 14.5287 5.03454 17.965L3.03087 19.9687C2.24416 19.5939 1.27238 19.7314 0.621944 20.3818C-0.203346 21.2072 -0.203393 22.5502 0.621944 23.3755C1.44719 24.2008 2.79021 24.2009 3.61564 23.3755C4.26603 22.7251 4.40348 21.7533 4.02871 20.9666L6.03242 18.9629C9.46727 21.9096 14.526 21.911 17.9624 18.9629L19.9661 20.9666C18.9816 23.1081 21.6545 25.0304 23.3729 23.3755C25.0285 21.6554 23.1037 18.9846 20.9639 19.9687ZM16.9367 12C16.9367 13.9454 15.354 15.5281 13.4086 15.5281H12.703V17.6449H11.2918V15.5281H10.5861C8.64076 15.5281 7.05806 13.9454 7.05806 12V9.88316C9.41063 9.885 9.1068 9.88006 9.29256 9.88613C9.34812 8.34496 10.2933 6.98948 11.7326 6.40664L11.9974 6.29943L12.2623 6.40664C13.7015 6.98948 14.6467 8.34496 14.7022 9.88613C14.8881 9.88001 14.5835 9.885 16.9367 9.88316V12H16.9367Z" fill="#86CB3C"/>
</g>
<defs>
<clipPath id="clip0_325_3482">
<rect width="24" height="24" fill="white"/>
</clipPath>
</defs>
</svg>
