<svg width="28" height="24" viewBox="0 0 28 24" fill="none" xmlns="http://www.w3.org/2000/svg">
<path d="M4.70703 0.5H23.707C25.64 0.5 27.207 2.067 27.207 4V20C27.207 21.933 25.64 23.5 23.707 23.5H4.70703C2.77403 23.5 1.20703 21.933 1.20703 20V4L1.21191 3.82031C1.30545 1.97083 2.8343 0.5 4.70703 0.5Z" fill="#FAFAFA"/>
<path d="M4.70703 0.5H23.707C25.64 0.5 27.207 2.067 27.207 4V20C27.207 21.933 25.64 23.5 23.707 23.5H4.70703C2.77403 23.5 1.20703 21.933 1.20703 20V4L1.21191 3.82031C1.30545 1.97083 2.8343 0.5 4.70703 0.5Z" stroke="#E9EAEB"/>
<path d="M7.56303 17C6.9097 17 6.38703 16.8087 5.99503 16.426C5.61236 16.0433 5.42103 15.53 5.42103 14.886C5.42103 14.2047 5.6217 13.6773 6.02303 13.304C6.4337 12.9213 7.0357 12.73 7.82903 12.73H8.65503V11.19H7.82903C7.0357 11.19 6.4337 11.0033 6.02303 10.63C5.6217 10.2473 5.42103 9.71533 5.42103 9.034C5.42103 8.39 5.61236 7.87667 5.99503 7.494C6.38703 7.11133 6.9097 6.92 7.56303 6.92C8.0857 6.92 8.49636 7.018 8.79503 7.214C9.10303 7.41 9.3177 7.67133 9.43903 7.998C9.5697 8.32467 9.63503 8.684 9.63503 9.076V10.238H11.175V9.076C11.175 8.684 11.2357 8.32467 11.357 7.998C11.4877 7.67133 11.7024 7.41 12.001 7.214C12.309 7.018 12.7244 6.92 13.247 6.92C13.9004 6.92 14.4184 7.11133 14.801 7.494C15.193 7.87667 15.389 8.39 15.389 9.034C15.389 9.71533 15.1884 10.2473 14.787 10.63C14.3857 11.0033 13.7837 11.19 12.981 11.19H12.155V12.73H12.981C13.7837 12.73 14.3857 12.9213 14.787 13.304C15.1884 13.6773 15.389 14.2047 15.389 14.886C15.389 15.53 15.193 16.0433 14.801 16.426C14.4184 16.8087 13.9004 17 13.247 17C12.7244 17 12.309 16.902 12.001 16.706C11.7024 16.51 11.4877 16.2487 11.357 15.922C11.2357 15.5953 11.175 15.236 11.175 14.844V13.682H9.63503V14.844C9.63503 15.236 9.5697 15.5953 9.43903 15.922C9.3177 16.2487 9.10303 16.51 8.79503 16.706C8.49636 16.902 8.0857 17 7.56303 17ZM12.155 9.048V10.238H12.981C13.4757 10.238 13.835 10.14 14.059 9.944C14.283 9.73867 14.395 9.43533 14.395 9.034C14.395 8.62333 14.283 8.32933 14.059 8.152C13.8444 7.97467 13.5737 7.886 13.247 7.886C12.883 7.886 12.6077 7.99333 12.421 8.208C12.2437 8.41333 12.155 8.69333 12.155 9.048ZM7.82903 10.238H8.65503V9.048C8.65503 8.69333 8.5617 8.41333 8.37503 8.208C8.1977 7.99333 7.92703 7.886 7.56303 7.886C7.23636 7.886 6.96103 7.97467 6.73703 8.152C6.52236 8.32933 6.41503 8.62333 6.41503 9.034C6.41503 9.43533 6.52703 9.73867 6.75103 9.944C6.97503 10.14 7.33436 10.238 7.82903 10.238ZM9.63503 12.73H11.175V11.19H9.63503V12.73ZM7.56303 16.034C7.92703 16.034 8.1977 15.9313 8.37503 15.726C8.5617 15.5113 8.65503 15.2267 8.65503 14.872V13.682H7.82903C7.33436 13.682 6.97503 13.7847 6.75103 13.99C6.52703 14.186 6.41503 14.4847 6.41503 14.886C6.41503 15.2967 6.52236 15.5907 6.73703 15.768C6.96103 15.9453 7.23636 16.034 7.56303 16.034ZM12.155 14.872C12.155 15.2267 12.2437 15.5113 12.421 15.726C12.6077 15.9313 12.883 16.034 13.247 16.034C13.5737 16.034 13.8444 15.9453 14.059 15.768C14.283 15.5907 14.395 15.2967 14.395 14.886C14.395 14.4847 14.283 14.186 14.059 13.99C13.835 13.7847 13.4757 13.682 12.981 13.682H12.155V14.872ZM22.3394 3.784L18.5314 19.45H16.9634L20.7574 3.784H22.3394Z" fill="#535862"/>
</svg>
