<svg width="24" height="24" viewBox="0 0 24 24" fill="none" xmlns="http://www.w3.org/2000/svg">
<g clip-path="url(#clip0_325_3501)">
<path d="M6.37378 5.22656C6.17048 5.22656 5.97562 5.30728 5.83186 5.451C5.68814 5.59472 5.60742 5.78962 5.60742 5.99292V12.2179H15.7618V5.22703L6.37378 5.22656Z" fill="#86CB3C"/>
<path d="M23.8156 10.522L20.4628 6.61131C20.3172 6.44148 20.1046 6.34375 19.8809 6.34375L17.2945 6.34394V12.9838C17.2945 13.407 16.9514 13.7501 16.5282 13.7501H5.60742V16.0492C5.60742 16.4725 5.9505 16.8156 6.37378 16.8156H8.60784C8.93963 17.9445 9.98447 18.7714 11.2195 18.7714C12.4545 18.7714 13.4992 17.9445 13.8311 16.8156H15.8723C16.2041 17.9445 17.249 18.7714 18.484 18.7714C19.719 18.7714 20.7637 17.9445 21.0956 16.8156H23.2339C23.6571 16.8156 24.0002 16.4725 24.0002 16.0492V11.0208C24.0002 10.8378 23.9347 10.6609 23.8156 10.522ZM11.2195 17.2387C10.5636 17.2387 10.03 16.7051 10.03 16.0493C10.03 15.3934 10.5636 14.8598 11.2195 14.8598C11.8753 14.8598 12.4089 15.3934 12.4089 16.0493C12.4089 16.7052 11.8753 17.2387 11.2195 17.2387ZM19.6734 16.05C19.673 16.7055 19.1396 17.2387 18.484 17.2387C17.8281 17.2387 17.2945 16.7052 17.2945 16.0494C17.2945 15.3934 17.8281 14.8598 18.484 14.8598C19.1396 14.8598 19.673 15.3931 19.6734 16.0487C19.6734 16.0488 19.6733 16.0491 19.6733 16.0493C19.6733 16.0495 19.6734 16.0497 19.6734 16.05Z" fill="#86CB3C"/>
<path d="M0.766453 10.2539C0.343266 10.2539 0 10.597 0 11.0202C9.375e-05 11.4435 0.343172 11.7866 0.766359 11.7866L4.07442 11.7867V10.254L0.766453 10.2539Z" fill="#86CB3C"/>
<path d="M4.07447 7.19141H3.32105C2.89786 7.19145 2.55469 7.53453 2.55469 7.95772C2.55469 8.381 2.89786 8.72412 3.32105 8.72412H4.07452L4.07447 7.19141Z" fill="#86CB3C"/>
<path d="M4.07477 13.3203H2.29956C1.87637 13.3203 1.5332 13.6634 1.5332 14.0867C1.5332 14.5099 1.87637 14.853 2.29956 14.853H4.07486L4.07477 13.3203Z" fill="#86CB3C"/>
</g>
<defs>
<clipPath id="clip0_325_3501">
<rect width="24" height="24" fill="white"/>
</clipPath>
</defs>
</svg>
