<svg width="16" height="16" viewBox="0 0 16 16" fill="none" xmlns="http://www.w3.org/2000/svg">
<path d="M14.1123 6.34567C14.1123 9.01432 10.2918 13.6359 8.69226 15.4539C8.32563 15.8707 7.6763 15.8707 7.30963 15.4539C5.71013 13.6359 1.88965 9.01432 1.88965 6.34567C1.88965 2.97049 4.62576 0.234375 8.00098 0.234375C11.3762 0.234375 14.1123 2.97049 14.1123 6.34567Z" fill="#BBEC6C"/>
<path d="M5.18701 6.93227C5.18701 3.76564 7.59604 1.16156 10.6811 0.851824C9.87195 0.456495 8.96216 0.234375 8.00098 0.234375C4.6258 0.234375 1.88965 2.97049 1.88965 6.34567C1.88965 9.01432 5.71013 13.6359 7.30967 15.4539C7.6763 15.8707 8.32563 15.8707 8.69226 15.4539C8.89788 15.2203 9.14037 14.94 9.40653 14.6237C7.6117 12.4238 5.18701 9.05827 5.18701 6.93227Z" fill="#A2E62E"/>
<path d="M8.00159 10.511C10.3022 10.511 12.1672 8.64597 12.1672 6.34534C12.1672 4.04471 10.3022 2.17969 8.00159 2.17969C5.70096 2.17969 3.83594 4.04471 3.83594 6.34534C3.83594 8.64597 5.70096 10.511 8.00159 10.511Z" fill="#FDF6EC"/>
<path d="M5.18762 6.92874C5.18762 5.03356 6.05071 3.3397 7.40498 2.21875C5.38703 2.50821 3.83594 4.24409 3.83594 6.34214C3.83594 8.02496 4.83396 9.47496 6.27024 10.1322C5.62718 8.96365 5.18762 7.83369 5.18762 6.92874Z" fill="#FEF1DA"/>
<path d="M8.72016 4.13367C8.56726 3.88478 8.30156 3.7355 8.00948 3.73438H8.00617C7.71537 3.73438 7.44995 3.88145 7.29571 4.12821L6.43209 5.51002L6.36132 5.20471C6.33212 5.07885 6.20645 5.00053 6.08059 5.02963C5.95473 5.05883 5.87634 5.18453 5.9055 5.31036L6.10382 6.16587C6.12881 6.27357 6.22469 6.34703 6.33153 6.34703C6.34581 6.34703 6.36029 6.34572 6.37482 6.34301L7.238 6.18128C7.36499 6.15748 7.44868 6.03523 7.42488 5.90825C7.40105 5.78127 7.27887 5.69777 7.15185 5.72138L6.81195 5.78507L7.69251 4.37622C7.76191 4.26514 7.87701 4.2016 8.0077 4.20229C8.13858 4.20282 8.253 4.26704 8.32156 4.37862L8.46482 4.61175C8.53248 4.72186 8.67659 4.75623 8.7866 4.68858C8.89668 4.62092 8.93108 4.47687 8.86343 4.3668L8.72016 4.13367Z" fill="black"/>
<path d="M5.62963 6.79359L5.548 6.92422C5.38421 7.1863 5.37585 7.50417 5.52566 7.77449C5.67551 8.04483 5.94947 8.20622 6.25855 8.20622H8.1667L7.93838 8.44449C7.84898 8.53779 7.85213 8.68586 7.94543 8.77526C7.99078 8.81874 8.04905 8.84029 8.10725 8.84029C8.16879 8.84029 8.23024 8.81615 8.27619 8.76821L8.88378 8.13413C8.9705 8.04364 8.9705 7.90088 8.88378 7.81039L8.27619 7.17631C8.18682 7.08302 8.03872 7.07993 7.94543 7.16926C7.85216 7.25866 7.84898 7.40673 7.93838 7.50003L8.1667 7.7383H6.25855C6.12206 7.7383 6.00106 7.66703 5.9349 7.54766C5.86875 7.42828 5.87243 7.28792 5.94476 7.17216L6.02639 7.04153C6.09486 6.93195 6.06154 6.78763 5.95197 6.71916C5.84239 6.65073 5.69809 6.68401 5.62963 6.79359Z" fill="black"/>
<path d="M10.2296 5.46215C10.2534 5.33516 10.1697 5.21292 10.0427 5.18912L9.17955 5.02739C9.05653 5.00462 8.93691 5.08244 8.90855 5.2045L8.7102 6.06001C8.68101 6.18587 8.75939 6.31154 8.88525 6.34077C8.90303 6.34488 8.92081 6.34685 8.93831 6.34685C9.04471 6.34685 9.14094 6.27377 9.16602 6.16569L9.23564 5.8654L10.04 7.17441C10.1111 7.29023 10.114 7.43015 10.0477 7.54878C9.98135 7.66737 9.8606 7.73818 9.72473 7.73818C9.5955 7.73818 9.49079 7.84289 9.49079 7.97212C9.49079 8.10135 9.5955 8.20606 9.72473 8.20606C10.0324 8.20606 10.3058 8.0457 10.456 7.77714C10.6063 7.50857 10.5997 7.19166 10.4386 6.92946L9.61216 5.58445L9.95658 5.64899C10.0833 5.67254 10.2058 5.58919 10.2296 5.46215Z" fill="black"/>
<path d="M4.66082 3.84507C4.55317 3.77346 4.408 3.80265 4.33645 3.91017C3.85568 4.63243 3.60156 5.47433 3.60156 6.34494C3.60156 8.77088 5.57522 10.7445 8.00119 10.7445C10.4272 10.7445 12.4008 8.77091 12.4008 6.34494C12.4008 3.91897 10.4271 1.94531 8.00119 1.94531C6.8938 1.94531 5.83552 2.35839 5.02127 3.10844C4.92623 3.19599 4.92018 3.344 5.00768 3.43901C5.0952 3.53406 5.24321 3.54011 5.33825 3.45261C6.0659 2.78235 7.01159 2.41323 8.00119 2.41323C10.1692 2.41323 11.9329 4.17699 11.9329 6.34497C11.9329 8.51292 10.1692 10.2767 8.00119 10.2767C5.83321 10.2767 4.06945 8.51292 4.06945 6.34497C4.06945 5.56697 4.29643 4.81468 4.72592 4.1695C4.7975 4.06189 4.76834 3.91666 4.66082 3.84507Z" fill="black"/>
<path d="M12.4983 1.86972C12.4072 1.77811 12.259 1.77774 12.1675 1.86898C12.0759 1.96012 12.0756 2.10825 12.1668 2.1998C13.2706 3.30881 13.8785 4.7812 13.8785 6.34577C13.8785 7.80485 12.6446 10.1541 10.3104 13.1397C10.2308 13.2415 10.2488 13.3886 10.3506 13.4681C10.3934 13.5015 10.4441 13.5178 10.4945 13.5178C10.5641 13.5178 10.6329 13.4869 10.679 13.4279C11.7069 12.1132 12.5352 10.9027 13.141 9.83006C13.9408 8.41394 14.3464 7.24164 14.3464 6.34577C14.3463 4.65662 13.69 3.06701 12.4983 1.86972Z" fill="black"/>
<path d="M10.0157 13.8856C9.91571 13.8039 9.7683 13.8187 9.68651 13.9188C9.30466 14.3861 8.91089 14.8504 8.51615 15.299C8.3858 15.4471 8.19787 15.5321 8.00051 15.5321C7.80316 15.5321 7.6152 15.4471 7.48487 15.299C6.75856 14.4735 5.36512 12.8287 4.19344 11.0878C2.81971 9.04658 2.12316 7.45097 2.12316 6.34527C2.12316 3.10446 4.75974 0.467883 8.00054 0.467883C9.24296 0.467883 10.4307 0.851048 11.4354 1.57592C11.5401 1.65153 11.6864 1.62786 11.762 1.52311C11.8376 1.41834 11.8139 1.27211 11.7092 1.1965C10.6243 0.413764 9.34187 0 8.00054 0C4.50175 0 1.65527 2.84647 1.65527 6.34527C1.65527 7.5457 2.37865 9.22921 3.80532 11.349C4.99168 13.1118 6.39985 14.7741 7.13362 15.608C7.35274 15.8571 7.66875 16 8.00054 16C8.33233 16 8.64834 15.8571 8.86747 15.6081C9.26589 15.1553 9.6634 14.6865 10.0488 14.2148C10.1306 14.1148 10.1157 13.9674 10.0157 13.8856Z" fill="black"/>
</svg>
