<svg width="24" height="24" viewBox="0 0 24 24" fill="none" xmlns="http://www.w3.org/2000/svg">
<path d="M19.0781 17.1875C19.8548 17.1875 20.4844 16.5579 20.4844 15.7812C20.4844 15.0046 19.8548 14.375 19.0781 14.375C18.3015 14.375 17.6719 15.0046 17.6719 15.7812C17.6719 16.5579 18.3015 17.1875 19.0781 17.1875Z" fill="#86CB3C"/>
<path d="M19.0781 10.8594C16.3642 10.8594 14.1562 13.0673 14.1562 15.7813C14.1562 17.096 14.6682 18.332 15.5978 19.2615L19.0781 22.7418L22.5584 19.2615C23.488 18.332 24 17.096 24 15.7813C24 13.0673 21.792 10.8594 19.0781 10.8594ZM19.0781 18.5938C17.5273 18.5938 16.2656 17.3321 16.2656 15.7813C16.2656 14.2305 17.5273 12.9688 19.0781 12.9688C20.6289 12.9688 21.8906 14.2305 21.8906 15.7813C21.8906 17.3321 20.6289 18.5938 19.0781 18.5938Z" fill="#86CB3C"/>
<path d="M9.84375 1.26172H7.03125V5.48047H2.8125V1.26172H0V10.858H9.84375V1.26172Z" fill="#86CB3C"/>
<path d="M4.21875 1.26172H5.625V4.07422H4.21875V1.26172Z" fill="#86CB3C"/>
<path d="M18.375 8.04688H19.7812V9.45312H18.375V8.04688Z" fill="#86CB3C"/>
<path d="M18.375 5.23438H19.7812V6.64062H18.375V5.23438Z" fill="#86CB3C"/>
<path d="M15.5625 5.23438H16.9688V6.64062H15.5625V5.23438Z" fill="#86CB3C"/>
<path d="M12.75 5.23438H14.1562V6.64062H12.75V5.23438Z" fill="#86CB3C"/>
<path d="M4.21875 12.2656H5.625V13.6719H4.21875V12.2656Z" fill="#86CB3C"/>
<path d="M4.21875 15.0781H5.625V16.4844H4.21875V15.0781Z" fill="#86CB3C"/>
<path d="M7.03125 15.0781H8.4375V16.4844H7.03125V15.0781Z" fill="#86CB3C"/>
<path d="M9.84375 15.0781H11.25V16.4844H9.84375V15.0781Z" fill="#86CB3C"/>
</svg>
