<svg width="19" height="20" viewBox="0 0 19 20" fill="none" xmlns="http://www.w3.org/2000/svg">
<rect width="19" height="19" transform="translate(0 0.5)" fill="white" fill-opacity="0.01"/>
<g clip-path="url(#clip0_317_74773)">
<path d="M9.5 0.5L9.72887 19.3869L15.2221 12.241C16.172 11.0116 16.7765 9.45031 16.7765 7.77645C16.7765 3.75777 13.5187 0.5 9.5 0.5Z" fill="#1668DB"/>
<path d="M15.6184 7.77645C15.6184 3.75777 12.8791 0.5 9.50003 0.5C5.48134 0.5 2.22357 3.75777 2.22357 7.77645C2.22357 9.45031 2.80426 11.0116 3.75421 12.241L9.27058 19.3874C9.38661 19.5378 9.61317 19.5375 9.7289 19.3869L14.3114 12.241C15.1102 11.0116 15.6184 9.45031 15.6184 7.77645Z" fill="#379AFC"/>
<path d="M9.5 2.81641V12.7371C12.2395 12.7371 14.4603 10.5163 14.4603 7.77675C14.4603 5.03721 12.2395 2.81641 9.5 2.81641Z" fill="#E0F8FF"/>
<path d="M13.3023 7.77675C13.3023 5.03721 11.6 2.81641 9.50001 2.81641C6.76048 2.81641 4.53967 5.03721 4.53967 7.77675C4.53967 10.5163 6.76048 12.7371 9.50001 12.7371C11.6 12.7371 13.3023 10.5163 13.3023 7.77675Z" fill="white"/>
</g>
<defs>
<clipPath id="clip0_317_74773">
<rect width="19" height="19" fill="white" transform="translate(0 0.5)"/>
</clipPath>
</defs>
</svg>
