<svg width="45" height="44" viewBox="0 0 45 44" fill="none" xmlns="http://www.w3.org/2000/svg">
<path d="M16.667 0.5H28.667C37.2274 0.5 44.167 7.43959 44.167 16V28C44.167 36.5604 37.2274 43.5 28.667 43.5H16.667C8.10658 43.5 1.16699 36.5604 1.16699 28V16C1.16699 7.43959 8.10658 0.5 16.667 0.5Z" fill="#FDFDFD"/>
<path d="M16.667 0.5H28.667C37.2274 0.5 44.167 7.43959 44.167 16V28C44.167 36.5604 37.2274 43.5 28.667 43.5H16.667C8.10658 43.5 1.16699 36.5604 1.16699 28V16C1.16699 7.43959 8.10658 0.5 16.667 0.5Z" stroke="#B2DDFF"/>
<g clip-path="url(#clip0_325_6193)">
<path d="M34.3154 25.0038V32.7391C34.3154 33.2417 33.908 33.6491 33.4054 33.6491H11.9286C11.426 33.6491 11.0186 33.2417 11.0186 32.7391V25.0038C11.0186 24.5012 11.426 24.0938 11.9286 24.0938H15.5687H29.6742H33.4054C33.908 24.0938 34.3154 24.5012 34.3154 25.0038Z" fill="#9AC864"/>
<path d="M17.3891 22.9141V26.7336H13.749V22.9141C13.749 22.008 14.4836 21.2734 15.3896 21.2734H15.7485C16.6546 21.2734 17.3891 22.008 17.3891 22.9141Z" fill="#6C8937"/>
<path d="M17.3884 22.866V26.7337H16.4783V22.866C16.4783 22.0637 15.885 21.4003 15.1133 21.2899C15.1876 21.2792 15.2635 21.2734 15.3408 21.2734H15.7958C16.6753 21.2735 17.3884 21.9865 17.3884 22.866Z" fill="#5E752D"/>
<path d="M27.824 12.8542V24.6846C27.824 25.0615 27.5185 25.3672 27.1415 25.3672C26.7645 25.3672 26.4589 25.0616 26.4589 24.6846V12.8542C26.4589 12.2269 25.9487 11.7166 25.3214 11.7166H21.2566C20.6293 11.7166 20.119 12.2269 20.119 12.8542V24.6846C20.119 25.0615 19.8134 25.3672 19.4365 25.3672C19.0595 25.3672 18.7539 25.0616 18.7539 24.6846V12.8542C18.7539 11.4742 19.8766 10.3516 21.2565 10.3516H25.3213C26.7014 10.3516 27.824 11.4742 27.824 12.8542Z" fill="#D6C499"/>
<path d="M20.5585 11.7166H21.2561C20.6289 11.7166 20.1186 12.2269 20.1186 12.8542V24.6846C20.1186 25.0615 19.813 25.3672 19.436 25.3672C19.3084 25.3672 19.1891 25.3318 19.0869 25.2707C19.2866 25.1516 19.4209 24.9341 19.4209 24.6847V12.8542C19.4209 12.2269 19.9312 11.7166 20.5585 11.7166ZM25.321 10.3516H24.6233C26.0032 10.3516 27.1259 11.4742 27.1259 12.8542V24.6846C27.1259 24.934 26.9916 25.1516 26.7919 25.2707C26.894 25.3318 27.0133 25.3671 27.141 25.3671C27.5179 25.3671 27.8236 25.0615 27.8236 24.6846V12.8542C27.8236 11.4742 26.7009 10.3516 25.321 10.3516Z" fill="#BCA77C"/>
<path d="M32.1224 16.5147C32.2929 16.5848 32.4043 16.751 32.4043 16.9355V18.2687H27.0942H21.7842V16.9355C21.7842 16.751 21.8955 16.5848 22.0661 16.5147L27.0942 14.4219L32.1224 16.5147Z" fill="#7FA740"/>
<path d="M21.7842 17.1758H32.4043V27.5957H21.7842V17.1758Z" fill="#6C8937"/>
<path d="M31.4941 17.1758H32.4042V28.0962H31.4941V17.1758Z" fill="#5E752D"/>
<path d="M23.3037 17.1758H25.1238V28.0962H23.3037V17.1758Z" fill="#9AC864"/>
<path d="M23.7587 26.7305H32.4495C32.7008 26.7305 32.9046 26.9342 32.9046 27.1855V27.6405C32.9046 27.8918 32.7008 28.0955 32.4495 28.0955H23.7587C23.5074 28.0955 23.3037 27.8918 23.3037 27.6405V27.1855C23.3037 26.9342 23.5074 26.7305 23.7587 26.7305Z" fill="#7FA740"/>
<path d="M28.4596 13.6406V14.9919H25.7295V13.6406C25.7295 13.3817 25.9394 13.1719 26.1982 13.1719H27.9908C28.2497 13.1719 28.4596 13.3817 28.4596 13.6406Z" fill="#6C8937"/>
<path d="M26.0344 32.1926H12.8389V26.2773H26.0344V32.1926Z" fill="#EADDB0"/>
<path d="M26.0341 32.1926H25.124V26.2773H26.0341V32.1926Z" fill="#D6C499"/>
<path d="M16.7065 28.552H22.1667V32.1922H16.7065V28.552ZM25.7003 25.2748L19.4366 23.5469L13.1729 25.2748C12.9756 25.3292 12.8389 25.5087 12.8389 25.7134V26.7319H19.4366H26.0344V25.7134C26.0344 25.5087 25.8977 25.3293 25.7003 25.2748Z" fill="#7FA740"/>
<path d="M22.1668 28.5508V32.1909H19.4141V28.5508H22.1668Z" fill="#6C8937"/>
<path d="M32.125 29.5658L31.6666 30.1656L31.2083 29.5658C31.0903 29.4115 30.8696 29.382 30.7155 29.5C30.5612 29.6178 30.5317 29.8385 30.6496 29.9928L31.3873 30.958C31.4538 31.045 31.5571 31.0961 31.6666 31.0961C31.7762 31.0961 31.8794 31.045 31.9459 30.958L32.6837 29.9928C32.8016 29.8385 32.7721 29.6178 32.6179 29.5C32.4635 29.382 32.2429 29.4115 32.125 29.5658ZM14.6814 33.2969H11.9286C11.6207 33.2969 11.3701 33.0463 11.3701 32.7384V25.0031C11.3701 24.6952 11.6207 24.4446 11.9286 24.4446H12.6339C12.828 24.4446 12.9854 24.2872 12.9854 24.0931C12.9854 23.8989 12.828 23.7415 12.6339 23.7415H11.9286C11.233 23.7415 10.667 24.3075 10.667 25.0031V32.7384C10.667 33.434 11.233 34 11.9286 34H14.6814C14.8756 34 15.033 33.8426 15.033 33.6484C15.033 33.4543 14.8756 33.2969 14.6814 33.2969ZM33.4054 23.7415C33.2112 23.7415 33.0538 23.8989 33.0538 24.0931C33.0538 24.2872 33.2112 24.4446 33.4054 24.4446C33.7133 24.4446 33.9639 24.6952 33.9639 25.0031V32.7384C33.9639 33.0463 33.7133 33.2969 33.4054 33.2969H16.092C15.8978 33.2969 15.7404 33.4543 15.7404 33.6484C15.7404 33.8426 15.8978 34 16.092 34H33.4054C34.1011 34 34.667 33.434 34.667 32.7384V25.0031C34.667 24.3075 34.1011 23.7415 33.4054 23.7415ZM29.2226 31.0137L28.7642 31.6135L28.3058 31.0137C28.1879 30.8594 27.9672 30.8299 27.813 30.9478C27.6587 31.0658 27.6292 31.2864 27.7472 31.4406L28.4849 32.4059C28.5514 32.4929 28.6547 32.544 28.7642 32.544C28.8738 32.544 28.977 32.4929 29.0435 32.4059L29.7813 31.4406C29.8992 31.2864 29.8697 31.0657 29.7154 30.9478C29.5612 30.8299 29.3405 30.8594 29.2226 31.0137ZM13.0791 24.9361L13.3971 24.8484V22.8645C13.3971 21.8342 14.2028 20.9885 15.2172 20.9243V19.9069C15.2172 19.7127 15.3746 19.5553 15.5688 19.5553C15.7629 19.5553 15.9203 19.7127 15.9203 19.9069V20.9243C16.9347 20.9885 17.7404 21.8342 17.7404 22.8645V23.6502L18.4023 23.4676V15.6904C18.4023 15.4963 18.5597 15.3389 18.7539 15.3389C18.948 15.3389 19.1054 15.4963 19.1054 15.6904V23.2737L19.3429 23.2082C19.4041 23.1913 19.4687 23.1913 19.5299 23.2082L19.7674 23.2737V12.8542C19.7674 12.0331 20.4354 11.365 21.2565 11.365H24.2065C24.4007 11.365 24.558 11.5225 24.558 11.7166C24.558 11.9108 24.4007 12.0682 24.2065 12.0682H21.2565C20.8231 12.0682 20.4705 12.4208 20.4705 12.8542V23.4677L21.4327 23.7331V16.9356C21.4327 16.6074 21.6289 16.3145 21.9325 16.1897L25.3777 14.7581V13.6415C25.3777 13.22 25.6972 12.8717 26.1068 12.8262C26.092 12.4057 25.7453 12.0682 25.3213 12.0682C25.1271 12.0682 24.9697 11.9108 24.9697 11.7166C24.9697 11.5225 25.1271 11.365 25.3213 11.365C26.1313 11.365 26.7924 12.0152 26.81 12.8212H27.4721C27.4544 11.6502 26.4964 10.7031 25.3213 10.7031H21.2565C20.0704 10.7031 19.1054 11.668 19.1054 12.8542V14.386C19.1054 14.5802 18.948 14.7376 18.7539 14.7376C18.5597 14.7376 18.4023 14.5802 18.4023 14.386V12.8542C18.4023 11.2803 19.6826 10 21.2564 10H25.3212C26.891 10 28.1689 11.2739 28.1754 12.8422C28.539 12.9262 28.8109 13.2527 28.8109 13.6415V14.7579L32.2573 16.1902C32.5597 16.3146 32.7559 16.6074 32.7559 16.9357V26.4409C33.0493 26.5617 33.2564 26.8508 33.2564 27.1872V27.6422C33.2564 28.087 32.8946 28.4488 32.4499 28.4488H26.3857V31.8408H26.4891C26.6833 31.8408 26.8407 31.9982 26.8407 32.1924C26.8407 32.3865 26.6833 32.5439 26.4891 32.5439H12.3836C12.1894 32.5439 12.032 32.3865 12.032 32.1924C12.032 31.9982 12.1894 31.8408 12.3836 31.8408H12.4871V25.7136C12.4871 25.352 12.7305 25.0322 13.0791 24.9361ZM19.0848 28.9038H17.0578V31.8408H19.0848V28.9038ZM21.8149 28.9038H19.7879V31.8408H21.8149L21.8149 28.9038ZM26.0809 14.6412H28.1078V13.6415C28.1078 13.5769 28.0553 13.5243 27.9906 13.5243H26.198C26.1334 13.5243 26.0809 13.5769 26.0809 13.6415V14.6412ZM22.1359 23.927L25.7936 24.9361C26.1423 25.0323 26.3857 25.352 26.3857 25.7136V27.7457H32.4499C32.5069 27.7457 32.5533 27.6992 32.5533 27.6422V27.1872C32.5533 27.1301 32.5069 27.0837 32.4499 27.0837H27.2399C27.0457 27.0837 26.8883 26.9263 26.8883 26.7322C26.8883 26.538 27.0457 26.3806 27.2399 26.3806H32.0528V17.5284H25.4279C25.2337 17.5284 25.0764 17.371 25.0764 17.1768C25.0764 16.9826 25.2337 16.8252 25.4279 16.8252H31.9533L28.39 15.3444H25.7994L22.2353 16.8252H24.078C24.2722 16.8252 24.4296 16.9826 24.4296 17.1768C24.4296 17.371 24.2722 17.5284 24.078 17.5284H22.1358L22.1359 23.927ZM13.1902 31.8408H16.3547V28.5523C16.3547 28.3581 16.5121 28.2007 16.7063 28.2007H22.1665C22.3606 28.2007 22.518 28.3581 22.518 28.5523V31.8408H25.6825V27.0837H24.123C23.9288 27.0837 23.7714 26.9263 23.7714 26.7322C23.7714 26.538 23.9288 26.3806 24.123 26.3806H25.6825V25.7136C25.6825 25.6673 25.6513 25.6263 25.6066 25.6139L19.4364 23.9117L15.9809 24.865C15.7937 24.9166 15.6001 24.8067 15.5485 24.6196C15.4968 24.4324 15.6067 24.2388 15.7939 24.1871L17.0372 23.8442V22.8645C17.0372 22.1802 16.4805 21.6235 15.7961 21.6235H15.3411C14.6569 21.6235 14.1001 22.1802 14.1001 22.8645V24.6544L14.5271 24.5366C14.7144 24.485 14.9079 24.5949 14.9595 24.782C15.0112 24.9692 14.9013 25.1628 14.7141 25.2144L13.266 25.6139C13.2213 25.6262 13.1901 25.6672 13.1901 25.7136V26.3806H22.883C23.0772 26.3806 23.2346 26.538 23.2346 26.7321C23.2346 26.9263 23.0772 27.0837 22.883 27.0837H13.1902V31.8408Z" fill="black"/>
</g>
<defs>
<clipPath id="clip0_325_6193">
<rect width="24" height="24" fill="white" transform="translate(10.667 10)"/>
</clipPath>
</defs>
</svg>
