<svg width="45" height="44" viewBox="0 0 45 44" fill="none" xmlns="http://www.w3.org/2000/svg">
<path d="M16.333 0.5H28.333C36.8934 0.5 43.833 7.43959 43.833 16V28C43.833 36.5604 36.8934 43.5 28.333 43.5H16.333C7.77259 43.5 0.833008 36.5604 0.833008 28V16C0.833008 7.43959 7.77259 0.5 16.333 0.5Z" fill="#FDFDFD"/>
<path d="M16.333 0.5H28.333C36.8934 0.5 43.833 7.43959 43.833 16V28C43.833 36.5604 36.8934 43.5 28.333 43.5H16.333C7.77259 43.5 0.833008 36.5604 0.833008 28V16C0.833008 7.43959 7.77259 0.5 16.333 0.5Z" stroke="#FFD6AE"/>
<g clip-path="url(#clip0_325_14987)">
<path d="M32.5672 16.0824L23.7393 13.717H22.333L20.9268 12.9633L19.7671 12.6526C19.4044 12.5554 19.0331 12.4952 18.6589 12.472L11.3877 12.4609C10.9994 12.4609 10.6846 12.7757 10.6846 13.1641V17.4097L11.1533 18.3472L10.6846 19.2847V20.7411L15.6274 29.1953L33.5127 29.6641L33.0439 19.6397L32.6153 19.5249L32.5672 16.0824Z" fill="#D09180"/>
<path d="M32.794 16.1422L32.5676 16.0816L32.3007 17.0776C32.191 17.4872 31.7838 17.7426 31.3673 17.6631L19.6974 15.4362C19.315 15.3632 19.1861 15.9255 19.5622 16.0263L32.6157 19.524L33.2912 17.0033C33.3917 16.6283 33.1691 16.2427 32.794 16.1422Z" fill="#B46E5A"/>
<path d="M33.0444 19.6406V28.8447C33.0444 29.0388 32.887 29.1962 32.6929 29.1962H15.6279L18.4404 30.1337H20.9272L22.3335 29.665L23.7397 30.1337H33.2788C33.6671 30.1337 33.9819 29.8189 33.9819 29.4306V20.4033C33.9819 20.1016 33.7793 19.8375 33.4879 19.7595L33.0444 19.6406Z" fill="#B46E5A"/>
<path d="M23.7393 29.1968V17.148L23.5049 16.6323L23.7393 16.2099V13.7185L20.9268 12.9648V15.6732L21.1611 16.061L20.9268 16.3944V29.1968L22.333 29.6656L23.7393 29.1968Z" fill="#F5FCFF"/>
<path d="M20.9268 29.1953H23.7393V30.1328H20.9268V29.1953Z" fill="#DDEBFD"/>
<path d="M23.7393 17.1467L20.9268 16.393V15.6719L23.7393 16.2085V17.1467Z" fill="#DDEBFD"/>
<path d="M16.8003 29.1872C16.0529 28.7557 15.8434 27.6967 16.6771 27.4733L17.7655 27.1817C18.7656 26.9137 18.8234 25.6255 18.2069 25.0823L10.6846 20.7422V29.1963H16.8161L16.8003 29.1872Z" fill="#FFCDBE"/>
<path d="M31.1689 19.1389L31.0939 19.1172H25.7783V27.3203L31.6377 27.7891L31.1689 19.1389Z" fill="#F5FCFF"/>
<path d="M31.1689 19.1406V26.9704C31.1689 27.1646 31.0115 27.322 30.8174 27.322H25.7783V28.2595H32.1064V19.3902L31.1689 19.1406Z" fill="#DDEBFD"/>
<path d="M16.9701 27.8988L17.868 27.6582C19.0781 27.334 19.2921 25.7085 18.2071 25.082C18.5742 25.568 18.5783 26.5383 17.5781 26.8064L16.4897 27.098C15.6561 27.3213 15.5087 28.4411 16.2561 28.8726L16.8005 29.1869C16.258 28.8737 16.365 28.0609 16.9701 27.8988Z" fill="#EBAE9D"/>
<path d="M16.8161 29.1953H10.6846V29.4297C10.6846 29.818 10.9994 30.1328 11.3877 30.1328H18.4399L16.8161 29.1953Z" fill="#EBAE9D"/>
<path d="M32.4707 29.6499L26.7893 20.5586C26.5618 20.6202 26.3538 20.7667 26.2198 20.9988L20.9545 30.1187C20.8641 30.2752 20.8242 30.4414 20.8262 30.603L31.6498 31.0718C32.3795 31.0718 32.8355 30.2818 32.4707 29.6499Z" fill="#FFD064"/>
<path d="M33.1269 30.1169L27.8615 20.9971C27.6307 20.5973 27.181 20.4508 26.7892 20.5568L31.7675 29.1794C32.1323 29.8113 31.6763 30.6013 30.9466 30.6013H20.8262C20.8324 31.0918 21.2263 31.5388 21.7752 31.5388H32.306C33.0357 31.5387 33.4917 30.7488 33.1269 30.1169Z" fill="#EBB044"/>
<path d="M33.9814 25.4728C34.1756 25.4728 34.333 25.3154 34.333 25.1212V20.4304C34.333 19.954 34.0116 19.535 33.5513 19.4117L33.0459 19.2763L33.6304 17.0952C33.7032 16.8231 33.6658 16.5389 33.525 16.2949C33.3841 16.0509 33.1567 15.8764 32.8846 15.8035L19.8581 12.313C19.3537 12.1779 18.8332 12.1094 18.3112 12.1094H16.2038C16.0096 12.1094 15.8522 12.2667 15.8522 12.4609C15.8522 12.6551 16.0096 12.8125 16.2038 12.8125H18.3112C18.7719 12.8125 19.2311 12.873 19.6761 12.9922L20.5752 13.2331V15.9348L19.6528 15.6876C19.4655 15.6371 19.2725 15.7486 19.2222 15.9362C19.1719 16.1237 19.2832 16.3165 19.4708 16.3668L20.5752 16.6627V20.5079L17.3029 19.6311C17.1154 19.5808 16.9226 19.6921 16.8724 19.8797C16.8221 20.0672 16.9334 20.26 17.121 20.3102L20.5752 21.2358V29.3896L19.3024 29.7078C19.1074 29.7566 18.9066 29.7813 18.7055 29.7813H18.5342L16.9761 28.8818C16.7874 28.7728 16.7962 28.586 16.8034 28.5314C16.8106 28.4768 16.8504 28.2941 17.0609 28.2377L17.9588 27.9971C18.6586 27.8096 19.1521 27.2469 19.2466 26.5286C19.3412 25.8104 19.0102 25.1391 18.3827 24.7768L11.0361 20.5381V19.3677L11.4678 18.5044C11.5173 18.4054 11.5173 18.289 11.4678 18.19L11.0361 17.3267V13.1641C11.0361 12.9702 11.1939 12.8125 11.3877 12.8125H14.7975C14.9917 12.8125 15.1491 12.6551 15.1491 12.4609C15.1491 12.2667 14.9917 12.1094 14.7975 12.1094H11.3877C10.8061 12.1094 10.333 12.5825 10.333 13.1641V17.4097C10.333 17.4642 10.3457 17.518 10.3701 17.5669L10.7603 18.3472L10.3701 19.1275C10.3457 19.1763 10.333 19.2301 10.333 19.2847V27.5078C10.333 27.702 10.4904 27.8594 10.6846 27.8594C10.8787 27.8594 11.0361 27.702 11.0361 27.5078V27.0895L13.8399 28.707C13.8953 28.7389 13.9556 28.7541 14.0153 28.7541C14.1368 28.7541 14.255 28.691 14.3201 28.5782C14.4171 28.41 14.3594 28.195 14.1912 28.098L11.0361 26.2778V25.1763L14.5315 27.1926C14.5869 27.2245 14.6472 27.2397 14.7069 27.2397C14.8284 27.2397 14.9466 27.1766 15.0117 27.0638C15.1087 26.8955 15.051 26.6806 14.8828 26.5835L11.0361 24.3646V23.263L15.2231 25.6783C15.2785 25.7102 15.3388 25.7253 15.3985 25.7253C15.52 25.7253 15.6382 25.6623 15.7033 25.5494C15.8003 25.3812 15.7426 25.1662 15.5744 25.0692L11.0361 22.4513V21.3498L18.0311 25.3857C18.4811 25.6456 18.5939 26.099 18.5495 26.4368C18.5051 26.7746 18.2787 27.1834 17.7768 27.3179L16.8789 27.5585C16.4591 27.671 16.163 28.0086 16.1062 28.4396C16.0495 28.8705 16.2481 29.2733 16.6246 29.4906L17.128 29.7812H11.3877C11.1938 29.7812 11.0361 29.6236 11.0361 29.4297V28.9141C11.0361 28.7199 10.8787 28.5625 10.6846 28.5625C10.4904 28.5625 10.333 28.7199 10.333 28.9141V29.4297C10.333 30.0112 10.8061 30.4844 11.3877 30.4844H18.7055C18.964 30.4844 19.2221 30.4526 19.473 30.3899L20.5654 30.1168C20.42 30.483 20.4478 30.8911 20.6498 31.2409C20.8847 31.6477 21.3053 31.8906 21.7751 31.8906H32.3058C32.7756 31.8906 33.1963 31.6477 33.4312 31.2408C33.5761 30.9899 33.6313 30.7089 33.5974 30.4349C34.0235 30.2994 34.3331 29.9 34.3331 29.4296V26.5274C34.3331 26.3332 34.1756 26.1759 33.9815 26.1759C33.7873 26.1759 33.6299 26.3332 33.6299 26.5274V29.4297C33.6299 29.604 33.5023 29.7486 33.3357 29.7761L32.458 28.2559V19.8467L33.3693 20.0908C33.5227 20.132 33.6299 20.2716 33.6299 20.4304V25.1212C33.6299 25.3154 33.7873 25.4728 33.9814 25.4728ZM32.916 16.6464C32.9629 16.7277 32.9755 16.8225 32.9511 16.9132L32.3667 19.0943L24.0908 16.8767V14.1751L32.7026 16.4826C32.7933 16.5069 32.8691 16.5651 32.916 16.6464ZM21.2783 13.4215L23.3877 13.9867V16.6884L21.2783 16.1231V13.4215ZM22.3124 20.9733L21.2783 20.6963V16.8511L23.3877 17.4163V22.7153C23.3877 22.9095 23.5451 23.0668 23.7393 23.0668C23.9334 23.0668 24.0908 22.9095 24.0908 22.7153V17.6046L28.4237 18.7656H25.7783C25.5842 18.7656 25.4268 18.923 25.4268 19.1172V21.6674L21.2783 28.8527V21.4241L22.1305 21.6525C22.1609 21.6607 22.1915 21.6646 22.2217 21.6646C22.3769 21.6646 22.519 21.561 22.5611 21.4039C22.6113 21.2163 22.5 21.0236 22.3124 20.9733ZM32.8222 30.8893C32.7145 31.076 32.5214 31.1875 32.3058 31.1875H21.7751C21.5595 31.1875 21.3664 31.076 21.2587 30.8893C21.1509 30.7027 21.1509 30.4797 21.2587 30.293L26.524 21.1731C26.6318 20.9865 26.8249 20.875 27.0405 20.875C27.2561 20.875 27.4491 20.9865 27.5569 21.1731L32.8222 30.293C32.93 30.4797 32.93 30.7026 32.8222 30.8893ZM30.6323 25.0938H30.7002C30.8944 25.0938 31.0518 24.9364 31.0518 24.7422C31.0518 24.548 30.8944 24.3906 30.7002 24.3906H30.2314C30.2298 24.3906 30.2282 24.3909 30.2265 24.3909L29.8204 23.6875H31.7549V27.0381L30.6323 25.0938ZM31.7549 22.9844H29.4145L29.0085 22.2812H30.2314C30.4256 22.2812 30.583 22.1239 30.583 21.9297C30.583 21.7355 30.4256 21.5781 30.2314 21.5781H28.6026L28.1966 20.875H30.2314C30.4256 20.875 30.583 20.7176 30.583 20.5234C30.583 20.3292 30.4256 20.1719 30.2314 20.1719C30.2314 20.1719 27.0727 20.1719 27.0404 20.1719C26.6909 20.1719 26.3688 20.3065 26.1299 20.5429V19.4688H31.0477L31.7549 19.6582V22.9844Z" fill="black"/>
<path d="M27.04 27.8434C27.2342 27.8434 27.3916 27.686 27.3916 27.4918V24.0625C27.3916 23.8683 27.2342 23.7109 27.04 23.7109C26.8459 23.7109 26.6885 23.8683 26.6885 24.0625V27.4918C26.6885 27.686 26.8459 27.8434 27.04 27.8434Z" fill="black"/>
<path d="M27.04 28.7812C26.8333 28.7812 26.665 28.9495 26.665 29.1562C26.665 29.363 26.8333 29.5312 27.04 29.5312C27.2468 29.5312 27.415 29.363 27.415 29.1562C27.415 28.9495 27.2468 28.7812 27.04 28.7812Z" fill="black"/>
</g>
<defs>
<clipPath id="clip0_325_14987">
<rect width="24" height="24" fill="white" transform="translate(10.333 10)"/>
</clipPath>
</defs>
</svg>
