<svg width="45" height="44" viewBox="0 0 45 44" fill="none" xmlns="http://www.w3.org/2000/svg">
<path d="M12.333 0.5H32.333C38.6843 0.5 43.833 5.64873 43.833 12V32C43.833 38.3513 38.6843 43.5 32.333 43.5H12.333C5.98173 43.5 0.833008 38.3513 0.833008 32V12C0.833008 5.64873 5.98173 0.5 12.333 0.5Z" fill="white" fill-opacity="0.8"/>
<path d="M12.333 0.5H32.333C38.6843 0.5 43.833 5.64873 43.833 12V32C43.833 38.3513 38.6843 43.5 32.333 43.5H12.333C5.98173 43.5 0.833008 38.3513 0.833008 32V12C0.833008 5.64873 5.98173 0.5 12.333 0.5Z" stroke="#B9E6FE"/>
<g clip-path="url(#clip0_187_13543)">
<path d="M17.1611 32.7581V20.8796C17.1611 20.5555 17.4239 20.293 17.7478 20.293H21.0508C21.3749 20.293 21.6375 20.5555 21.6375 20.8796V32.7581H17.1611Z" fill="#FF6B6B"/>
<path d="M11.2725 32.7591V17.1728C11.2725 16.8487 11.535 16.5859 11.8591 16.5859H15.1622C15.4861 16.5859 15.7488 16.8487 15.7488 17.1728V32.7591H11.2725Z" fill="#FF6B6B"/>
<path d="M28.9375 32.7601V28.2976C28.9375 27.9735 29.2001 27.7109 29.5242 27.7109H32.8272C33.1511 27.7109 33.4139 27.9735 33.4139 28.2976V32.7601H28.9375Z" fill="#FF6B6B"/>
<path d="M23.0488 32.7572V24.5869C23.0488 24.2628 23.3116 24 23.6357 24H26.9385C27.2626 24 27.5254 24.2628 27.5254 24.5869V32.7572H23.0488Z" fill="#FF6B6B"/>
<path d="M31.5355 23.9588L29.5155 24.0022C29.3373 24.006 29.228 23.8081 29.3263 23.6594L29.6944 23.102L13.1497 12.1761C12.928 12.0297 12.8668 11.731 13.0133 11.5091C13.16 11.2873 13.4584 11.2262 13.6804 11.3727L30.225 22.2986L30.5931 21.7412C30.6912 21.5925 30.9163 21.6152 30.9827 21.7806L31.736 23.6554C31.7935 23.7988 31.6901 23.9555 31.5355 23.9588Z" fill="#E4EAF8"/>
<path d="M19.1533 20.293H17.7468C17.4229 20.293 17.1602 20.5557 17.1602 20.8796V32.7581H18.5664V20.8796C18.5664 20.5555 18.8292 20.293 19.1533 20.293Z" fill="#EE5253"/>
<path d="M13.2646 16.5859H11.8583C11.5342 16.5859 11.2715 16.8487 11.2715 17.1728V32.7591H12.6779V17.1728C12.6779 16.8487 12.9405 16.5859 13.2646 16.5859Z" fill="#EE5253"/>
<path d="M30.9304 27.7109H29.5242C29.2001 27.7109 28.9375 27.9737 28.9375 28.2976V32.7601H30.3438V28.2976C30.3438 27.9735 30.6065 27.7109 30.9304 27.7109Z" fill="#EE5253"/>
<path d="M25.0419 24H23.6357C23.3116 24 23.0488 24.2628 23.0488 24.5869V32.7572H24.4553V24.5869C24.4553 24.2628 24.7178 24 25.0419 24Z" fill="#EE5253"/>
<path d="M33.9814 32.4034H33.7555V31.0508C33.7555 30.8566 33.598 30.6993 33.4039 30.6993C33.2097 30.6993 33.0522 30.8566 33.0522 31.0508V32.4034H29.2789V28.2925C29.2789 28.1629 29.3844 28.0574 29.5142 28.0574H32.8171C32.9469 28.0574 33.0524 28.1629 33.0524 28.2925V29.4102C33.0524 29.6043 33.2097 29.7618 33.4039 29.7618C33.598 29.7618 33.7555 29.6043 33.7555 29.4102V28.2925C33.7555 27.7753 33.3345 27.3543 32.8171 27.3543H29.5142C28.9968 27.3543 28.5758 27.7753 28.5758 28.2925V32.4034H27.867V24.5847C27.867 24.0674 27.4462 23.6464 26.9288 23.6464H26.0977C25.9034 23.6464 25.7461 23.8037 25.7461 23.998C25.7461 24.1921 25.9034 24.3495 26.0977 24.3495H26.9288C27.0584 24.3495 27.1639 24.455 27.1639 24.5847V32.4034H23.3906V24.5847C23.3906 24.455 23.4961 24.3495 23.6257 24.3495H24.4568C24.6511 24.3495 24.8084 24.1921 24.8084 23.998C24.8084 23.8037 24.6511 23.6464 24.4568 23.6464H23.6257C23.1085 23.6464 22.6875 24.0672 22.6875 24.5847V32.4034H21.9787V20.8768C21.9787 20.3593 21.5577 19.9384 21.0405 19.9384H17.7374C17.22 19.9384 16.799 20.3593 16.799 20.8768V32.4034H16.0902V17.1687C16.0902 16.6514 15.6694 16.2305 15.152 16.2305H11.8489C11.3315 16.2305 10.9105 16.6514 10.9105 17.1687V32.4034H10.6846C10.4903 32.4034 10.333 32.5607 10.333 32.755C10.333 32.9493 10.4903 33.1066 10.6846 33.1066H33.9814C34.1757 33.1066 34.333 32.9493 34.333 32.755C34.333 32.5607 34.1755 32.4034 33.9814 32.4034ZM11.6138 32.4034V17.1687C11.6138 17.0391 11.7193 16.9336 11.8489 16.9336H15.152C15.2816 16.9336 15.3871 17.0391 15.3871 17.1687V32.4034H11.6138ZM17.5021 32.4034V20.8768C17.5021 20.7469 17.6076 20.6415 17.7374 20.6415H21.0405C21.1701 20.6415 21.2756 20.7469 21.2756 20.8768V32.4034H17.5021Z" fill="black"/>
<path d="M29.5009 24.3495C29.5052 24.3495 29.5094 24.3494 29.5136 24.3494L31.5336 24.306C31.9333 24.2975 32.2018 23.891 32.0525 23.5201L31.2992 21.6453C31.1269 21.2164 30.5437 21.1591 30.2901 21.5431L30.1158 21.8073L13.8645 11.0751C13.4812 10.8221 12.9636 10.9279 12.7104 11.3111C12.4568 11.6951 12.5622 12.2115 12.9466 12.4651L29.1977 23.1973L29.0234 23.4613C28.7722 23.8416 29.0456 24.3495 29.5009 24.3495ZM13.334 11.8784C13.2741 11.8389 13.2578 11.7585 13.2972 11.6986C13.3366 11.6389 13.4171 11.6224 13.477 11.6618L30.0217 22.5877C30.1837 22.6946 30.4018 22.6501 30.5088 22.4881L30.7397 22.1385L31.3298 23.607L29.7474 23.6411L29.9783 23.2914C30.0852 23.1297 30.0407 22.9114 29.8787 22.8043L13.334 11.8784Z" fill="black"/>
</g>
<defs>
<clipPath id="clip0_187_13543">
<rect width="24" height="24" fill="white" transform="translate(10.333 10)"/>
</clipPath>
</defs>
</svg>
