<svg width="45" height="45" viewBox="0 0 45 45" fill="none" xmlns="http://www.w3.org/2000/svg">
<path d="M16.333 1H28.333C36.8934 1 43.833 7.93959 43.833 16.5V28.5C43.833 37.0604 36.8934 44 28.333 44H16.333C7.77259 44 0.833008 37.0604 0.833008 28.5V16.5C0.833008 7.93959 7.77259 1 16.333 1Z" fill="#FDFDFD"/>
<path d="M16.333 1H28.333C36.8934 1 43.833 7.93959 43.833 16.5V28.5C43.833 37.0604 36.8934 44 28.333 44H16.333C7.77259 44 0.833008 37.0604 0.833008 28.5V16.5C0.833008 7.93959 7.77259 1 16.333 1Z" stroke="#FDA29B"/>
<g clip-path="url(#clip0_325_6309)">
<path d="M33.5117 27.7887L25.3789 13.7022C24.7713 12.65 23.6353 11.9414 22.333 11.9414C21.0307 11.9414 19.8947 12.65 19.2872 13.7022L11.1543 27.7887C10.8561 28.3053 10.6846 28.9042 10.6846 29.5435C10.6846 31.4851 12.2586 33.0591 14.2002 33.0591H30.4658C32.4074 33.0591 33.9814 31.4851 33.9814 29.5435C33.9814 28.9042 33.8099 28.3053 33.5117 27.7887Z" fill="#525A61"/>
<path d="M31.888 28.7255L23.7552 14.6391C23.4697 14.1445 22.9461 13.8323 22.3799 13.8164L29.2958 31.1836H30.4658C31.3705 31.1836 32.1064 30.4472 32.1064 29.543C32.1064 29.2515 32.0329 28.9767 31.888 28.7255Z" fill="#FFB751"/>
<path d="M30.5132 28.7264C30.6374 28.9777 30.7002 29.2523 30.7002 29.5439C30.7002 30.4481 30.0702 31.1845 29.2958 31.1845H14.2002C13.2955 31.1845 12.5596 30.4481 12.5596 29.5439C12.5596 29.2523 12.6332 28.9777 12.778 28.7264L20.9108 14.64C21.2043 14.1319 21.7489 13.8164 22.333 13.8164C22.3485 13.8164 22.3644 13.8169 22.3799 13.8173C22.8618 13.8361 23.3075 14.1478 23.5504 14.64L30.5132 28.7264Z" fill="#FFD764"/>
<path d="M22.333 26.9648V29.3086C22.9804 29.3086 23.5049 28.7841 23.5049 28.1367C23.5049 27.4894 22.9804 26.9648 22.333 26.9648Z" fill="#3B4145"/>
<path d="M22.333 26.9648C22.4624 26.9648 22.5674 27.4894 22.5674 28.1367C22.5674 28.7841 22.4624 29.3086 22.333 29.3086C21.6857 29.3086 21.1611 28.7841 21.1611 28.1367C21.1611 27.4894 21.6857 26.9648 22.333 26.9648Z" fill="#525A61"/>
<path d="M22.333 16.8867V25.5586C22.9804 25.5586 23.5049 25.0336 23.5049 24.3867V18.0586C23.5049 17.4113 22.9804 16.8867 22.333 16.8867Z" fill="#3B4145"/>
<path d="M22.333 16.8867C22.4624 16.8867 22.5674 17.4112 22.5674 18.0586V24.3867C22.5674 25.0336 22.4624 25.5586 22.333 25.5586C21.6857 25.5586 21.1611 25.0336 21.1611 24.3867V18.0586C21.1611 17.4112 21.6857 16.8867 22.333 16.8867Z" fill="#525A61"/>
<path d="M33.8162 27.6129L25.6833 13.5263C24.9935 12.3319 23.7098 11.5898 22.333 11.5898C20.9562 11.5898 19.6725 12.3319 18.9827 13.5264L10.8499 27.6129C10.5117 28.1986 10.333 28.8661 10.333 29.5434C10.333 31.6758 12.0679 33.4106 14.2002 33.4106H30.4658C32.5982 33.4106 34.333 31.6758 34.333 29.5434C34.333 28.8661 34.1543 28.1986 33.8162 27.6129ZM30.4658 32.7075H14.2002C12.4555 32.7075 11.0361 31.2881 11.0361 29.5434C11.0361 28.9894 11.1823 28.4434 11.4588 27.9645L19.5917 13.8779C20.1562 12.9003 21.2066 12.293 22.333 12.293C23.4594 12.293 24.5098 12.9003 25.0744 13.878L33.2072 27.9645C33.4837 28.4435 33.6299 28.9894 33.6299 29.5435C33.6299 31.2881 32.2105 32.7075 30.4658 32.7075Z" fill="black"/>
<path d="M24.0596 14.4639C23.7037 13.8477 23.0421 13.4648 22.333 13.4648C21.6239 13.4648 20.9623 13.8476 20.6065 14.4639L16.8916 20.8983C16.7945 21.0664 16.8521 21.2814 17.0203 21.3785C17.1885 21.4755 17.4034 21.4179 17.5005 21.2498L21.2154 14.8155C21.446 14.4161 21.8743 14.168 22.333 14.168C22.7917 14.168 23.22 14.4161 23.4506 14.8155L31.5835 28.902C31.6972 29.099 31.7549 29.3149 31.7549 29.5435C31.7549 30.2543 31.1766 30.8326 30.4658 30.8326H14.2002C13.4894 30.8326 12.9111 30.2543 12.9111 29.5435C12.9111 29.3149 12.9688 29.0991 13.0826 28.902L16.7974 22.4676C16.8945 22.2995 16.8369 22.0845 16.6687 21.9874C16.5004 21.8903 16.2855 21.9479 16.1885 22.116L12.4736 28.5504C12.2974 28.8557 12.208 29.1898 12.208 29.5435C12.208 30.642 13.1017 31.5357 14.2002 31.5357H30.4658C31.5643 31.5357 32.458 30.642 32.458 29.5435C32.458 29.1898 32.3687 28.8557 32.1924 28.5504L24.0596 14.4639Z" fill="black"/>
<path d="M22.333 25.9102C23.1731 25.9102 23.8564 25.2268 23.8564 24.3867V18.0586C23.8564 17.2185 23.1731 16.5352 22.333 16.5352C21.493 16.5352 20.8096 17.2185 20.8096 18.0586V24.3867C20.8096 25.2268 21.493 25.9102 22.333 25.9102ZM21.5127 18.0586C21.5127 17.6063 21.8807 17.2383 22.333 17.2383C22.7853 17.2383 23.1533 17.6063 23.1533 18.0586V24.3867C23.1533 24.839 22.7853 25.207 22.333 25.207C21.8807 25.207 21.5127 24.839 21.5127 24.3867V18.0586Z" fill="black"/>
<path d="M22.333 29.6602C23.1731 29.6602 23.8564 28.9768 23.8564 28.1367C23.8564 27.2967 23.1731 26.6133 22.333 26.6133C21.493 26.6133 20.8096 27.2967 20.8096 28.1367C20.8096 28.9768 21.493 29.6602 22.333 29.6602ZM22.333 27.3164C22.7853 27.3164 23.1533 27.6844 23.1533 28.1367C23.1533 28.589 22.7853 28.957 22.333 28.957C21.8807 28.957 21.5127 28.589 21.5127 28.1367C21.5127 27.6844 21.8807 27.3164 22.333 27.3164Z" fill="black"/>
</g>
<defs>
<clipPath id="clip0_325_6309">
<rect width="24" height="24" fill="white" transform="translate(10.333 10.5)"/>
</clipPath>
</defs>
</svg>
