<svg width="45" height="44" viewBox="0 0 45 44" fill="none" xmlns="http://www.w3.org/2000/svg">
<path d="M12.667 0.5H32.667C39.0183 0.5 44.167 5.64873 44.167 12V32C44.167 38.3513 39.0183 43.5 32.667 43.5H12.667C6.31572 43.5 1.16699 38.3513 1.16699 32V12C1.16699 5.64873 6.31572 0.5 12.667 0.5Z" fill="white" fill-opacity="0.8"/>
<path d="M12.667 0.5H32.667C39.0183 0.5 44.167 5.64873 44.167 12V32C44.167 38.3513 39.0183 43.5 32.667 43.5H12.667C6.31572 43.5 1.16699 38.3513 1.16699 32V12C1.16699 5.64873 6.31572 0.5 12.667 0.5Z" stroke="#FECDCA"/>
<g clip-path="url(#clip0_187_13524)">
<path d="M27.7522 25.6491C24.1335 25.6491 21.1895 22.7051 21.1895 19.0863C21.1895 15.4676 24.1334 12.5234 27.7521 12.5234C31.3709 12.5234 34.315 15.4676 34.315 19.0863C34.315 22.7051 31.3709 25.6491 27.7522 25.6491Z" fill="#F20004"/>
<path d="M27.7523 23.9463C25.0715 23.9463 22.8906 21.7654 22.8906 19.0845C22.8906 16.4037 25.0714 14.2227 27.7522 14.2227C30.433 14.2227 32.614 16.4037 32.614 19.0845C32.614 21.7654 30.4331 23.9463 27.7523 23.9463Z" fill="#FFF9DF"/>
<path d="M27.7529 12.5234C27.5714 12.5234 27.3917 12.5312 27.2139 12.5458C30.5814 12.8209 33.2376 15.649 33.2376 19.0862C33.2376 22.5235 30.5814 25.3517 27.2139 25.6268C27.3917 25.6413 27.5714 25.649 27.7529 25.649C31.3716 25.649 34.3157 22.705 34.3157 19.0863C34.3157 15.4675 31.3716 12.5234 27.7529 12.5234Z" fill="#E30509"/>
<path d="M11.0186 20.1998V29.5936C11.0186 29.8533 11.2291 30.0638 11.4888 30.0638H21.6933V20.1998C21.6933 20.07 21.588 19.9648 21.4581 19.9648H11.2538C11.1239 19.9648 11.0186 20.07 11.0186 20.1998Z" fill="#FEAD8A"/>
<path d="M21.458 19.9648H20.2861C20.416 19.9648 20.5212 20.07 20.5212 20.1998V30.0637H21.6931V20.1998C21.6932 20.07 21.5879 19.9648 21.458 19.9648Z" fill="#FD9468"/>
<path d="M11.0186 27.9141V29.5946C11.0186 29.8543 11.2291 30.0648 11.4888 30.0648H21.6933V27.9141H11.0186V27.9141Z" fill="#FFE177"/>
<path d="M20.5215 27.9141H21.6934V30.0647H20.5215V27.9141Z" fill="#FEC165"/>
<path d="M21.6934 21.332H26.5347C26.858 21.332 27.1504 21.524 27.2787 21.8207L28.5611 24.7844L29.7917 25.8257C30.0852 26.074 30.2546 26.4391 30.2546 26.8235V29.83C30.2546 29.9598 30.1493 30.065 30.0194 30.065H21.6934V21.332Z" fill="#62FB86"/>
<path d="M29.7912 25.8257L28.5605 24.7844L27.2782 21.8207C27.1498 21.524 26.8575 21.332 26.5342 21.332H25.3623C25.6856 21.332 25.9781 21.524 26.1064 21.8208L27.3887 24.7845L28.6194 25.8258C28.9129 26.0741 29.0822 26.4391 29.0822 26.8236V29.83C29.0822 29.9599 28.9769 30.0651 28.8471 30.0651H30.0189C30.1488 30.0651 30.2541 29.9599 30.2541 29.8301V26.8236C30.2541 26.4391 30.0847 26.074 29.7912 25.8257Z" fill="#01FB2B"/>
<path d="M26.028 24.7842H28.5609L27.696 22.7852H26.028C25.8982 22.7852 25.793 22.8904 25.793 23.0203V24.5491C25.793 24.6789 25.8982 24.7842 26.028 24.7842Z" fill="#3ABC36"/>
<path d="M27.8403 23.1181L27.6963 22.7852H26.5244L27.3893 24.7842H28.5612L27.8403 23.1181Z" fill="#06AF2D"/>
<path d="M24.4766 23.0202V24.5491C24.4766 24.6789 24.3713 24.7841 24.2415 24.7841H23.2888C23.1589 24.7841 23.0537 24.6789 23.0537 24.5491V23.0202C23.0537 22.8904 23.1589 22.7852 23.2888 22.7852H24.2415C24.3713 22.7851 24.4766 22.8904 24.4766 23.0202Z" fill="#3ABC36"/>
<path d="M26.1244 31.4753C24.9261 31.4753 23.9512 30.5004 23.9512 29.3021C23.9512 28.1038 24.9261 27.1289 26.1244 27.1289C27.3227 27.1289 28.2976 28.1038 28.2976 29.3021C28.2976 30.5004 27.3227 31.4753 26.1244 31.4753Z" fill="#3ABC36"/>
<path d="M26.1239 28.5391C25.7028 28.5391 25.3613 28.8805 25.3613 29.3017C25.3613 29.7228 25.7028 30.0643 26.1239 30.0643C26.5451 30.0643 26.8865 29.7228 26.8865 29.3017C26.8865 28.8805 26.5451 28.5391 26.1239 28.5391Z" fill="#FFF9DF"/>
<path d="M14.8754 31.4753C13.6771 31.4753 12.7021 30.5004 12.7021 29.3021C12.7021 28.1038 13.6771 27.1289 14.8754 27.1289C16.0737 27.1289 17.0485 28.1038 17.0485 29.3021C17.0485 30.5004 16.0736 31.4753 14.8754 31.4753Z" fill="#3ABC36"/>
<path d="M14.8759 28.5391C14.4547 28.5391 14.1133 28.8805 14.1133 29.3017C14.1133 29.7228 14.4547 30.0643 14.8759 30.0643C15.2971 30.0643 15.6385 29.7228 15.6385 29.3017C15.6385 28.8805 15.2971 28.5391 14.8759 28.5391Z" fill="#FFF9DF"/>
<path d="M27.7528 18.1484C27.235 18.1484 26.8154 18.5682 26.8154 19.0859C26.8154 19.6037 27.2351 20.0234 27.7529 20.0234C28.2707 20.0234 28.6904 19.6037 28.6904 19.0859C28.6904 18.5682 28.2705 18.1484 27.7528 18.1484Z" fill="#FE5694"/>
<path d="M15.9091 15.3905L12.436 21.4061C12.2377 21.7497 12.4856 22.1791 12.8823 22.1791H19.8286C20.2253 22.1791 20.4733 21.7497 20.2749 21.4061L16.8018 15.3905C16.6034 15.0469 16.1075 15.0469 15.9091 15.3905Z" fill="#FFE177"/>
<path d="M20.2749 21.4061L16.8018 15.3905C16.6034 15.0469 16.1075 15.0469 15.9092 15.3905L15.7461 15.6729L19.0562 21.4061C19.2545 21.7496 19.0066 22.1791 18.6099 22.1791H19.8286C20.2253 22.1791 20.4733 21.7497 20.2749 21.4061Z" fill="#FEC165"/>
<path d="M28.8349 16.1809C28.966 16.23 29.0053 16.26 29.0999 16.26C29.2367 16.26 29.3667 16.1797 29.4236 16.0459C29.4996 15.8673 29.4163 15.6608 29.2376 15.5848C29.1863 15.563 29.1337 15.542 29.0812 15.5224C28.8994 15.4543 28.6969 15.5466 28.6288 15.7285C28.5608 15.9103 28.653 16.1129 28.8349 16.1809Z" fill="black"/>
<path d="M30.0184 16.9704C30.1507 17.1124 30.3733 17.1202 30.5153 16.9878C30.6573 16.8554 30.6651 16.6329 30.5327 16.4909C30.4938 16.4492 30.4543 16.4086 30.4153 16.3703C30.2769 16.2343 30.0543 16.2362 29.9181 16.3747C29.7821 16.5132 29.7841 16.7358 29.9226 16.8719C29.9543 16.903 29.9865 16.9362 30.0184 16.9704Z" fill="black"/>
<path d="M30.6359 17.9453C30.6526 17.9877 30.6685 18.031 30.6834 18.0742C30.7464 18.2576 30.9463 18.3556 31.1301 18.2924C31.3137 18.2294 31.4114 18.0294 31.3483 17.8457C31.3301 17.7928 31.3105 17.7396 31.2901 17.6876C31.2189 17.5069 31.0147 17.4183 30.8341 17.4894C30.6534 17.5606 30.5647 17.7647 30.6359 17.9453Z" fill="black"/>
<path d="M30.8502 19.219C30.8482 19.2649 30.8452 19.311 30.8412 19.356C30.8231 19.5612 30.9845 19.7385 31.1918 19.7385C31.372 19.7385 31.5254 19.6008 31.5416 19.418C31.5465 19.3627 31.5503 19.3061 31.5527 19.2498C31.5612 19.0559 31.4109 18.8917 31.2169 18.8832C31.0226 18.8745 30.8588 19.025 30.8502 19.219Z" fill="black"/>
<path d="M31.0006 20.3105C30.8269 20.2238 30.6158 20.2945 30.5292 20.4682C30.5088 20.5089 30.4873 20.5498 30.4652 20.5897C30.3709 20.7594 30.4321 20.9735 30.6018 21.0677C30.7712 21.1618 30.9853 21.1012 31.0799 20.9311C31.1071 20.8822 31.1335 20.8319 31.1584 20.7819C31.2451 20.6081 31.1744 20.397 31.0006 20.3105Z" fill="black"/>
<path d="M30.0424 22.1217C30.0872 22.088 30.1318 22.0529 30.1749 22.0173C30.3247 21.8938 30.346 21.6723 30.2224 21.5224C30.0989 21.3726 29.8774 21.3513 29.7275 21.4749C29.6925 21.5037 29.6562 21.5323 29.6197 21.5598C29.4646 21.6765 29.4334 21.8969 29.5502 22.0521C29.6667 22.2071 29.8872 22.2385 30.0424 22.1217Z" fill="black"/>
<path d="M28.5856 22.0714C28.5415 22.0837 28.4968 22.095 28.4526 22.1052C28.2633 22.1487 28.1452 22.3373 28.1887 22.5266C28.2262 22.6893 28.3709 22.7994 28.531 22.7994C28.5912 22.7994 28.6702 22.7776 28.7735 22.749C28.9606 22.6972 29.0702 22.5034 29.0184 22.3163C28.9665 22.1292 28.773 22.0197 28.5856 22.0714Z" fill="black"/>
<path d="M32.59 14.1503C32.4515 14.0144 32.2288 14.0165 32.0929 14.1552C31.9569 14.2938 31.9591 14.5164 32.0978 14.6523C33.3011 15.8321 33.9639 17.4068 33.9639 19.0865C33.9639 20.4966 33.5012 21.8269 32.6259 22.9333C31.8137 23.96 30.6866 24.7112 29.4374 25.0646L28.851 24.5684L28.6974 24.2135C29.804 24.0103 30.8176 23.4521 31.59 22.612C32.4772 21.647 32.9659 20.395 32.9659 19.0864C32.9659 16.2117 30.6272 13.873 27.7525 13.873C24.878 13.873 22.5395 16.2117 22.5395 19.0864C22.5395 19.7343 22.6623 20.3791 22.8964 20.9797H22.045V20.2002C22.045 19.9135 21.8379 19.6746 21.5653 19.624C21.5501 19.4462 21.5415 19.2664 21.5415 19.0864C21.5415 15.6614 24.3277 12.875 27.7525 12.875C28.8377 12.875 29.9061 13.1602 30.8422 13.6999C31.0104 13.7967 31.2254 13.7391 31.3223 13.5709C31.4193 13.4027 31.3616 13.1877 31.1934 13.0907C30.1507 12.4896 28.9608 12.1719 27.7525 12.1719C23.94 12.1719 20.8384 15.2737 20.8384 19.0864C20.8384 19.2627 20.8458 19.4389 20.859 19.6138H19.6463L17.1067 15.215C16.95 14.9436 16.6693 14.7815 16.3559 14.7815C16.0426 14.7815 15.7619 14.9436 15.6051 15.215L13.0655 19.6138H11.2539C10.9303 19.6138 10.667 19.8768 10.667 20.2002V29.5939C10.667 30.047 11.0356 30.4156 11.4887 30.4156H12.6106C13.0229 31.2505 13.883 31.8263 14.8755 31.8263C15.868 31.8263 16.7281 31.2505 17.1405 30.4156H18.4567C18.6509 30.4156 18.8082 30.2582 18.8082 30.064C18.8082 29.8698 18.6509 29.7125 18.4567 29.7125H17.3663C17.3883 29.5787 17.4003 29.4415 17.4003 29.3015C17.4003 28.9322 17.3199 28.5815 17.1768 28.265H21.3419V29.7125H20.0847C19.8905 29.7125 19.7331 29.8698 19.7331 30.064C19.7331 30.2582 19.8905 30.4156 20.0847 30.4156H23.8592C24.2715 31.2505 25.1316 31.8263 26.1242 31.8263C27.1166 31.8263 27.9767 31.2505 28.3891 30.4156H30.0194C30.343 30.4156 30.6063 30.1525 30.6063 29.8292V26.8226C30.6063 26.356 30.411 25.9147 30.0688 25.601C31.283 25.1664 32.3702 24.3898 33.1774 23.3694C34.152 22.1375 34.6671 20.6565 34.6671 19.0864C34.667 17.2164 33.9294 15.4633 32.59 14.1503ZM27.8634 24.0565C27.8638 24.0576 27.8643 24.0586 27.8647 24.0597L28.0258 24.432H26.1446V23.1361H27.4651L27.8634 24.0565ZM23.2426 19.0865C23.2426 16.5995 25.2657 14.5761 27.7525 14.5761C30.2395 14.5761 32.2628 16.5995 32.2628 19.0865C32.2628 20.2183 31.84 21.3013 31.0724 22.1361C30.3666 22.9037 29.4286 23.3986 28.4093 23.5478L27.6013 21.6805C27.4178 21.2548 26.999 20.9797 26.5346 20.9797H23.6601C23.3833 20.386 23.2426 19.7503 23.2426 19.0865ZM16.214 15.5666C16.2552 15.4953 16.3206 15.4847 16.3559 15.4847C16.3912 15.4847 16.4566 15.4954 16.4977 15.5666L19.9709 21.5823C20.012 21.6535 19.9885 21.7155 19.9709 21.746C19.9532 21.7766 19.9113 21.8279 19.829 21.8279H12.8828C12.8005 21.8279 12.7586 21.7766 12.741 21.746C12.7233 21.7155 12.6998 21.6535 12.741 21.5823L16.214 15.5666ZM11.4887 29.7125C11.4233 29.7125 11.3701 29.6593 11.3701 29.594V28.265H12.5743C12.4312 28.5815 12.3508 28.9323 12.3508 29.3016C12.3508 29.4416 12.3627 29.5787 12.3848 29.7125H11.4887ZM14.8755 31.1233C13.8711 31.1233 13.0539 30.306 13.0539 29.3016C13.0539 28.8595 13.2124 28.4538 13.4753 28.138C13.4756 28.1376 13.476 28.1372 13.4763 28.1368C13.8107 27.7358 14.3138 27.4801 14.8755 27.4801C15.4364 27.4801 15.9386 27.735 16.2731 28.1349C16.2754 28.1378 16.278 28.1405 16.2805 28.1434C16.5407 28.4585 16.6972 28.8621 16.6972 29.3017C16.6972 29.5211 16.6582 29.7315 16.5867 29.9265C16.5861 29.9281 16.5855 29.9297 16.5849 29.9313C16.315 30.6214 15.6588 31.1233 14.8755 31.1233ZM16.7026 27.5619C16.2424 27.0789 15.5938 26.777 14.8756 26.777C14.1574 26.777 13.5087 27.0789 13.0486 27.5619H11.3701V20.3169H12.6596L12.132 21.2307C11.9753 21.5021 11.9753 21.8262 12.132 22.0976C12.2887 22.369 12.5693 22.5311 12.8828 22.5311H19.8291C20.1425 22.5311 20.4231 22.369 20.5799 22.0976C20.7366 21.8262 20.7366 21.5021 20.5799 21.2307L20.0523 20.3169H21.3419V27.5619H16.7026ZM26.1241 31.1233C25.1196 31.1233 24.3025 30.306 24.3025 29.3016C24.3025 28.2973 25.1197 27.4801 26.1241 27.4801C27.1286 27.4801 27.9457 28.2973 27.9457 29.3016C27.9457 29.5212 27.9113 29.7335 27.8351 29.9267C27.8347 29.9278 27.8344 29.9288 27.8339 29.9299C27.5631 30.6202 26.9079 31.1233 26.1241 31.1233ZM29.9031 29.7125H28.6149C28.6369 29.5788 28.6489 29.4416 28.6489 29.3016C28.6489 27.9095 27.5163 26.777 26.1242 26.777C24.732 26.777 23.5994 27.9095 23.5994 29.3016C23.5994 29.4416 23.6113 29.5787 23.6334 29.7125H22.045V21.6829H26.5346C26.7181 21.6829 26.8834 21.7912 26.9559 21.9593L27.1608 22.433H26.0281C25.7046 22.433 25.4414 22.6961 25.4414 23.0196V24.5485C25.4414 24.872 25.7046 25.1352 26.0281 25.1352H28.4322L29.5646 26.0932C29.7797 26.2751 29.9031 26.5409 29.9031 26.8227V29.7125Z" fill="black"/>
<path d="M24.2415 22.4336H23.2888C22.9654 22.4336 22.7021 22.6967 22.7021 23.0203V24.5491C22.7021 24.8725 22.9653 25.1357 23.2888 25.1357H24.2415C24.565 25.1357 24.8282 24.8726 24.8282 24.5491V23.0203C24.8282 22.6967 24.565 22.4336 24.2415 22.4336ZM24.1251 24.4326H23.4053V23.1367H24.1251V24.4326Z" fill="black"/>
<path d="M26.1239 28.1875C25.5096 28.1875 25.0098 28.6873 25.0098 29.3017C25.0098 29.9161 25.5095 30.4159 26.1239 30.4159C26.7383 30.4159 27.2382 29.9161 27.2382 29.3017C27.2382 28.6873 26.7383 28.1875 26.1239 28.1875ZM26.1239 29.7127C25.8973 29.7127 25.7129 29.5283 25.7129 29.3016C25.7129 29.075 25.8973 28.8906 26.1239 28.8906C26.3506 28.8906 26.535 29.075 26.535 29.3016C26.535 29.5283 26.3506 29.7127 26.1239 29.7127Z" fill="black"/>
<path d="M14.8759 28.1875C14.2615 28.1875 13.7617 28.6873 13.7617 29.3017C13.7617 29.9161 14.2615 30.4159 14.8759 30.4159C15.4903 30.4159 15.9901 29.9161 15.9901 29.3017C15.9901 28.6873 15.4903 28.1875 14.8759 28.1875ZM14.8759 29.7127C14.6492 29.7127 14.4648 29.5283 14.4648 29.3016C14.4648 29.075 14.6492 28.8906 14.8759 28.8906C15.1025 28.8906 15.2869 29.075 15.2869 29.3016C15.2869 29.5283 15.1025 29.7127 14.8759 29.7127Z" fill="black"/>
<path d="M27.7529 20.3741C28.4637 20.3741 29.042 19.7958 29.042 19.085C29.042 18.4961 28.6448 17.9985 28.1044 17.8451V15.5469C28.1044 15.3527 27.947 15.1953 27.7528 15.1953C27.5586 15.1953 27.4012 15.3527 27.4012 15.5469V17.8451C26.8609 17.9986 26.4639 18.4962 26.4639 19.0851C26.4639 19.7958 27.0422 20.3741 27.7529 20.3741ZM27.7528 18.4991C28.076 18.4991 28.3389 18.7619 28.3389 19.085C28.3389 19.4082 28.076 19.671 27.7529 19.671C27.4298 19.671 27.167 19.4082 27.167 19.085C27.167 18.7619 27.4298 18.4991 27.7528 18.4991Z" fill="black"/>
<path d="M16.3555 21.1523C16.5497 21.1523 16.707 20.995 16.707 20.8008V20.707C16.707 20.5128 16.5497 20.3555 16.3555 20.3555C16.1613 20.3555 16.0039 20.5128 16.0039 20.707V20.8008C16.0039 20.995 16.1613 21.1523 16.3555 21.1523Z" fill="black"/>
<path d="M16.3555 19.8164C16.5497 19.8164 16.707 19.659 16.707 19.4648V17.8711C16.707 17.6769 16.5497 17.5195 16.3555 17.5195C16.1613 17.5195 16.0039 17.6769 16.0039 17.8711V19.4648C16.0039 19.659 16.1613 19.8164 16.3555 19.8164Z" fill="black"/>
</g>
<defs>
<clipPath id="clip0_187_13524">
<rect width="24" height="24" fill="white" transform="translate(10.667 10)"/>
</clipPath>
</defs>
</svg>
