<svg width="45" height="45" viewBox="0 0 45 45" fill="none" xmlns="http://www.w3.org/2000/svg">
<path d="M16.667 1H28.667C37.2274 1 44.167 7.93959 44.167 16.5V28.5C44.167 37.0604 37.2274 44 28.667 44H16.667C8.10658 44 1.16699 37.0604 1.16699 28.5V16.5C1.16699 7.93959 8.10658 1 16.667 1Z" fill="#FDFDFD"/>
<path d="M16.667 1H28.667C37.2274 1 44.167 7.93959 44.167 16.5V28.5C44.167 37.0604 37.2274 44 28.667 44H16.667C8.10658 44 1.16699 37.0604 1.16699 28.5V16.5C1.16699 7.93959 8.10658 1 16.667 1Z" stroke="#F6D0FE"/>
<g clip-path="url(#clip0_325_4333)">
<path d="M32.0024 14.1727C31.722 14.2302 31.3193 14.0647 31.0822 13.953C30.6809 12.4667 29.4254 11.3026 27.6462 11.3026C27.5506 11.3026 27.2646 11.1875 27.2646 11.1875C26.8801 11.2132 26.5116 11.2905 26.1678 11.4121C25.2054 11.7517 24.4359 12.4358 24.0473 13.2953C24.0161 13.3643 23.936 13.3954 23.8658 13.3668C23.5292 13.2296 23.1555 13.1529 22.7617 13.1529C21.2827 13.1529 20.0836 14.2294 20.0836 15.5573C20.0836 15.6965 20.0975 15.8327 20.1228 15.9654C19.4591 16.3668 19.0225 17.0477 19.0225 17.8202C19.0225 19.0544 20.1369 20.055 21.5115 20.055C21.7613 20.055 22.0022 20.0215 22.2297 19.9601C22.7092 20.6091 23.53 21.0372 24.4625 21.0372C25.2017 21.0372 25.871 20.7683 26.3556 20.3334C26.5982 20.5258 26.8313 20.6391 27.0817 20.7056C27.0601 20.7166 27.0387 20.7275 27.0155 20.7382C27.4337 20.9298 27.9018 21.0372 28.3963 21.0372C29.4739 20.8589 30.4665 20.2745 31.0387 19.4344C31.5862 19.0908 31.9704 19.2855 31.9704 19.2855C33.2714 18.8961 33.9537 17.9711 33.9537 16.6722C33.9538 15.3584 33.3263 14.5501 32.0024 14.1727Z" fill="#9F9D9C"/>
<path d="M34.253 16.7034C34.253 18.0027 33.315 19.1044 32.0139 19.4939C32.0139 19.4939 31.6295 19.2991 31.0823 19.6429C30.5099 20.4827 29.5211 21.039 28.3965 21.039C28.3769 21.039 28.3572 21.039 28.338 21.0381C29.8791 19.9272 30.856 18.2769 30.856 16.4341C30.856 14.1937 29.4114 12.2371 27.2646 11.1893C27.3584 11.1829 27.453 11.1797 27.5485 11.1797C29.3277 11.1797 30.8185 12.2846 31.2199 13.7708C31.4567 13.8828 31.6894 13.9578 31.9701 13.9007C33.2939 14.2778 34.253 15.3896 34.253 16.7034Z" fill="#81807F"/>
<path d="M26.1675 18.6946C26.1294 18.6869 25.9835 18.5951 25.945 18.5887C25.8319 18.3161 25.7441 17.9986 25.7441 17.9986C25.3687 17.0585 24.6973 16.2733 23.6229 16.2733C23.3705 16.2733 23.2207 16.2669 22.9905 16.3357C22.9351 16.3522 22.8647 16.2834 22.8198 16.254C22.788 16.233 22.7624 16.2019 22.7479 16.1633C22.2205 14.7679 20.8095 13.7695 19.1513 13.7695C18.6159 13.7681 18.103 13.8745 17.6363 14.0677C16.5027 14.5356 15.6427 15.5117 15.4012 16.6908C15.6042 16.9828 15.4884 17.1868 15.3324 17.3996C13.0068 17.1496 10.8257 18.8553 10.8468 20.9881C10.8468 22.9816 12.6623 24.5975 14.9016 24.5975C15.58 24.5975 16.2193 24.4488 16.7811 24.1863C16.9734 23.8927 17.0575 23.8286 17.4159 23.8189C18.1786 24.5611 19.3437 25.0352 20.6495 25.0352C20.9514 25.0352 21.2457 25.0098 21.5294 24.9617C22.4548 24.5277 23.3422 24.085 23.9327 23.4693C24.2116 23.3935 24.5173 23.5835 24.6587 23.9213C24.7524 23.9556 25.3357 24.0596 25.6172 24.0596C27.3064 24.0596 28.3428 23.0195 28.3428 21.4234C28.3428 20.0343 27.55 18.972 26.1675 18.6946Z" fill="#81807F"/>
<path d="M28.7807 21.3646C28.7807 22.9604 27.412 24.2547 25.7223 24.2547C25.4412 24.2547 25.1678 24.2186 24.9091 24.1509H24.9086C24.8108 24.1253 24.7152 24.0951 24.6215 24.0608C24.4798 23.723 24.2493 23.6567 23.9705 23.7326C23.3799 24.3479 22.5199 24.7946 21.5293 24.9623C23.031 23.7006 23.9705 21.9003 23.9705 19.9013C23.9705 18.5628 23.549 17.3134 22.8198 16.2551C22.8647 16.2843 22.9218 16.2939 22.9771 16.2775C23.2075 16.2084 23.4521 16.1719 23.7044 16.1719C24.7787 16.1719 25.6976 16.8357 26.0729 17.776C26.0729 17.776 26.0158 18.1541 26.1287 18.4265C26.1671 18.433 26.3129 18.5248 26.3513 18.5322C27.7338 18.8096 28.7807 19.9753 28.7807 21.3646Z" fill="#6D6D6D"/>
<path d="M33.6375 23.4827L33.0562 23.4323H32.5602C32.5524 23.4314 32.5401 23.4299 32.5323 23.429C32.4822 23.4154 32.3925 23.3648 32.4104 23.3145L32.7848 21.785L32.2858 21.4883H31.5765C31.4564 21.4883 31.3496 21.5645 31.3105 21.6779L30.3526 24.4594C30.2931 24.6329 30.4217 24.8134 30.6049 24.8134H31.8166C31.8747 24.8134 31.9175 24.8679 31.9037 24.9244L31.513 26.527L31.4679 26.9961C31.4219 27.1847 31.6669 27.3014 31.7843 27.1468L33.9874 24.1896C34.2081 23.8999 34.0014 23.4827 33.6375 23.4827Z" fill="#FFCF57"/>
<path d="M32.4732 23.3126L33.0343 21.7387C33.0779 21.6166 32.9873 21.4883 32.8577 21.4883H32.2865L31.6361 23.3126C31.6155 23.3709 31.6585 23.4324 31.7207 23.4324H32.5578C32.4956 23.4325 32.4525 23.3709 32.4732 23.3126Z" fill="#FFB948"/>
<path d="M34.1642 24.1403L31.6374 27.4665C31.52 27.621 31.2751 27.5045 31.3211 27.3158L31.5134 26.5281L33.3271 24.1403C33.5474 23.8506 33.3409 23.4336 32.9771 23.4336H33.8142C34.178 23.4335 34.3846 23.8506 34.1642 24.1403Z" fill="#FFB948"/>
<path d="M16.7126 22.6567C16.7707 22.4881 16.9296 22.375 17.1076 22.375H19.058C19.2476 22.375 19.3796 22.5622 19.3158 22.7404L18.1206 26.1418C18.092 26.2219 18.2377 26.3025 18.3154 26.3222C18.3265 26.325 18.3382 26.3265 18.3503 26.3265H19.1331L20.0446 26.4055C20.6151 26.4055 20.9392 27.0596 20.5934 27.5138L17.139 32.1505C16.9549 32.3928 16.5707 32.2099 16.6428 31.9142L16.7136 31.1786L17.3262 28.6658C17.3478 28.5773 17.2807 28.4919 17.1895 28.4919H15.2897C15.0025 28.4919 14.8009 28.2089 14.8941 27.9368L16.7126 22.6567Z" fill="#FFCF57"/>
<path d="M16.9056 26.1386L18.1174 22.7402C18.1811 22.562 18.0494 22.375 17.8596 22.375H19.1721C19.3619 22.375 19.4936 22.562 19.4299 22.7402L18.2181 26.1386C18.1858 26.23 18.2533 26.3266 18.3508 26.3266H17.0383C16.9408 26.3266 16.8733 26.23 16.9056 26.1386Z" fill="#FFB948"/>
<path d="M20.87 27.4362L16.9082 32.6515C16.724 32.8939 16.3401 32.711 16.4122 32.4153L16.7136 31.1801L19.5575 27.4362C19.903 26.982 19.5791 26.3281 19.0086 26.3281H20.3211C20.8916 26.3281 21.2155 26.982 20.87 27.4362Z" fill="#FFB948"/>
<path d="M20.4269 22.5474C19.8622 22.8618 19.1661 23.0474 18.4132 23.0474C17.3157 23.0474 16.3391 22.6531 15.7139 22.0401C15.7139 22.0401 16.0218 20.4881 18.2399 20.799C20.458 21.1098 20.4269 22.5474 20.4269 22.5474Z" fill="#81807F"/>
<path d="M30.2585 28.0245C30.0757 27.9592 29.8745 28.0546 29.8093 28.2375L28.6289 31.5469C28.615 31.586 28.6084 31.626 28.6084 31.6652C28.6085 31.8096 28.6982 31.9448 28.8419 31.9961C28.881 32.01 28.9208 32.0166 28.9601 32.0166C29.1045 32.0166 29.2399 31.9269 29.2912 31.7831L30.4715 28.4737C30.4855 28.4346 30.4921 28.3946 30.4921 28.3554C30.4919 28.211 30.4022 28.0757 30.2585 28.0245Z" fill="black"/>
<path d="M28.3068 25.0831C28.124 25.0177 27.9228 25.1132 27.8576 25.2961L24.8604 33.6995C24.7951 33.8824 24.8905 34.0835 25.0734 34.1487C25.1124 34.1627 25.1523 34.1693 25.1915 34.1693C25.3359 34.1693 25.4713 34.0795 25.5226 33.9357L28.5199 25.5323C28.5851 25.3494 28.4897 25.1483 28.3068 25.0831Z" fill="black"/>
<path d="M19.8664 31.3369C19.6835 31.2717 19.4824 31.3671 19.4172 31.5499L18.6494 33.7024C18.5842 33.8853 18.6796 34.0864 18.8624 34.1516C18.9015 34.1655 18.9413 34.1722 18.9806 34.1722C19.125 34.1722 19.2604 34.0824 19.3117 33.9386L20.0794 31.7861C20.1446 31.6033 20.0492 31.4021 19.8664 31.3369Z" fill="black"/>
<path d="M14.3249 29.4581C14.142 29.3927 13.9409 29.4882 13.8756 29.6711L12.4385 33.7004C12.3733 33.8833 12.4686 34.0844 12.6515 34.1496C12.6906 34.1635 12.7304 34.1701 12.7696 34.1701C12.9141 34.1701 13.0495 34.0804 13.1008 33.9366L14.5379 29.9073C14.6031 29.7244 14.5077 29.5233 14.3249 29.4581Z" fill="black"/>
<path d="M33.8532 23.1338H32.9385L33.3241 22.0147C33.3906 21.8218 33.3595 21.6074 33.241 21.4412C33.1225 21.275 32.9299 21.1758 32.7258 21.1758H31.4716C31.2017 21.1758 30.9612 21.3472 30.8733 21.6025L29.8933 24.4479C29.8274 24.6406 29.8586 24.8545 29.9771 25.0202C30.0952 25.1856 30.2872 25.2843 30.4904 25.2843H31.4315L31.057 26.8089C30.9789 27.1265 31.1304 27.4467 31.4254 27.5876C31.5213 27.6334 31.6224 27.6555 31.7221 27.6555C31.9287 27.6555 32.1287 27.5604 32.2622 27.3848L34.4998 24.4392C34.6882 24.1917 34.7195 23.8647 34.5814 23.5858C34.4431 23.307 34.1641 23.1338 33.8532 23.1338ZM33.94 24.0135L31.764 26.878L32.2212 25.0166C32.247 24.9118 32.2231 24.8008 32.1564 24.7158C32.0898 24.6309 31.9878 24.5812 31.8798 24.5812H30.591L31.5217 21.8789H32.6272L32.1131 23.3709C32.0761 23.4783 32.0933 23.597 32.1592 23.6895C32.2252 23.7821 32.3318 23.837 32.4454 23.837H33.8531C33.9121 23.837 33.9398 23.8752 33.9511 23.898C33.9625 23.9208 33.9761 23.9661 33.94 24.0135Z" fill="black"/>
<path d="M25.825 24.56C27.7132 24.5609 29.2497 23.0822 29.2196 21.2821C30.0717 21.1088 30.8287 20.6384 31.346 19.9559C32.2133 19.8931 33.02 19.5513 33.6335 18.9834C34.2999 18.3665 34.6669 17.5503 34.6669 16.6851C34.6669 16.1628 34.5357 15.663 34.2768 15.1997C34.1821 15.0302 33.9679 14.9695 33.7984 15.0643C33.6289 15.159 33.5682 15.3732 33.663 15.5427C33.8626 15.9 33.9638 16.2843 33.9638 16.6851C33.9638 17.3522 33.6768 17.9852 33.1558 18.4674C32.7771 18.818 32.3049 19.0615 31.7877 19.1802C31.9461 18.7879 32.0285 18.3688 32.0285 17.9409C32.0285 17.7467 31.8711 17.5893 31.677 17.5893C31.4828 17.5893 31.3254 17.7467 31.3254 17.9409C31.3414 19.205 30.3592 20.3281 29.1294 20.583C28.8432 19.4232 27.9029 18.4938 26.6624 18.1965C26.5606 17.6132 26.2803 17.0712 25.8574 16.6484C25.7202 16.5111 25.4975 16.5111 25.3603 16.6484C25.223 16.7857 25.223 17.0083 25.3603 17.1455C25.6231 17.4084 25.8127 17.732 25.915 18.0835C25.3218 18.0565 24.7192 18.1852 24.1938 18.4396C24.0192 18.5244 23.9463 18.7347 24.0312 18.9094C24.092 19.0346 24.2173 19.1075 24.3477 19.1074C24.3992 19.1074 24.4515 19.096 24.501 19.072C25.0411 18.8089 25.6885 18.7403 26.2892 18.8381C27.5803 19.0485 28.5174 20.096 28.5174 21.3289C28.5174 22.7229 27.3096 23.8569 25.825 23.8569C25.4004 23.8569 24.989 23.7643 24.6158 23.5871C24.9496 23.1402 25.1562 22.6998 25.2568 22.2251C25.2971 22.0352 25.1758 21.8486 24.9858 21.8083C24.7957 21.7679 24.6092 21.8894 24.569 22.0794C24.4699 22.5468 24.2321 22.9829 23.821 23.4512C23.1063 24.1931 21.9688 24.636 20.7756 24.636C20.239 24.636 19.7065 24.5469 19.2198 24.3776L19.6234 23.2457C19.9683 23.1545 20.2961 23.0244 20.5979 22.8563C20.7676 22.7619 20.8285 22.5477 20.734 22.3781C20.6396 22.2086 20.4256 22.1476 20.2558 22.242C19.7205 22.54 19.0834 22.6976 18.4132 22.6976C17.4419 22.6976 16.5478 22.3671 15.96 21.7909C15.8214 21.655 15.5987 21.6572 15.4629 21.7958C15.3269 21.9345 15.3291 22.1571 15.4678 22.293C15.6996 22.5203 15.9689 22.7157 16.2656 22.8769L15.8353 24.1262C15.5802 24.1748 15.3181 24.1996 15.0546 24.1996C13.0231 24.1996 11.3703 22.744 11.3702 20.9515C11.3634 20.2515 11.622 19.5794 12.1182 19.0075C12.2454 18.8608 12.2296 18.6388 12.083 18.5115C11.9363 18.3843 11.7143 18.4001 11.5871 18.5467C10.9768 19.2502 10.6587 20.0841 10.6672 20.9549C10.6672 22.3009 11.4199 23.4916 12.5663 24.2045L10.9764 28.6622C10.9111 28.845 11.0065 29.0462 11.1894 29.1114C11.2284 29.1253 11.2683 29.1319 11.3075 29.1319C11.4519 29.1319 11.5874 29.0422 11.6386 28.8984L13.1965 24.5306C13.7611 24.7691 14.3908 24.9027 15.0546 24.9027C15.2297 24.9027 15.4044 24.8932 15.5775 24.8747L14.561 27.8258C14.4809 28.0611 14.5193 28.3221 14.6638 28.524C14.808 28.7254 15.0418 28.8457 15.2894 28.8457H16.9207L16.0705 32.3323C15.9987 32.6266 16.1395 32.9231 16.4129 33.0533C16.5016 33.0956 16.5951 33.116 16.6872 33.116C16.8787 33.116 17.0643 33.0279 17.188 32.8651L18.8253 30.7098C18.9428 30.5552 18.9126 30.3346 18.758 30.2172C18.6035 30.0998 18.3829 30.1298 18.2654 30.2844L16.8343 32.1683L17.7099 28.5775C17.7355 28.4726 17.7115 28.3619 17.6448 28.277C17.5782 28.1921 17.4763 28.1426 17.3684 28.1426H15.2895C15.2614 28.1426 15.2447 28.1275 15.2356 28.1148C15.2263 28.1018 15.2171 28.0804 15.2262 28.0536L16.9124 23.1581C17.3789 23.316 17.8874 23.4007 18.4132 23.4007C18.5527 23.4007 18.6911 23.3945 18.828 23.3829L17.8195 26.2109C17.7811 26.3186 17.7975 26.4382 17.8634 26.5316C17.9292 26.625 18.0364 26.6806 18.1506 26.6806H20.3209C20.4521 26.6806 20.5653 26.7509 20.6238 26.8687C20.6823 26.9867 20.6696 27.1197 20.5899 27.2245L19.2591 28.9767C19.1417 29.1313 19.1718 29.3518 19.3264 29.4693C19.39 29.5176 19.4647 29.5409 19.5388 29.5409C19.645 29.5409 19.7499 29.493 19.8191 29.402L21.1497 27.65C21.391 27.3327 21.4309 26.9137 21.2537 26.5564C21.0767 26.1993 20.7193 25.9775 20.3209 25.9775H18.6493L18.9836 25.0398C19.5458 25.2359 20.1592 25.339 20.7756 25.339C22.0736 25.339 23.2797 24.9012 24.1316 24.1291C24.3898 24.2711 24.6647 24.3792 24.9504 24.4516L22.4185 31.5502C22.3532 31.7331 22.4486 31.9342 22.6315 31.9994C22.6705 32.0133 22.7104 32.0199 22.7496 32.0199C22.894 32.0199 23.0295 31.9302 23.0807 31.7864L25.6597 24.5558C25.7147 24.5583 25.7697 24.56 25.825 24.56Z" fill="black"/>
<path d="M13.1995 18.1158C13.2497 18.1158 13.3008 18.105 13.3492 18.0821C14.0079 17.7711 14.736 17.6496 15.4545 17.7269C15.887 17.7735 16.3046 17.8754 16.694 18.0462C16.74 18.0663 16.7879 18.0759 16.8351 18.0759C16.9704 18.0759 17.0994 17.9973 17.1572 17.8655C17.2352 17.6877 17.1543 17.4803 16.9765 17.4023C16.6176 17.2449 16.2392 17.1339 15.848 17.0698C15.9134 16.3565 16.232 15.6833 16.7631 15.1484C17.4194 14.4873 18.3385 14.1095 19.285 14.1116C20.0443 14.1116 20.7643 14.3391 21.3672 14.7694C21.9471 15.1832 22.3808 15.7701 22.5885 16.422C22.6178 16.5139 22.6835 16.5897 22.7703 16.6317C22.8572 16.6737 22.9575 16.6782 23.0477 16.6441C23.3628 16.5251 23.6995 16.4805 24.0428 16.5159C24.2355 16.5357 24.4087 16.3954 24.4286 16.2023C24.4485 16.0092 24.3081 15.8364 24.115 15.8165C23.7831 15.7823 23.4533 15.8053 23.1372 15.882C22.8552 15.2186 22.3807 14.629 21.7757 14.1971C21.6574 14.1127 21.5351 14.0355 21.4098 13.9642C21.8205 13.6654 22.3361 13.4986 22.878 13.4986C23.2574 13.4986 23.6198 13.5779 23.9552 13.7343C24.0428 13.7751 24.1433 13.7781 24.2332 13.7425C24.3231 13.7069 24.3943 13.636 24.4302 13.5462C24.9126 12.341 26.2036 11.5312 27.6428 11.5312C29.2257 11.5312 30.5887 12.486 30.9572 13.8531C31.0738 14.2853 31.051 14.7445 30.8833 15.1616C30.8109 15.3418 30.8984 15.5465 31.0785 15.6188C31.1215 15.6361 31.1658 15.6442 31.2094 15.6442C31.3488 15.6442 31.4807 15.5608 31.5358 15.4235C31.696 15.0245 31.7615 14.6004 31.7263 14.1756C32.0456 14.2426 32.3519 14.3562 32.6285 14.5141C32.6835 14.5454 32.7433 14.5603 32.8024 14.5603C32.9245 14.5603 33.0432 14.4966 33.1081 14.383C33.2043 14.2143 33.1456 13.9996 32.977 13.9034C32.5487 13.659 32.0644 13.4988 31.5636 13.4344C31.0278 11.8881 29.4522 10.8281 27.6427 10.8281C26.047 10.8281 24.5973 11.6741 23.9242 12.9654C23.5905 12.8525 23.2399 12.7955 22.8779 12.7955C22.0508 12.7955 21.2665 13.1026 20.6985 13.6429C20.2503 13.4887 19.7746 13.4086 19.2858 13.4086C18.1535 13.406 17.0518 13.8596 16.2641 14.653C15.6167 15.3052 15.2279 16.129 15.1478 17.0026C14.4271 16.9844 13.7083 17.1354 13.0493 17.4462C12.8737 17.529 12.7985 17.7385 12.8813 17.9141C12.9412 18.0413 13.0676 18.1158 13.1995 18.1158Z" fill="black"/>
</g>
<defs>
<clipPath id="clip0_325_4333">
<rect width="24" height="24" fill="white" transform="translate(10.667 10.5)"/>
</clipPath>
</defs>
</svg>
