<svg width="44" height="45" viewBox="0 0 44 45" fill="none" xmlns="http://www.w3.org/2000/svg">
<path d="M16 1H28C36.5604 1 43.5 7.93959 43.5 16.5V28.5C43.5 37.0604 36.5604 44 28 44H16C7.43959 44 0.5 37.0604 0.5 28.5V16.5C0.5 7.93959 7.43959 1 16 1Z" fill="#FDFDFD"/>
<path d="M16 1H28C36.5604 1 43.5 7.93959 43.5 16.5V28.5C43.5 37.0604 36.5604 44 28 44H16C7.43959 44 0.5 37.0604 0.5 28.5V16.5C0.5 7.93959 7.43959 1 16 1Z" stroke="#FEDF89"/>
<path d="M29.5884 22.4539C29.5884 22.4539 28.0297 19.4766 27.9047 19.4766H24.7383L24.2695 22.0521L29.5884 22.4539Z" fill="#738C96"/>
<path d="M29.2587 20.5031C29.0885 19.8961 28.5351 19.4766 27.9046 19.4766L28.5017 21.6056C28.5645 21.8298 28.396 22.0521 28.1632 22.0521H24.2695L24.7383 23.4583L29.9559 22.9896L29.2587 20.5031Z" fill="#607882"/>
<path d="M31.5705 23.4772L29.9559 22.9922H24.7383L24.2695 27.7865C24.2695 27.7865 28.3449 28.3317 32.4768 28.2552C32.8118 28.249 33.1799 27.9404 33.1799 27.5521C33.1799 27.5521 33.2659 26.7633 33.2213 25.8804L31.5705 23.4772Z" fill="#D2E4E7"/>
<path d="M32.7112 25.878V27.081C32.7112 27.4693 32.3963 27.7841 32.008 27.7841H24.2695L24.7383 28.7216H32.2424C33.0191 28.7216 33.6487 28.092 33.6487 27.3154V25.878L33.1491 25.625L32.7112 25.878Z" fill="#B4D2D7"/>
<path d="M32.2734 25.8797H33.2211C33.1817 25.101 33.0407 24.2492 32.6494 23.8008C32.6485 23.8006 32.6477 23.8002 32.6468 23.8L31.5703 23.4766V25.1766C31.5703 25.5649 31.8851 25.8797 32.2734 25.8797Z" fill="#F8E837"/>
<path d="M33.6485 25.1467C33.6485 24.5268 33.2425 23.9802 32.6494 23.8008C32.689 23.9309 32.711 24.068 32.711 24.2092V25.8796H33.6485V25.1467Z" fill="#ECC52E"/>
<path d="M23.8006 13.8711H11.9922C11.6039 13.8711 11.2891 14.1859 11.2891 14.5742V27.116L24.2322 27.5848L23.8006 13.8711Z" fill="#C9EB74"/>
<path d="M24.7383 14.5742C24.7383 14.1859 24.4235 13.8711 24.0352 13.8711H23.8008V27.116L24.2695 27.4924L24.7383 27.116V14.5742Z" fill="#ACD980"/>
<path d="M19.951 22.9917C21.4409 21.5019 22.1821 17.5996 21.1895 16.1057C19.7018 15.8587 16.4548 16.4411 14.9649 17.9309C13.3803 19.5155 13.8728 21.1608 14.8871 22.4081C16.179 23.7727 18.3664 24.5763 19.951 22.9917Z" fill="#ACD980"/>
<path d="M21.8626 16.3705C21.7381 16.2459 21.5029 16.1574 21.1901 16.1055C21.4372 17.5932 20.8548 20.8402 19.3649 22.3301C17.7804 23.9147 16.135 23.4222 14.8877 22.4079C15.0276 22.5799 15.1773 22.7444 15.333 22.9C16.6174 24.1845 18.4993 25.0707 20.3024 23.2675C22.1055 21.4645 22.5796 17.0874 21.8626 16.3705Z" fill="#9CD169"/>
<path d="M10.3516 27.4688V27.7865L24.2693 28.2553L24.2322 27.1172H10.7031C10.509 27.1172 10.3516 27.2746 10.3516 27.4688Z" fill="#B4D2D7"/>
<path d="M23.8006 27.1172V27.435C23.8006 27.6291 23.6432 27.7865 23.449 27.7865H10.3516V28.0209C10.3516 28.4092 10.6664 28.724 11.0547 28.724H24.7381V27.1172H23.8006Z" fill="#9BB9C3"/>
<path d="M18.0231 28.6302C18.0231 28.098 17.7336 27.422 17.1352 26.7863C16.737 26.4936 16.2454 26.3203 15.7132 26.3203C14.3857 26.3203 13.3096 27.3965 13.3096 28.724C13.3096 29.2561 13.4828 29.7477 13.7756 30.146C14.4101 30.7437 15.0873 31.0339 15.6195 31.0339C16.947 31.0339 18.0231 29.9577 18.0231 28.6302Z" fill="#738C96"/>
<path d="M17.135 26.7852C17.4278 27.1834 17.601 27.6749 17.601 28.2072C17.601 29.5347 16.5249 30.6108 15.1974 30.6108C14.6652 30.6108 14.1736 30.4376 13.7754 30.1448C14.2129 30.74 14.9177 31.1264 15.713 31.1264C17.0405 31.1264 18.1167 30.0503 18.1167 28.7228C18.1167 27.9275 17.7302 27.2226 17.135 26.7852Z" fill="#607882"/>
<path d="M16.5576 28.6289C16.5576 28.517 16.3615 27.9781 16.0322 27.8418C15.9327 27.8058 15.8259 27.7852 15.7139 27.7852C15.1961 27.7852 14.7764 28.2049 14.7764 28.7227C14.7764 28.8346 14.797 28.9415 14.833 29.041C15.1187 29.4462 15.5081 29.5664 15.6201 29.5664C16.1379 29.5664 16.5576 29.1467 16.5576 28.6289Z" fill="#B4D2D7"/>
<path d="M16.0323 27.8438C16.0683 27.9433 16.0889 28.0501 16.0889 28.1621C16.0889 28.6799 15.6692 29.0996 15.1514 29.0996C15.0394 29.0996 14.9326 29.079 14.833 29.043C14.9635 29.4038 15.308 29.6621 15.7139 29.6621C16.2317 29.6621 16.6514 29.2424 16.6514 28.7246C16.6514 28.3188 16.3931 27.9742 16.0323 27.8438Z" fill="#9BB9C3"/>
<path d="M31.3356 28.6302C31.3356 28.098 31.0461 27.422 30.4477 26.7863C30.0495 26.4936 29.5579 26.3203 29.0257 26.3203C27.6982 26.3203 26.6221 27.3965 26.6221 28.724C26.6221 29.2561 26.7953 29.7477 27.0881 30.146C27.7226 30.7437 28.3998 31.0339 28.932 31.0339C30.2595 31.0339 31.3356 29.9577 31.3356 28.6302Z" fill="#738C96"/>
<path d="M30.4475 26.7852C30.7403 27.1834 30.9135 27.6749 30.9135 28.2072C30.9135 29.5347 29.8374 30.6108 28.5099 30.6108C27.9777 30.6108 27.4861 30.4376 27.0879 30.1448C27.5254 30.74 28.2302 31.1264 29.0255 31.1264C30.353 31.1264 31.4292 30.0503 31.4292 28.7228C31.4292 27.9275 31.0427 27.2226 30.4475 26.7852Z" fill="#607882"/>
<path d="M29.8701 28.6289C29.8701 28.517 29.674 27.9781 29.3447 27.8418C29.2452 27.8058 29.1384 27.7852 29.0264 27.7852C28.5086 27.7852 28.0889 28.2049 28.0889 28.7227C28.0889 28.8346 28.1095 28.9415 28.1455 29.041C28.4312 29.4462 28.8206 29.5664 28.9326 29.5664C29.4504 29.5664 29.8701 29.1467 29.8701 28.6289Z" fill="#B4D2D7"/>
<path d="M29.3448 27.8438C29.3808 27.9433 29.4014 28.0501 29.4014 28.1621C29.4014 28.6799 28.9817 29.0996 28.4639 29.0996C28.3519 29.0996 28.2451 29.079 28.1455 29.043C28.276 29.4038 28.6205 29.6621 29.0264 29.6621C29.5442 29.6621 29.9639 29.2424 29.9639 28.7246C29.9639 28.3188 29.7056 27.9742 29.3448 27.8438Z" fill="#9BB9C3"/>
<path d="M19.3763 19.6596H18.6558L18.3881 17.8711H18.3881L16.5146 20.1443L17.7039 20.613L17.5032 21.9323L18.5882 20.9674L19.3763 19.6596Z" fill="#F8E837"/>
<path d="M18.1788 19.2536C18.1467 19.4663 18.3113 19.6577 18.5265 19.6577H18.656L18.9607 17.6542C18.9857 17.4895 18.7778 17.3966 18.6719 17.5252L18.3883 17.8693L18.1788 19.2536Z" fill="#ECC52E"/>
<path d="M17.3658 20.1406H16.5144L16.3493 20.341C16.2611 20.448 16.3372 20.6094 16.4759 20.6094H17.7036L17.7134 20.5451C17.7458 20.3323 17.5811 20.1406 17.3658 20.1406Z" fill="#ECC52E"/>
<path d="M19.883 19.6562H19.3757L17.5027 21.9289L17.3986 22.6133C17.3735 22.778 17.5814 22.8709 17.6874 22.7423L20.0095 19.9246C20.0978 19.8176 20.0216 19.6562 19.883 19.6562Z" fill="#ECC52E"/>
<path d="M32.748 23.4629L30.242 22.71L29.5969 20.4097C29.3851 19.6542 28.6891 19.1265 27.9044 19.1265H25.0896V14.5742C25.0896 13.9927 24.6165 13.5195 24.0349 13.5195H11.9922C11.4107 13.5195 10.9375 13.9927 10.9375 14.5742V25.6629C10.9375 25.8571 11.0949 26.0145 11.2891 26.0145C11.4833 26.0145 11.6406 25.8571 11.6406 25.6629V14.5742C11.6406 14.3803 11.7983 14.2227 11.9922 14.2227H24.0349C24.2288 14.2227 24.3865 14.3803 24.3865 14.5742V26.7645H22.5211C22.3269 26.7645 22.1695 26.9218 22.1695 27.116C22.1695 27.3103 22.3269 27.4676 22.5211 27.4676H24.3865V28.3713H18.4456C18.4044 28.0495 18.3076 27.745 18.1649 27.4676H21.1149C21.3091 27.4676 21.4664 27.3103 21.4664 27.116C21.4664 26.9218 21.3091 26.7645 21.1149 26.7645H17.6492C17.1512 26.2723 16.4673 25.9677 15.7135 25.9677C14.9597 25.9677 14.2758 26.2723 13.7778 26.7645H10.7031C10.3154 26.7645 10 27.0799 10 27.4676V28.0198C10 28.6013 10.4732 29.0744 11.0547 29.0744H12.9815C13.1548 30.4281 14.3134 31.478 15.7135 31.478C17.1136 31.478 18.2722 30.4281 18.4455 29.0744H26.294C26.4673 30.4281 27.6259 31.478 29.026 31.478C30.4261 31.478 31.5847 30.4281 31.758 29.0744H32.2422C33.2115 29.0744 34 28.2859 34 27.3166V25.1464C34 24.3644 33.4968 23.6879 32.748 23.4629ZM33.2969 25.1464V25.5277H32.2734C32.0795 25.5277 31.9218 25.37 31.9218 25.1762V23.9489L32.5457 24.1363C32.995 24.2713 33.2969 24.6772 33.2969 25.1464ZM10.7031 28.0198V27.4676H13.2622C13.1195 27.745 13.0227 28.0495 12.9816 28.3713H11.0547C10.8608 28.3713 10.7031 28.2136 10.7031 28.0198ZM15.7135 30.775C14.582 30.775 13.6615 29.8544 13.6615 28.7229C13.6615 27.5915 14.5821 26.6709 15.7135 26.6709C16.8451 26.6709 17.7656 27.5915 17.7656 28.7229C17.7656 29.8544 16.8451 30.775 15.7135 30.775ZM29.026 30.775C27.8945 30.775 26.974 29.8544 26.974 28.7229C26.974 27.5915 27.8945 26.6709 29.026 26.6709C30.1576 26.6709 31.0781 27.5915 31.0781 28.7229C31.0781 29.8544 30.1575 30.775 29.026 30.775ZM32.2422 28.3713H31.758C31.5847 27.0176 30.4261 25.9677 29.026 25.9677C27.626 25.9677 26.4673 27.0176 26.294 28.3713H25.0897V19.8297H27.9045C28.3753 19.8297 28.7929 20.1463 28.92 20.5996L29.492 22.6396H26.1444C25.9502 22.6396 25.7928 22.797 25.7928 22.9912C25.7928 23.1854 25.9502 23.3427 26.1444 23.3427H29.9041L31.2188 23.7377V25.1763C31.2188 25.7578 31.6919 26.231 32.2735 26.231H33.2969V27.3167C33.2969 27.8982 32.8237 28.3713 32.2422 28.3713Z" fill="black"/>
<path d="M15.7139 27.4336C15.0031 27.4336 14.4248 28.0119 14.4248 28.7227C14.4248 29.4334 15.0031 30.0117 15.7139 30.0117C16.4246 30.0117 17.0029 29.4334 17.0029 28.7227C17.0029 28.0119 16.4246 27.4336 15.7139 27.4336ZM15.7139 29.3086C15.3908 29.3086 15.1279 29.0458 15.1279 28.7227C15.1279 28.3995 15.3908 28.1367 15.7139 28.1367C16.037 28.1367 16.2998 28.3995 16.2998 28.7227C16.2998 29.0458 16.0369 29.3086 15.7139 29.3086Z" fill="black"/>
<path d="M29.0264 27.4336C28.3156 27.4336 27.7373 28.0119 27.7373 28.7227C27.7373 29.4334 28.3156 30.0117 29.0264 30.0117C29.7371 30.0117 30.3154 29.4334 30.3154 28.7227C30.3154 28.0119 29.7371 27.4336 29.0264 27.4336ZM29.0264 29.3086C28.7033 29.3086 28.4404 29.0458 28.4404 28.7227C28.4404 28.3995 28.7033 28.1367 29.0264 28.1367C29.3495 28.1367 29.6123 28.3995 29.6123 28.7227C29.6123 29.0458 29.3494 29.3086 29.0264 29.3086Z" fill="black"/>
<path d="M13.5961 24.6353C13.6648 24.704 13.7548 24.7383 13.8448 24.7383C13.9347 24.7383 14.0247 24.704 14.0934 24.6353L15.5809 23.1479C15.581 23.1477 15.5812 23.1476 15.5813 23.1474C15.5815 23.1473 15.5816 23.1471 15.5818 23.147L16.4077 22.321C16.545 22.1837 16.545 21.9611 16.4077 21.8238C16.2703 21.6866 16.0478 21.6866 15.9105 21.8238L15.3398 22.3945C14.9165 21.9214 14.4704 21.2744 14.337 20.5453C14.184 19.7093 14.479 18.9128 15.2138 18.178C15.9516 17.4403 17.3234 16.8317 18.8836 16.5502C20.3554 16.2847 21.4149 16.4188 21.6138 16.6177C21.6314 16.6353 21.7867 16.8099 21.8235 17.514C21.8509 18.0368 21.8004 18.6882 21.6813 19.3479C21.3998 20.9081 20.7913 22.28 20.0535 23.0177C18.9899 24.0813 17.8092 24.2198 16.5442 23.4289C16.3797 23.326 16.1627 23.3759 16.0597 23.5407C15.9568 23.7053 16.0068 23.9222 16.1715 24.0251C16.8221 24.4319 17.4753 24.6375 18.1158 24.6375C18.1678 24.6375 18.2199 24.6361 18.2717 24.6334C19.0844 24.5908 19.8512 24.2144 20.5508 23.5148C21.7547 22.3109 22.2263 20.2871 22.3733 19.4728C22.5912 18.2652 22.6532 16.6627 22.111 16.1205C21.5688 15.5783 19.9663 15.6403 18.7587 15.8582C17.9444 16.0051 15.9205 16.4768 14.7166 17.6807C13.8088 18.5887 13.4483 19.595 13.6453 20.6718C13.8099 21.5711 14.3455 22.3434 14.8418 22.8924L13.5962 24.138C13.4588 24.2754 13.4588 24.498 13.5961 24.6353Z" fill="black"/>
<path d="M19.0088 17.1591C18.7945 17.0634 18.55 17.1207 18.4006 17.302L16.0785 20.1197C15.9502 20.2752 15.924 20.4852 16.01 20.6675C16.096 20.8499 16.2747 20.9632 16.4763 20.9632H17.295L17.0518 22.5623C17.0164 22.7945 17.1367 23.0149 17.3511 23.1107C17.4204 23.1416 17.4926 23.1566 17.5639 23.1566C17.7134 23.1566 17.8582 23.0906 17.9594 22.9678L20.2817 20.1501C20.4098 19.9945 20.436 19.7846 20.35 19.6022C20.2639 19.4199 20.0853 19.3066 19.8837 19.3066H19.065L19.3082 17.7074C19.3436 17.4753 19.2233 17.2549 19.0088 17.1591ZM19.4862 20.0097L17.8491 21.9962L18.0516 20.6645C18.067 20.5632 18.0374 20.4603 17.9706 20.3825C17.9038 20.3048 17.8064 20.2601 17.704 20.2601H16.8738L18.511 18.2736L18.3084 19.6053C18.2931 19.7066 18.3226 19.8096 18.3894 19.8874C18.4562 19.965 18.5536 20.0097 18.656 20.0097H19.4862Z" fill="black"/>
<path d="M27.1809 24.1875H26.3262C26.132 24.1875 25.9746 24.3449 25.9746 24.5391C25.9746 24.7333 26.132 24.8906 26.3262 24.8906H27.1809C27.3751 24.8906 27.5325 24.7333 27.5325 24.5391C27.5325 24.3449 27.3751 24.1875 27.1809 24.1875Z" fill="black"/>
</svg>
