<svg width="44" height="44" viewBox="0 0 44 44" fill="none" xmlns="http://www.w3.org/2000/svg">
<path d="M16 0.5H28C36.5604 0.5 43.5 7.43959 43.5 16V28C43.5 36.5604 36.5604 43.5 28 43.5H16C7.43959 43.5 0.5 36.5604 0.5 28V16C0.5 7.43959 7.43959 0.5 16 0.5Z" fill="#FDFDFD"/>
<path d="M16 0.5H28C36.5604 0.5 43.5 7.43959 43.5 16V28C43.5 36.5604 36.5604 43.5 28 43.5H16C7.43959 43.5 0.5 36.5604 0.5 28V16C0.5 7.43959 7.43959 0.5 16 0.5Z" stroke="#CEEAB0"/>
<g clip-path="url(#clip0_325_5499)">
<path d="M30.2605 25.1653C29.874 25.1255 29.5275 25.4069 29.4877 25.7938C29.2968 27.6495 28.4272 29.3653 27.0393 30.6252C25.6419 31.8936 23.8321 32.5922 21.9432 32.5922C17.761 32.5922 14.3585 29.1897 14.3585 25.0075V22.5809C14.4898 22.6929 14.6521 22.7494 14.8148 22.7494C14.9943 22.7494 15.1738 22.6813 15.3111 22.5449C15.5872 22.2708 15.5887 21.8248 15.3146 21.5488L14.1579 20.3838C14.0257 20.2507 13.8457 20.1758 13.6581 20.1758C13.4704 20.1758 13.2905 20.2507 13.1583 20.3838L12.0014 21.5487C11.7274 21.8247 11.7289 22.2707 12.0049 22.5448C12.2643 22.8024 12.6738 22.8165 12.9498 22.588V25.0074C12.9498 29.9665 16.9842 34.0009 21.9432 34.0009C24.183 34.0009 26.329 33.1725 27.9862 31.6682C29.6316 30.1746 30.6625 28.1395 30.889 25.938C30.9289 25.5511 30.6475 25.2051 30.2605 25.1653Z" fill="#BCEAF9"/>
<path d="M30.26 25.1639C29.8736 25.1242 29.5271 25.4055 29.4873 25.7925C29.2964 27.6481 28.4268 29.3639 27.0389 30.6238C25.6557 31.8794 23.8682 32.5762 22 32.5901V33.9989C24.219 33.9849 26.3427 33.1583 27.9857 31.6668C29.6311 30.1732 30.662 28.1382 30.8885 25.9366C30.9285 25.5497 30.647 25.2037 30.26 25.1639Z" fill="#ACCEFF"/>
<path d="M31.9961 21.5444C31.72 21.2703 31.2741 21.2717 31 21.5478L30.9371 21.6111V18.9934C30.9371 14.0344 26.9027 10 21.9436 10C19.7039 10 17.5578 10.8284 15.9007 12.3327C14.2553 13.8263 13.2244 15.8613 12.9979 18.0629C12.958 18.4499 13.2395 18.7958 13.6265 18.8356C14.0138 18.8756 14.3594 18.594 14.3992 18.207C14.5901 16.3514 15.4596 14.6356 16.8476 13.3758C18.2449 12.1073 20.0548 11.4087 21.9437 11.4087C26.1259 11.4087 29.5284 14.8112 29.5284 18.9934V21.6078L29.4688 21.5478C29.1946 21.2718 28.7487 21.2702 28.4727 21.5443C28.1966 21.8184 28.1951 22.2644 28.4692 22.5404L29.7346 23.8146C29.8668 23.9478 30.0467 24.0227 30.2343 24.0227C30.422 24.0227 30.6019 23.9478 30.7341 23.8146L31.9994 22.5404C32.2737 22.2644 32.2721 21.8184 31.9961 21.5444Z" fill="#BCEAF9"/>
<path d="M31.9961 21.5436C31.7201 21.2695 31.2741 21.271 31 21.5471L30.9372 21.6103V18.9927C30.9372 14.0528 26.9337 10.031 22.001 10V11.4087C26.1569 11.4397 29.5285 14.8296 29.5285 18.9927V21.607L29.4689 21.547C29.1947 21.271 28.7488 21.2695 28.4728 21.5436C28.1967 21.8176 28.1952 22.2636 28.4693 22.5397L29.7347 23.8139C29.8669 23.9471 30.0468 24.0219 30.2344 24.0219C30.4221 24.0219 30.602 23.947 30.7342 23.8138L31.9995 22.5396C32.2737 22.2636 32.2721 21.8177 31.9961 21.5436Z" fill="#ACCEFF"/>
<path d="M22.0004 26.024C21.9067 26.024 21.8131 26.0054 21.7252 25.968C21.5837 25.908 18.2598 24.4605 18.2598 21.2824C18.2598 18.2125 21.448 15.8377 21.5837 15.7381C21.8317 15.5561 22.1691 15.5561 22.4171 15.7381C22.5528 15.8377 25.741 18.2125 25.741 21.2824C25.741 24.4604 22.4171 25.9079 22.2756 25.968C22.1877 26.0054 22.094 26.024 22.0004 26.024Z" fill="#ACE233"/>
<path d="M22.4167 15.7381C22.2927 15.6471 22.1464 15.6016 22 15.6016V26.024C22.0936 26.024 22.1873 26.0054 22.2752 25.968C22.4167 25.908 25.7406 24.4605 25.7406 21.2824C25.7406 18.2125 22.5525 15.8377 22.4167 15.7381Z" fill="#00A763"/>
<path d="M22.0003 28.2824C21.6113 28.2824 21.2959 27.967 21.2959 27.578V21.5676C21.2959 21.1786 21.6113 20.8633 22.0003 20.8633C22.3893 20.8633 22.7046 21.1786 22.7046 21.5676V27.578C22.7046 27.967 22.3893 28.2824 22.0003 28.2824Z" fill="#00A763"/>
<path d="M22 20.8633V28.2824C22.389 28.2824 22.7044 27.967 22.7044 27.578V21.5676C22.7044 21.1786 22.389 20.8633 22 20.8633Z" fill="#007578"/>
</g>
<defs>
<clipPath id="clip0_325_5499">
<rect width="24" height="24" fill="white" transform="translate(10 10)"/>
</clipPath>
</defs>
</svg>
