<svg width="49" height="48" viewBox="0 0 49 48" fill="none" xmlns="http://www.w3.org/2000/svg">
<path d="M0.666504 24C0.666504 10.7452 11.4117 0 24.6665 0C37.9213 0 48.6665 10.7452 48.6665 24C48.6665 37.2548 37.9213 48 24.6665 48C11.4117 48 0.666504 37.2548 0.666504 24Z" fill="#E6F4D7"/>
<path d="M15.8165 23C15.7181 22.5153 15.6665 22.0137 15.6665 21.5C15.6665 17.3579 19.0244 14 23.1665 14C26.9696 14 30.1115 16.8306 30.6004 20.5M18.6665 34C16.4574 34 14.6665 32.2091 14.6665 30C14.6665 27.7909 16.4574 26 18.6665 26C18.7798 26 18.8921 26.0047 19.003 26.014C19.8227 23.6763 22.0489 22 24.6665 22C26.8913 22 28.8333 23.2109 29.8694 25.0097C29.9676 25.0033 30.0667 25 30.1665 25C32.6518 25 34.6665 27.0147 34.6665 29.5C34.6665 31.9853 32.6518 34 30.1665 34C26.4298 34 22.7211 34 18.6665 34Z" stroke="#4F7A21" stroke-width="2" stroke-linecap="round" stroke-linejoin="round"/>
</svg>
