<svg width="17" height="16" viewBox="0 0 17 16" fill="none" xmlns="http://www.w3.org/2000/svg">
<path d="M8.33334 0C5.23153 0 2.70834 2.55444 2.70834 5.65625C2.70834 8.43488 4.82962 11.4182 6.70141 14.0234C7.14634 14.6423 7.57253 15.2351 7.94331 15.7913C8.03028 15.9217 8.17678 16 8.33331 16C8.48984 16 8.63634 15.9217 8.72331 15.7913C9.09409 15.2351 9.52028 14.6423 9.96522 14.0234C11.8371 11.4182 13.9583 8.43488 13.9583 5.65625C13.9583 2.55444 11.4352 0 8.33334 0ZM8.33334 8.46875C6.78244 8.46875 5.52084 7.20716 5.52084 5.65625C5.52084 4.10534 6.78244 2.84375 8.33334 2.84375C9.88425 2.84375 11.1458 4.10534 11.1458 5.65625C11.1458 7.20716 9.88425 8.46875 8.33334 8.46875Z" fill="#FF7B4A"/>
<path d="M9.96528 14.0234C11.8371 11.4182 13.9583 8.43488 13.9583 5.65625C13.9583 2.55444 11.4352 0 8.33334 0V2.84375C9.88425 2.84375 11.1458 4.10534 11.1458 5.65625C11.1458 7.20716 9.88425 8.46875 8.33334 8.46875V16C8.48991 16 8.63638 15.9217 8.72334 15.7913C9.09416 15.2351 9.52031 14.6423 9.96528 14.0234Z" fill="#FF435B"/>
</svg>
