<svg width="20" height="20" viewBox="0 0 20 20" fill="none" xmlns="http://www.w3.org/2000/svg">
<rect width="19" height="19" transform="translate(0.75 0.5)" fill="white" fill-opacity="0.01"/>
<g clip-path="url(#clip0_317_74782)">
<path d="M10.25 0.5L10.4789 19.3869L15.9721 12.241C16.922 11.0116 17.5265 9.45031 17.5265 7.77645C17.5265 3.75777 14.2687 0.5 10.25 0.5Z" fill="#DB1616"/>
<path d="M16.3684 7.77645C16.3684 3.75777 13.6291 0.5 10.25 0.5C6.23128 0.5 2.97351 3.75777 2.97351 7.77645C2.97351 9.45031 3.5542 11.0116 4.50415 12.241L10.0205 19.3874C10.1366 19.5378 10.3631 19.5375 10.4788 19.3869L15.0614 12.241C15.8601 11.0116 16.3684 9.45031 16.3684 7.77645Z" fill="#FC5B37"/>
<path d="M10.25 2.81641V12.7371C12.9895 12.7371 15.2103 10.5163 15.2103 7.77675C15.2103 5.03721 12.9895 2.81641 10.25 2.81641Z" fill="#E0F8FF"/>
<path d="M14.0523 7.77675C14.0523 5.03721 12.35 2.81641 10.25 2.81641C7.51048 2.81641 5.28967 5.03721 5.28967 7.77675C5.28967 10.5163 7.51048 12.7371 10.25 12.7371C12.35 12.7371 14.0523 10.5163 14.0523 7.77675Z" fill="white"/>
</g>
<defs>
<clipPath id="clip0_317_74782">
<rect width="19" height="19" fill="white" transform="translate(0.75 0.5)"/>
</clipPath>
</defs>
</svg>
