<svg width="24" height="24" viewBox="0 0 24 24" fill="none" xmlns="http://www.w3.org/2000/svg">
<path d="M11.4441 16.5135C10.9023 16.5135 10.4632 16.0743 10.4632 15.5325C10.4632 14.9908 10.9024 14.5516 11.4441 14.5516L15.6948 14.5517H17.6567V13.5053V10.3663H15.6948H14.3076H9.48229C8.94062 10.3663 8.50136 9.92706 8.50136 9.38532V4.56002V3.17279V1.21094H0.980926C0.439259 1.21094 0 1.65013 0 2.19186V21.8104C0 22.3521 0.439259 22.7913 0.980926 22.7913H16.6757C17.2175 22.7913 17.6567 22.3521 17.6567 21.8104V18.5189V16.5135H15.6948L11.4441 16.5135Z" fill="#86CB3C"/>
<path d="M23.9947 15.4342C23.9932 15.4194 23.9905 15.4053 23.9884 15.3907C23.9859 15.3735 23.9839 15.3563 23.9805 15.3393C23.9772 15.3227 23.9728 15.3067 23.9686 15.2905C23.9648 15.2757 23.9616 15.2609 23.9572 15.2462C23.9524 15.2304 23.9465 15.215 23.9409 15.1996C23.9356 15.1849 23.9308 15.17 23.9248 15.1555C23.9188 15.1411 23.9118 15.1273 23.9051 15.1133C23.8981 15.0982 23.8915 15.0832 23.8836 15.0685C23.8764 15.0551 23.8683 15.0424 23.8604 15.0293C23.8518 15.0148 23.8436 15.0003 23.8343 14.9863C23.8247 14.9719 23.814 14.9585 23.8037 14.9447C23.7948 14.9328 23.7866 14.9207 23.7772 14.9092C23.7575 14.8853 23.7369 14.8625 23.7152 14.8406C23.7141 14.8395 23.7133 14.8384 23.7122 14.8373L21.26 12.3849C20.877 12.0019 20.2558 12.0019 19.8728 12.3849C19.4897 12.7679 19.4897 13.3891 19.8727 13.7721L20.6504 14.55H19.366H17.6562V16.5119H18.4942H20.6505L19.8728 17.2896C19.4897 17.6727 19.4897 18.2938 19.8728 18.6768C20.0642 18.8685 20.3153 18.9642 20.5663 18.9642C20.8174 18.9642 21.0684 18.8685 21.26 18.6768L23.7122 16.2246C23.7127 16.2241 23.7131 16.2235 23.7136 16.2231C23.736 16.2007 23.7571 16.1772 23.7772 16.1528C23.7867 16.1412 23.795 16.129 23.8039 16.117C23.8141 16.1034 23.8247 16.0899 23.8343 16.0757C23.8438 16.0616 23.852 16.0468 23.8606 16.0324C23.8683 16.0194 23.8764 16.0068 23.8836 15.9934C23.8915 15.9787 23.8982 15.9635 23.9053 15.9484C23.9119 15.9345 23.9189 15.9208 23.9248 15.9064C23.9309 15.8918 23.9357 15.8769 23.941 15.862C23.9466 15.8467 23.9525 15.8315 23.9572 15.8157C23.9616 15.801 23.965 15.7861 23.9687 15.7711C23.9728 15.755 23.9773 15.739 23.9806 15.7226C23.984 15.7056 23.986 15.6884 23.9885 15.6711C23.9905 15.6566 23.9932 15.6424 23.9947 15.6277C23.9979 15.596 23.9995 15.5641 23.9995 15.5323C23.9995 15.5318 23.9996 15.5313 23.9996 15.5309C23.9996 15.5304 23.9995 15.5298 23.9995 15.5293C23.9994 15.4975 23.9978 15.4657 23.9947 15.4342Z" fill="#86CB3C"/>
<path d="M17.0818 8.40399L10.4629 1.78516V4.55961V8.40399H14.3073H17.0818Z" fill="#86CB3C"/>
</svg>
