<svg width="48" height="48" viewBox="0 0 48 48" fill="none" xmlns="http://www.w3.org/2000/svg">
<path d="M0 24C0 10.7452 10.7452 0 24 0C37.2548 0 48 10.7452 48 24C48 37.2548 37.2548 48 24 48C10.7452 48 0 37.2548 0 24Z" fill="#E6F4D7"/>
<path d="M24 14V16M24 32V34M16 24H14M18.3141 18.3141L16.8999 16.8999M29.6859 18.3141L31.1001 16.8999M18.3141 29.69L16.8999 31.1042M29.6859 29.69L31.1001 31.1042M34 24H32M29 24C29 26.7614 26.7614 29 24 29C21.2386 29 19 26.7614 19 24C19 21.2386 21.2386 19 24 19C26.7614 19 29 21.2386 29 24Z" stroke="#4F7A21" stroke-width="2" stroke-linecap="round" stroke-linejoin="round"/>
</svg>
