<svg width="24" height="24" viewBox="0 0 24 24" fill="none" xmlns="http://www.w3.org/2000/svg">
<g clip-path="url(#clip0_325_3605)">
<path d="M19.1444 13.6889L18.206 13.1471C18.289 12.743 18.3285 12.3696 18.3285 12C18.3285 11.6304 18.289 11.257 18.206 10.8529L19.1444 10.3111C19.3059 10.2179 19.4237 10.0643 19.472 9.8842C19.5202 9.70406 19.495 9.51211 19.4017 9.35063L17.9955 6.91495C17.8013 6.57862 17.3714 6.46341 17.035 6.65761L16.1052 7.19447C15.5223 6.70003 14.8459 6.31364 14.1098 6.0548V4.96875C14.1098 4.58044 13.795 4.26562 13.4067 4.26562H10.5942C10.2059 4.26562 9.89109 4.58044 9.89109 4.96875V6.0548C9.15506 6.31364 8.47856 6.70008 7.89576 7.19447L6.9659 6.65761C6.62957 6.46336 6.19954 6.57867 6.00543 6.91495L4.59918 9.35063C4.50595 9.51211 4.48068 9.70406 4.52892 9.8842C4.5772 10.0643 4.69504 10.2179 4.85653 10.3111L5.79492 10.8529C5.71181 11.257 5.67229 11.6304 5.67229 12C5.67229 12.3696 5.71181 12.743 5.79482 13.1471L4.85643 13.6889C4.69495 13.7821 4.5771 13.9358 4.52882 14.1158C4.48059 14.2959 4.50585 14.4879 4.59909 14.6494L6.00534 17.085C6.19954 17.4214 6.62957 17.5366 6.96581 17.3424L7.89567 16.8055C8.47851 17.3 9.15496 17.6864 9.89099 17.9452V19.0312C9.89099 19.4196 10.2058 19.7344 10.5941 19.7344H13.4066C13.7949 19.7344 14.1097 19.4196 14.1097 19.0312V17.9452C14.8458 17.6864 15.5223 17.2999 16.1051 16.8055L17.0349 17.3424C17.3712 17.5366 17.8012 17.4213 17.9954 17.085L19.4016 14.6494C19.4949 14.4879 19.5201 14.2959 19.4719 14.1158C19.4237 13.9357 19.3059 13.7821 19.1444 13.6889ZM12.0004 14.1094C10.8373 14.1094 9.89104 13.1631 9.89104 12C9.89104 10.8369 10.8373 9.89062 12.0004 9.89062C13.1635 9.89062 14.1098 10.8369 14.1098 12C14.1098 13.1631 13.1635 14.1094 12.0004 14.1094Z" fill="#86CB3C"/>
<path d="M21.6164 4.81711L20.622 1.83398C20.4992 1.46559 20.101 1.26642 19.7326 1.38928C19.3642 1.51209 19.1651 1.91025 19.2879 2.27869L19.3724 2.53223C18.7415 2.052 18.0615 1.62877 17.3458 1.27369C15.6659 0.440438 13.8173 0 12 0C8.81203 0 5.80341 1.25297 3.52823 3.52823C1.25297 5.80341 0 8.81208 0 12C0 13.4723 0.309328 14.9807 0.919266 16.4833C1.03017 16.7565 1.29328 16.9221 1.57097 16.9221C1.65905 16.9221 1.74863 16.9054 1.83525 16.8703C2.19506 16.7242 2.36831 16.3141 2.22225 15.9543C1.68075 14.6205 1.40625 13.2901 1.40625 12C1.40625 6.15858 6.15858 1.40625 12 1.40625C14.1441 1.40625 16.3085 2.1195 18.1067 3.35653C17.763 3.28598 17.4129 3.48145 17.2992 3.82266C17.1764 4.191 17.3755 4.58925 17.7439 4.71206L20.727 5.70647C20.9786 5.79028 21.2574 5.72573 21.4465 5.53659C21.6348 5.3483 21.7006 5.06972 21.6164 4.81711Z" fill="#86CB3C"/>
<path d="M23.0809 7.51692C22.9348 7.15706 22.5246 6.98395 22.1649 7.12992C21.8051 7.27598 21.6319 7.68609 21.7779 8.0459C22.3194 9.37963 22.5939 10.71 22.5939 12.0002C22.5939 17.8416 17.8416 22.5939 12.0002 22.5939C9.85611 22.5939 7.6917 21.8807 5.89344 20.6437C6.23712 20.7142 6.58723 20.5188 6.701 20.1775C6.82377 19.8092 6.62469 19.4109 6.2563 19.2881L3.27317 18.2937C3.02061 18.2095 2.74194 18.2752 2.55364 18.4636C2.3653 18.6519 2.29953 18.9305 2.38377 19.1831L3.37812 22.1662C3.47637 22.4609 3.75064 22.6473 4.04511 22.6472C4.1188 22.6472 4.1938 22.6356 4.26753 22.611C4.63592 22.4882 4.835 22.09 4.71223 21.7216L4.62772 21.468C5.25866 21.9483 5.93858 22.3715 6.65436 22.7266C8.33431 23.5597 10.1828 24.0002 12.0002 24.0002C15.1881 24.0002 18.1968 22.7472 20.4719 20.4719C22.7472 18.1968 24.0002 15.1881 24.0002 12.0002C24.0002 10.5278 23.6908 9.01945 23.0809 7.51692Z" fill="#86CB3C"/>
</g>
<defs>
<clipPath id="clip0_325_3605">
<rect width="24" height="24" fill="white"/>
</clipPath>
</defs>
</svg>
