<svg width="25" height="24" viewBox="0 0 25 24" fill="none" xmlns="http://www.w3.org/2000/svg">
<g clip-path="url(#clip0_317_74792)">
<path d="M20.4941 7.6875H16.7054V13.1982H2.23975V16.298H23.5939V12.165L20.4941 7.6875Z" fill="#FFDE7C"/>
<path d="M18.0828 9.06641V12.1662H21.8714L19.8049 9.06641H18.0828Z" fill="#BADAD9"/>
<path d="M2.23975 15.9531H23.5939V16.9864H2.23975V15.9531Z" fill="#FFF4D3"/>
<path d="M2.23975 14.9199H23.5939V16.2976H2.23975V14.9199Z" fill="#FFC824"/>
<path d="M2.23975 4.93164H16.7054V13.1978H2.23975V4.93164Z" fill="#DEE779"/>
<path d="M3.96185 12.1645V4.93164H2.23975V13.1978H16.7054V12.1645H3.96185Z" fill="#C8D620"/>
<path d="M22.5604 16.9865C22.5604 18.1278 21.6353 19.053 20.4939 19.053C19.3525 19.053 18.4274 18.1278 18.4274 16.9865C18.4274 15.8451 19.3525 14.9199 20.4939 14.9199C21.6353 14.9199 22.5604 15.8451 22.5604 16.9865Z" fill="#8B7E7F"/>
<path d="M21.527 16.9864C21.527 17.5571 21.0644 18.0197 20.4937 18.0197C19.923 18.0197 19.4604 17.5571 19.4604 16.9864C19.4604 16.4157 19.923 15.9531 20.4937 15.9531C21.0644 15.9531 21.527 16.4157 21.527 16.9864Z" fill="#F0EFEF"/>
<path d="M21.1826 17.6754C20.6119 17.6754 20.1493 17.2129 20.1493 16.6422C20.1493 16.3793 20.2477 16.1395 20.4095 15.957C19.8782 16 19.4604 16.4443 19.4604 16.9866C19.4604 17.5573 19.923 18.0199 20.4937 18.0199C20.8015 18.0199 21.0777 17.8853 21.267 17.6718C21.2391 17.6739 21.2109 17.6754 21.1826 17.6754Z" fill="#D3CECF"/>
<path d="M8.09424 16.9865C8.09424 18.1278 7.16907 19.053 6.02771 19.053C4.88635 19.053 3.96118 18.1278 3.96118 16.9865C3.96118 15.8451 4.88635 14.9199 6.02771 14.9199C7.16907 14.9199 8.09424 15.8451 8.09424 16.9865Z" fill="#8B7E7F"/>
<path d="M7.06165 16.9864C7.06165 17.5571 6.59906 18.0197 6.02838 18.0197C5.4577 18.0197 4.99512 17.5571 4.99512 16.9864C4.99512 16.4157 5.4577 15.9531 6.02838 15.9531C6.59906 15.9531 7.06165 16.4157 7.06165 16.9864Z" fill="#F0EFEF"/>
<path d="M6.71722 17.6754C6.14655 17.6754 5.68396 17.2129 5.68396 16.6422C5.68396 16.3793 5.78232 16.1395 5.94395 15.957C5.41289 16 4.99512 16.4443 4.99512 16.9866C4.99512 17.5573 5.4577 18.0199 6.02838 18.0199C6.33604 18.0199 6.61232 17.8853 6.80148 17.6718C6.77362 17.6739 6.74559 17.6754 6.71722 17.6754Z" fill="#D3CECF"/>
<path d="M12.2273 9.06592C12.2273 10.5876 10.9936 11.8213 9.47192 11.8213C7.95023 11.8213 6.71655 10.5876 6.71655 9.06592C6.71655 7.54422 7.95023 6.31055 9.47192 6.31055C10.9936 6.31055 12.2273 7.54422 12.2273 9.06592Z" fill="#F0EFEF"/>
<path d="M10.5052 11.132C8.98349 11.132 7.74982 9.89832 7.74982 8.37662C7.74982 7.64464 8.03583 6.9798 8.50143 6.48633C7.4586 6.87892 6.71655 7.88533 6.71655 9.06546C6.71655 10.5872 7.95023 11.8208 9.47192 11.8208C10.2616 11.8208 10.9733 11.488 11.4757 10.9557C11.1737 11.0694 10.8469 11.132 10.5052 11.132Z" fill="#D3CECF"/>
<path d="M23.8592 11.9814L20.7594 7.50389C20.6992 7.41678 20.5998 7.36475 20.4939 7.36475H17.0282V4.93231C17.0282 4.75389 16.8837 4.60938 16.7053 4.60938H14.28C14.1016 4.60938 13.9571 4.75389 13.9571 4.93231C13.9571 5.11057 14.1016 5.25525 14.28 5.25525H16.3823V12.8755H2.5625V5.25525H12.7587C12.9371 5.25525 13.0816 5.11057 13.0816 4.93231C13.0816 4.75389 12.9371 4.60938 12.7587 4.60938H2.23956C2.06114 4.60938 1.91663 4.75389 1.91663 4.93231V16.9871C1.91663 17.1655 2.06114 17.31 2.23956 17.31H3.66122C3.81934 18.4752 4.82021 19.3765 6.0282 19.3765C7.23619 19.3765 8.23706 18.4752 8.39517 17.31H18.1269C18.2852 18.4752 19.2859 19.3765 20.4939 19.3765C21.7019 19.3765 22.7028 18.4752 22.8609 17.31H23.5937C23.7721 17.31 23.9166 17.1655 23.9166 16.9871V12.1652C23.9166 12.0995 23.8967 12.0354 23.8592 11.9814ZM16.7053 13.5214C16.8837 13.5214 17.0282 13.3768 17.0282 13.1984V8.01062H20.3247L23.2708 12.266V15.6309H22.4597C22.028 15.0073 21.3081 14.5976 20.4939 14.5976C19.6797 14.5976 18.9598 15.0073 18.5282 15.6309H7.99385C7.56232 15.0073 6.84242 14.5976 6.0282 14.5976C5.21397 14.5976 4.49408 15.0073 4.06238 15.6309H2.5625V13.5214H16.7053ZM8.30974 16.2767H18.2124C18.1732 16.4018 18.1449 16.5314 18.1269 16.6641H8.39517C8.37721 16.5314 8.34885 16.4018 8.30974 16.2767ZM2.5625 16.2982V16.2767H3.74649C3.70755 16.4018 3.67918 16.5314 3.66122 16.6641H2.5625V16.2982ZM6.0282 18.7307C5.06677 18.7307 4.28461 17.9485 4.28461 16.9871C4.28461 16.0256 5.06677 15.2435 6.0282 15.2435C6.98962 15.2435 7.77179 16.0256 7.77179 16.9871C7.77179 17.9485 6.98962 18.7307 6.0282 18.7307ZM20.4939 18.7307C19.5325 18.7307 18.7503 17.9485 18.7503 16.9871C18.7503 16.0256 19.5325 15.2435 20.4939 15.2435C21.4553 15.2435 22.2375 16.0256 22.2375 16.9871C22.2375 17.9485 21.4553 18.7307 20.4939 18.7307ZM23.2708 16.6641H22.8609C22.8429 16.5314 22.8145 16.4018 22.7756 16.2767H23.2708V16.6641Z" fill="black"/>
<path d="M18.0825 12.4879H21.8711C22.1237 12.4879 22.2803 12.1966 22.1398 11.9858L20.0733 8.88603C20.0134 8.79607 19.9125 8.74219 19.8046 8.74219H18.0825C17.904 8.74219 17.7595 8.8867 17.7595 9.06512V12.1649C17.7595 12.3433 17.904 12.4879 18.0825 12.4879ZM18.4054 9.38806H19.6319L21.2679 11.842H18.4054V9.38806Z" fill="black"/>
<path d="M18.0825 13.5209H18.7713C18.9497 13.5209 19.0942 13.3764 19.0942 13.1979C19.0942 13.0195 18.9497 12.875 18.7713 12.875H18.0825C17.904 12.875 17.7595 13.0195 17.7595 13.1979C17.7595 13.3764 17.904 13.5209 18.0825 13.5209Z" fill="black"/>
<path d="M20.4944 15.6309C19.7466 15.6309 19.1382 16.2393 19.1382 16.9871C19.1382 17.7348 19.7466 18.3433 20.4944 18.3433C21.2421 18.3433 21.8506 17.7348 21.8506 16.9871C21.8506 16.2393 21.2421 15.6309 20.4944 15.6309ZM20.4944 17.6974C20.1028 17.6974 19.7841 17.3788 19.7841 16.9871C19.7841 16.5953 20.1028 16.2767 20.4944 16.2767C20.8861 16.2767 21.2047 16.5953 21.2047 16.9871C21.2047 17.3788 20.8861 17.6974 20.4944 17.6974Z" fill="black"/>
<path d="M6.0282 15.6309C5.28044 15.6309 4.672 16.2393 4.672 16.9871C4.672 17.7348 5.28044 18.3433 6.0282 18.3433C6.77596 18.3433 7.3844 17.7348 7.3844 16.9871C7.3844 16.2393 6.77596 15.6309 6.0282 15.6309ZM6.0282 17.6974C5.63644 17.6974 5.31787 17.3788 5.31787 16.9871C5.31787 16.5953 5.63644 16.2767 6.0282 16.2767C6.41978 16.2767 6.73853 16.5953 6.73853 16.9871C6.73853 17.3788 6.41978 17.6974 6.0282 17.6974Z" fill="black"/>
<path d="M6.69507 6.65497C6.69507 6.47655 6.55055 6.33203 6.37213 6.33203H4.3056C4.12718 6.33203 3.98267 6.47655 3.98267 6.65497C3.98267 6.83322 4.12718 6.97791 4.3056 6.97791H6.37213C6.55055 6.97791 6.69507 6.83322 6.69507 6.65497Z" fill="black"/>
<path d="M6.00623 7.68817C6.00623 7.50975 5.86171 7.36523 5.68329 7.36523H4.3056C4.12718 7.36523 3.98267 7.50975 3.98267 7.68817C3.98267 7.86659 4.12718 8.01111 4.3056 8.01111H5.68329C5.86171 8.01111 6.00623 7.86659 6.00623 7.68817Z" fill="black"/>
<path d="M4.3056 8.39844C4.12718 8.39844 3.98267 8.54295 3.98267 8.72137C3.98267 8.8998 4.12718 9.04431 4.3056 9.04431H5.33887C5.51729 9.04431 5.6618 8.8998 5.6618 8.72137C5.6618 8.54295 5.51729 8.39844 5.33887 8.39844H4.3056Z" fill="black"/>
<path d="M9.4726 12.1449C11.1699 12.1449 12.5509 10.7639 12.5509 9.06659C12.5509 7.36916 11.1699 5.98828 9.4726 5.98828C7.77516 5.98828 6.39429 7.36916 6.39429 9.06659C6.39429 10.7639 7.77516 12.1449 9.4726 12.1449ZM9.14966 6.65614V7.00006C9.14966 7.17831 9.29417 7.323 9.4726 7.323C9.65102 7.323 9.79553 7.17831 9.79553 7.00006V6.65614C10.8788 6.80049 11.7385 7.66037 11.883 8.74365H11.5391C11.3607 8.74365 11.2162 8.88817 11.2162 9.06659C11.2162 9.24501 11.3607 9.38953 11.5391 9.38953H11.883C11.7385 10.4728 10.8788 11.3325 9.79553 11.477V11.1331C9.79553 10.9547 9.65102 10.8102 9.4726 10.8102C9.29417 10.8102 9.14966 10.9547 9.14966 11.1331V11.477C8.06638 11.3325 7.20667 10.4728 7.06215 9.38953H7.40607C7.58449 9.38953 7.729 9.24501 7.729 9.06659C7.729 8.88817 7.58449 8.74365 7.40607 8.74365H7.06215C7.20667 7.66037 8.06638 6.80049 9.14966 6.65614Z" fill="black"/>
<path d="M8.26054 8.64557L9.29381 9.33441C9.43463 9.42841 9.62984 9.39484 9.73122 9.25955L10.7645 7.88187C10.8714 7.7392 10.8425 7.53678 10.6999 7.42986C10.5572 7.32277 10.3548 7.35181 10.2478 7.49448L9.39787 8.62778L8.61873 8.10829C8.47035 8.00943 8.26994 8.04955 8.17091 8.19792C8.07205 8.3463 8.11217 8.54671 8.26054 8.64557Z" fill="black"/>
</g>
<defs>
<clipPath id="clip0_317_74792">
<rect width="22" height="22" fill="white" transform="translate(1.91663 1)"/>
</clipPath>
</defs>
</svg>
