<svg width="24" height="24" viewBox="0 0 24 24" fill="none" xmlns="http://www.w3.org/2000/svg">
<g clip-path="url(#clip0_325_3595)">
<path d="M10.2918 16.515C7.07043 16.7138 2.54443 16.4787 0.234375 15.4766V19.4976C0.234375 19.7702 0.385071 20.0231 0.628967 20.145C2.04401 20.8529 6.32226 21.4612 10.8353 21.0902C10.1611 19.6173 10.0054 18.0012 10.2918 16.515Z" fill="#86CB3C"/>
<path d="M15.8613 10.6298V9.06641C12.4594 10.5437 3.62384 10.5367 0.234375 9.06641V13.7951C0.944274 14.5804 5.60943 15.4251 10.7459 15.019C11.6492 12.877 13.533 11.2131 15.8613 10.6298Z" fill="#86CB3C"/>
<path d="M15.8613 7.38745V2.85156C12.4794 4.32043 3.64966 4.32941 0.234375 2.85156V7.38745C1.8761 9.19342 14.3469 9.06854 15.8613 7.38745Z" fill="#86CB3C"/>
<path d="M15.4332 1.02854C12.7629 -0.334318 3.33942 -0.35153 0.658943 1.02908C0.48481 1.11881 0.48481 1.36948 0.65876 1.45957C3.34693 2.8497 12.777 2.81088 15.4332 1.45938C15.6082 1.37021 15.6082 1.11789 15.4332 1.02854Z" fill="#86CB3C"/>
<path d="M17.6949 11.8633C12.6957 11.8633 9.82684 17.61 12.8199 21.5886C12.8446 19.9712 13.7561 18.5012 15.1717 17.7428C14.8183 17.1845 14.661 16.5266 14.7253 15.863C14.8676 14.3672 16.1396 13.1679 17.6954 13.1679C19.3404 13.1679 20.6789 14.5066 20.6789 16.1522C20.6789 16.7364 20.5099 17.2823 20.2186 17.7428C21.5965 18.4811 22.5426 19.925 22.5704 21.5886C23.3499 20.5505 23.7778 19.2844 23.7778 17.9462C23.7778 14.5919 21.0492 11.8633 17.6949 11.8633Z" fill="#86CB3C"/>
<path d="M19.0366 18.8164C18.1954 19.2416 17.1963 19.2429 16.3541 18.8164C15.1498 19.202 14.2764 20.3336 14.2764 21.6637V22.9769C15.6963 24.3623 19.7457 24.3204 21.1144 22.9769V21.6637C21.1144 20.3327 20.2407 19.2026 19.0366 18.8164Z" fill="#86CB3C"/>
<path d="M17.6951 17.679C18.5364 17.679 19.2216 16.9935 19.2216 16.1519C19.2216 15.3098 18.5368 14.625 17.6951 14.625C16.8555 14.625 16.168 15.3074 16.168 16.1519C16.168 16.9909 16.8502 17.679 17.6951 17.679Z" fill="#86CB3C"/>
</g>
<defs>
<clipPath id="clip0_325_3595">
<rect width="24" height="24" fill="white"/>
</clipPath>
</defs>
</svg>
