<svg width="24" height="24" viewBox="0 0 24 24" fill="none" xmlns="http://www.w3.org/2000/svg">
<rect width="24" height="24" fill="white" fill-opacity="0.01"/>
<g clip-path="url(#clip0_317_74795)">
<path d="M15.1378 2.93692L23.5161 17.4486C23.8234 17.9808 24.0001 18.5978 24.0001 19.2564C24.0001 21.2566 22.3786 22.8782 20.3783 22.8782H12.0001L9.10266 12.0006L12.0001 1.12305C13.3416 1.12305 14.5119 1.85303 15.1378 2.93692Z" fill="#3B4145"/>
<path d="M8.86223 2.93692L0.483891 17.4486C0.176672 17.9808 0 18.5978 0 19.2564C0 21.2566 1.6215 22.8782 3.62175 22.8782H12V1.12305C10.6584 1.12305 9.48811 1.85303 8.86223 2.93692Z" fill="#525A61"/>
<path d="M22.2615 18.1723L13.8833 3.6607C13.5056 3.00638 12.8122 2.5935 12.0623 2.57227L19.228 21.4289H20.3783C21.5763 21.4289 22.5513 20.454 22.5513 19.2559C22.5513 18.8753 22.4508 18.5006 22.2615 18.1723Z" fill="#FFB751"/>
<path d="M20.8525 18.1718C21.0162 18.5001 21.1026 18.8748 21.1026 19.2554C21.1026 20.4535 20.2619 21.4284 19.228 21.4284H3.62176C2.42368 21.4284 1.44873 20.4535 1.44873 19.2554C1.44873 18.8748 1.54918 18.5001 1.73846 18.1718L10.1167 3.6602C10.505 2.98802 11.2264 2.57031 12 2.57031C12.0208 2.57031 12.0415 2.57078 12.0623 2.57177C12.706 2.59689 13.3005 3.00878 13.6245 3.6602L20.8525 18.1718Z" fill="#FFD764"/>
<path d="M12 16.5996V19.0141C12.6669 19.0141 13.2073 18.4737 13.2073 17.8068C13.2073 17.14 12.6669 16.5996 12 16.5996Z" fill="#3B4145"/>
<path d="M12 16.5996C12.1333 16.5996 12.2414 17.14 12.2414 17.8069C12.2414 18.4738 12.1333 19.0141 12 19.0141C11.3331 19.0141 10.7927 18.4738 10.7927 17.8069C10.7927 17.14 11.3331 16.5996 12 16.5996Z" fill="#525A61"/>
<path d="M12 6.21875V15.1524C12.6669 15.1524 13.2073 14.6115 13.2073 13.9451V7.42602C13.2073 6.75913 12.6669 6.21875 12 6.21875Z" fill="#3B4145"/>
<path d="M12 6.21875C12.1333 6.21875 12.2414 6.75913 12.2414 7.42602V13.9451C12.2414 14.6115 12.1333 15.1524 12 15.1524C11.3331 15.1524 10.7927 14.6115 10.7927 13.9451V7.42602C10.7927 6.75913 11.3331 6.21875 12 6.21875Z" fill="#525A61"/>
</g>
<defs>
<clipPath id="clip0_317_74795">
<rect width="24" height="24" fill="white"/>
</clipPath>
</defs>
</svg>
