<svg width="24" height="24" viewBox="0 0 24 24" fill="none" xmlns="http://www.w3.org/2000/svg">
<g clip-path="url(#clip0_325_3570)">
<path d="M9.08887 0H10.4949V1.99903H9.08887V0Z" fill="#86CB3C"/>
<path d="M4.62207 1.57422L5.83968 0.871209L6.8392 2.60237L5.62159 3.30538L4.62207 1.57422Z" fill="#86CB3C"/>
<path d="M1.54004 5.16797L2.24305 3.95036L3.97421 4.94987L3.2712 6.16748L1.54004 5.16797Z" fill="#86CB3C"/>
<path d="M0.668945 8.41797H2.66802V9.82399H0.668945V8.41797Z" fill="#86CB3C"/>
<path d="M1.53906 13.0742L3.27022 12.0747L3.97323 13.2923L2.24207 14.2918L1.53906 13.0742Z" fill="#86CB3C"/>
<path d="M15.6074 4.95312L17.3386 3.95361L18.0416 5.17122L16.3104 6.17074L15.6074 4.95312Z" fill="#86CB3C"/>
<path d="M12.7441 2.60156L13.7437 0.870361L14.9613 1.57337L13.9618 3.30457L12.7441 2.60156Z" fill="#86CB3C"/>
<path d="M10.085 10.8579C10.1754 10.8579 10.266 10.8603 10.3566 10.865C10.803 9.99307 11.4582 9.24634 12.2739 8.68515C13.2091 8.04171 14.297 7.68589 15.4311 7.64966C15.1466 6.55742 14.5482 5.56533 13.698 4.7968C12.6253 3.82707 11.2375 3.29297 9.79029 3.29297C6.57599 3.29297 3.96094 5.90802 3.96094 9.12237C3.96094 10.7009 4.58858 12.1834 5.70079 13.2756C6.62811 11.8004 8.26354 10.8579 10.085 10.8579Z" fill="#86CB3C"/>
<path d="M8.52148 23.4441L9.81348 23.9988L11.0087 21.2148H9.47856L8.52148 23.4441Z" fill="#86CB3C"/>
<path d="M12.0156 23.4441L13.3076 23.9988L14.5028 21.2148H12.9727L12.0156 23.4441Z" fill="#86CB3C"/>
<path d="M15.5088 23.4441L16.8008 23.9988L17.996 21.2148H16.4659L15.5088 23.4441Z" fill="#86CB3C"/>
<path d="M23.3303 16.8273C23.3303 15.3324 22.2137 14.0614 20.7331 13.8709L20.1637 13.7977L20.1217 13.2252C20.0384 12.0927 19.5336 11.0407 18.7001 10.2628C17.8626 9.48121 16.77 9.05078 15.6237 9.05078C13.7728 9.05078 12.13 10.1601 11.4384 11.8771L11.2295 12.3957L10.6771 12.3089C10.482 12.2782 10.2829 12.2626 10.0853 12.2626C8.34794 12.2626 6.84214 13.4384 6.42352 15.1219L6.29347 15.645L5.75454 15.6552C4.63094 15.6764 3.7168 16.6079 3.7168 17.7316C3.7168 18.8773 4.64885 19.8093 5.79447 19.8093H20.3484C21.9926 19.8094 23.3303 18.4717 23.3303 16.8273Z" fill="#86CB3C"/>
</g>
<defs>
<clipPath id="clip0_325_3570">
<rect width="24" height="24" fill="white"/>
</clipPath>
</defs>
</svg>
